<svg xmlns="http://www.w3.org/2000/svg" width="56" height="54">
  <mask id="a" fill="#fff">
    <path fill-rule="evenodd" d="M0 0h26.181v49.806H0z"/>
  </mask>
  <g fill="none" fill-rule="evenodd">
    <path fill="#17a4ea" d="M26.1808167 1.91359579c0-1.60651818-1.9360918-2.52370277-3.1444432-1.4489975-.0087738.00770743-.0175477.01589658-.0263215.02360401L1.35428943 19.0713063c-.8617851.7750787-1.35311959 1.8729063-1.35409446 3.0246859v23.5293494c-.01169844 1.0270155.35680243 2.0232013 1.03677427 2.800207.78379549.8805743 1.91366984 1.383966 3.10008665 1.3806108H24.1082431c1.1420602 0 2.0681867-.9147928 2.0681867-2.0439318z" mask="url(#a)" transform="translate(0 2.097)"/>
    <g stroke="#191e3c" stroke-width="3">
      <path d="M33.577448 2c1.8493284 0 3.3623267 1.4952421 3.3623267 3.32286728s-1.5129983 3.32286728-3.3623267 3.32286728-3.3623267-1.4952421-3.3623267-3.32286728S31.7281196 2 33.577448 2zm-3.3622779 46.6771327c0-1.8276252 1.5129982-3.3228673 3.3623267-3.3228673 1.8493284 0 3.3623266 1.4952421 3.3623266 3.3228673S35.4268252 52 33.5774968 52c-1.8493285 0-3.3623267-1.4952421-3.3623267-3.3228673zm12.6733102-6.7440043c0-1.8276252 1.5129983-3.3228673 3.3623267-3.3228673s3.3623267 1.4952421 3.3623267 3.3228673-1.5129983 3.3228673-3.3623267 3.3228673-3.3623267-1.4952421-3.3623267-3.3228673z"/>
      <path stroke-linecap="round" stroke-linejoin="round" d="M31.125 34.118h7.133l5.45 5.386"/>
      <path d="M46.2507582 8.74400434c1.8493285 0 3.3623267 1.4952421 3.3623267 3.32286726 0 1.8276252-1.5129982 3.3228673-3.3623267 3.3228673-1.8493284 0-3.3623267-1.4952421-3.3623267-3.3228673 0-1.82762516 1.5129983-3.32286726 3.3623267-3.32286726z"/>
      <path stroke-linecap="round" stroke-linejoin="round" d="M31.125 19.882h7.133l5.45-5.386"/>
      <path d="M50.6376733 23.6771568C52.4870017 23.6771568 54 25.1723989 54 27.0000241s-1.5129983 3.3228673-3.3623267 3.3228673-3.3623267-1.4952421-3.3623267-3.3228673 1.5129983-3.3228673 3.3623267-3.3228673z"/>
      <path stroke-linecap="round" stroke-linejoin="round" d="M31.125 27h16.15"/>
    </g>
  </g>
</svg>
