<svg xmlns="http://www.w3.org/2000/svg" width="42" height="46" viewBox="0 0 42 46"><g fill="none" fill-rule="evenodd" transform="translate(2 2)"><path stroke="#191E3C" stroke-width="2.43" d="M3.42083781 15.4397714C1.51498697 15.4397714 0 13.9303225 0 12.0314386 0 10.1328997 1.51498697 8.62345086 3.42083781 8.62345086 5.32668865 8.62345086 6.84132942 10.1328997 6.84132942 12.0314386 6.84132942 13.9303225 5.32668865 15.4397714 3.42083781 15.4397714ZM19 6.8163205C17.0941492 6.8163205 15.5791622 5.30687166 15.5791622 3.40798778 15.5791622 1.50944884 17.0941492 0 19 0 20.9058508 0 22.4208378 1.50944884 22.4208378 3.40798778 22.4208378 5.30687166 20.9058508 6.8163205 19 6.8163205ZM19 42C17.0941492 42 15.5791622 40.4905512 15.5791622 38.5916673 15.5791622 36.6931283 17.0941492 35.1836795 19 35.1836795 20.9058508 35.1836795 22.4208378 36.6931283 22.4208378 38.5916673 22.4208378 40.4905512 20.9058508 42 19 42ZM34.5791622 15.4397714C32.6733113 15.4397714 31.1583244 13.9303225 31.1583244 12.0314386 31.1583244 10.1328997 32.6733113 8.62345086 34.5791622 8.62345086 36.485013 8.62345086 38 10.1328997 38 12.0314386 38 13.9303225 36.485013 15.4397714 34.5791622 15.4397714Z"/><path fill="#17A4EA" d="M19.0254113,24.7512011 C16.9634227,24.7512011 15.28572,23.0796314 15.28572,21.0251805 C15.28572,18.9707295 16.9634227,17.2991598 19.0254113,17.2991598 C21.0874,17.2991598 22.7612944,18.9707295 22.7612944,21.0251805 C22.7612944,23.0796314 21.0874,24.7512011 19.0254113,24.7512011 M28.9912283,19.38569 L25.4357173,13.245793 C24.8513256,12.23271 23.7542064,11.6021633 22.5809224,11.6021633 L15.4699003,11.6021633 C14.2928081,11.6021633 13.1994971,12.23271 12.610951,13.245793 L9.05543995,19.38569 C8.46689382,20.398773 8.46689382,21.6595215 9.05543995,22.6726045 L12.610951,28.804223 C13.1994971,29.817651 14.2928081,30.4478528 15.4699003,30.4478528 L22.5809224,30.4478528 C23.7542064,30.4478528 24.8513256,29.817651 25.4357173,28.804223 L28.9912283,22.6726045 C29.5797744,21.6595215 29.5797744,20.398773 28.9912283,19.38569"/><path stroke="#191E3C" stroke-width="2.43" d="M3.42083781 33.3765491C1.51498697 33.3765491 0 31.8671003 0 29.9682164 0 28.0696775 1.51498697 26.5602286 3.42083781 26.5602286 5.32668865 26.5602286 6.84132942 28.0696775 6.84132942 29.9682164 6.84132942 31.8671003 5.32668865 33.3765491 3.42083781 33.3765491ZM34.5791622 33.3765491C32.6733113 33.3765491 31.1583244 31.8671003 31.1583244 29.9682164 31.1583244 28.0696775 32.6733113 26.5602286 34.5791622 26.5602286 36.485013 26.5602286 38 28.0696775 38 29.9682164 38 31.8671003 36.485013 33.3765491 34.5791622 33.3765491Z"/><line x1="10.334" x2="12.134" y1="33.909" y2="34.944" stroke="#191E3C" stroke-linecap="round" stroke-width="2.43"/><line x1="27.69" x2="25.889" y1="34.055" y2="35.09" stroke="#191E3C" stroke-linecap="round" stroke-width="2.43"/><line x1="10.334" x2="12.134" y1="8.141" y2="7.106" stroke="#191E3C" stroke-linecap="round" stroke-width="2.43"/><line x1="27.69" x2="25.889" y1="7.995" y2="6.96" stroke="#191E3C" stroke-linecap="round" stroke-width="2.43"/><line x1="3.424" x2="3.424" y1="19.882" y2="22.119" stroke="#191E3C" stroke-linecap="round" stroke-width="2.43"/><line x1="34.579" x2="34.579" y1="19.96" y2="22.197" stroke="#191E3C" stroke-linecap="round" stroke-width="2.43"/></g></svg>