<svg height="45" viewBox="0 0 59 45" width="59" xmlns="http://www.w3.org/2000/svg"><g fill="none" fill-rule="evenodd" transform="translate(2 2)"><path d="m3.66675914 29.8182459v-26.09087704c0-2.0586187 1.64161507-3.72736886 3.66675914-3.72736886h40.33331022c2.0247973 0 3.6664124 1.66875016 3.6664124 3.72736886v21.50551534m-47.66648176 4.5853617h-3.66675914v3.7273689c0 4.1168849 3.28323014 7.4543852 7.33351828 7.4543852h40.33331022c4.0499414 0 7.3331715-3.3375003 7.3331715-7.4543852v-3.7273689h-21.1835618c-1.9928943 3.5461822-6.4367678 4.7785334-9.9252865 2.752345-1.1280469-.6553034-2.0629422-1.6056521-2.7075899-2.752345h-11.64808692" stroke="#191e3c" stroke-linecap="round" stroke-linejoin="round" stroke-width="2.43"/><path d="m29.7433672 20.8380858h-3.5890824c-.4958828 0-.8974439-.4085512-.8974439-.9122783 0-.503727.4015611-.9119258.8974439-.9119258h.6727362c.1241442 0 .224361-.1022259.224361-.2280695v-4.1045473c0-.1261962-.1002168-.2280696-.224361-.2280696h-.6727362c-.4958828 0-.8974439-.4085512-.8974439-.9122783s.4015611-.9122783.8974439-.9122783h.8970972c.9910723 0 1.7945412.8171025 1.7945412 1.8245566v4.3326169c0 .1258436.1005637.2280695.224361.2280695h.673083c.4955361 0 .897444.4081988.897444.9119258 0 .5037271-.4019079.9122783-.897444.9122783m-2.0189022-12.31399436c.7434776 0 1.3458192.61265057 1.3458192 1.36841744 0 .75541432-.6023416 1.36806492-1.3458192 1.36806492-.7434775 0-1.3461659-.6126506-1.3461659-1.36806492 0-.75576687.6026884-1.36841744 1.3461659-1.36841744m-.224361-4.56068643c-5.94678 0-10.7675939 4.90049952-10.7675939 10.94592949 0 6.0450774 4.8208139 10.9455769 10.7675939 10.9455769 5.9467801 0 10.7675939-4.9004995 10.7675939-10.9455769 0-6.04542997-4.8208138-10.94592949-10.7675939-10.94592949" fill="#17a4ea"/></g></svg>