<svg height="14" viewBox="0 0 14 14" width="14" xmlns="http://www.w3.org/2000/svg"><path d="m113.921873 15.5078136c-.039059-.0781272-.097655-.15625-.175778-.2343772-.078127-.0781228-.162763-.1367182-.253909-.1757819-.039063-.0520818-.091145-.0813772-.15625-.0878909-.065104-.0065091-.123695-.0097636-.175781-.0097636h-8.320311c-.260418 0-.465494.0781227-.615235.2343727-.14974.1562546-.224609.3580728-.224609.6054728 0 .2473954.074869.4492181.224609.6054681.149741.15625.354817.2343728.615235.2343728h6.328124l-6.914062 6.9140636c-.169271.1692718-.253906.3645823-.253906.5859373 0 .2213554.084635.416666.253906.5859377.078126.0781254.16276.1367185.253907.1757813.091146.0390626.201822.0585937.332031.0585937.117188 0 .221353-.0195311.3125-.0585937.091146-.0390628.182291-.0976559.273437-.1757813l6.914064-6.9335932v6.3476555c0 .2473972.074869.445963.22461.5957033.14974.1497404.348304.2246094.5957.2246094.260418 0 .465495-.074869.615236-.2246094.149741-.1497403.224609-.3483061.224609-.5957033v-8.3398418c0-.0390637-.003255-.0944046-.009764-.1660182-.006513-.0716137-.0293-.12695-.068363-.1660137z" fill="#28CC8B" fill-rule="evenodd" transform="matrix(.70710678 .70710678 -.70710678 .70710678 -55.932694 -84.216532)"/></svg>
