<svg height="44" viewBox="0 0 45 44" width="45" xmlns="http://www.w3.org/2000/svg"><g fill="none" fill-rule="evenodd" transform="translate(2 1)"><path d="m14.2476367 34.5415748 11.6166666 5.936405c.6833334.3492003 1.4691667-.1746002 1.4691667-.9428408v-32.54546722c0-.38412032-.205-.76824064-.5808333-.94284079l-11.6166667-5.93640496c-.6833333-.34920029-1.4691667.17460015-1.4691667.94284079v32.58038728c0 .3841203.205.7333206.5808334.9079207" fill="#17a4ea"/><path d="m10.3111583 1.04153369-8.05137497 4.13313466c-1.38511666.71097179-2.25978333 2.160153-2.25978333 3.74447473v28.88026092c0 1.5591793 1.60685833 2.5722094 2.97010833 1.872412l9.78259997-4.9474697c.5757084-.2908839 1.251525-.2894871 1.8262084.0038412l11.839775 6.0505934c.57605.2943759 1.2539166.2950743 1.8303083.0013968l10.4912167-5.3378756c1.3854583-.711321 2.2597833-2.1601531 2.2597833-3.7444748v-28.61836071c0-1.52251327-1.5381833-2.53659092-2.8952833-1.90872879l-7.2112167 3.33625959" stroke="#191e3c" stroke-linecap="round" stroke-linejoin="round" stroke-width="2.43"/></g></svg>