<svg height="14" viewBox="0 0 8 14" width="8" xmlns="http://www.w3.org/2000/svg"><path d="m.29169927 7.63900426 6.0673377 6.04149234c.4278269.4260045.8556477.4260045 1.2834746 0 .19446709-.1936387.29169927-.4163198.29169927-.6680501 0-.2517296-.09723218-.4550476-.29169927-.6099579l-5.36726027-5.4024886 5.36726027-5.40248813c.466721-.42600515.47644436-.85200354.02917007-1.27800801-.44727362-.42600515-.88481777-.42600515-1.31264467 0l-6.0673377 6.04149239c-.19446709.15491029-.29169927.36790948-.29169927.63900375 0 .2710941.09723218.48409329.29169927.63900426z" fill="#fff" transform="matrix(-1 0 0 1 8 0)"/></svg>