<svg xmlns="http://www.w3.org/2000/svg" viewBox="0 0 157 56"><g fill="none" fill-rule="evenodd" transform="translate(.223)"><path fill="#FFF" d="M0,4.32440799 C0,1.9361034 1.93013276,0 4.31467828,0 L151.685322,0 C154.068253,0 156,1.92764676 156,4.32440799 L156,51.675592 C156,54.0638966 154.069867,56 151.685322,56 L4.31467828,56 C1.93174727,56 0,54.0723532 0,51.675592 L0,4.32440799 Z"/><path fill="#191E3C" d="M144.004832,26.6856895 C143.904348,26.6046308 143.788408,26.5641026 143.657006,26.5641026 C143.525603,26.5641026 143.409663,26.6046308 143.309178,26.6856895 L140.68889,28.9857319 L138.068599,26.6856895 C137.968115,26.6046308 137.852175,26.5641026 137.720773,26.5641026 C137.589371,26.5641026 137.47343,26.6046308 137.372947,26.6856895 C137.272463,26.7735041 137.222222,26.8748258 137.222222,26.9896592 C137.222222,27.104495 137.272463,27.2058167 137.372947,27.2936313 L140.341062,29.8875103 C140.395171,29.9347948 140.455073,29.9685689 140.520773,29.9888338 C140.586474,30.0090985 140.642512,30.0192308 140.68889,30.0192308 C140.735266,30.0192308 140.791304,30.0090985 140.857004,29.9888338 C140.922705,29.9685689 140.98261,29.9347948 141.036716,29.8875103 L144.004832,27.2936313 C144.105316,27.2058167 144.155556,27.104495 144.155556,26.9896592 C144.155556,26.8748258 144.105316,26.7735041 144.004832,26.6856895 Z"/><g font-family="GreycliffCF-Bold, Greycliff CF" font-weight="bold" transform="translate(50.599 17.248)"><text fill="#3D5372" font-size="8.64">
                            <tspan x=".073" y="19.016">Achtergevel scheur</tspan>
                        </text><text fill="#7F8FA4" font-size="7.92">
                            <tspan x="0" y="7.965">Scheuren</tspan>
                        </text></g><g transform="translate(12.278 8.615)"><polygon fill="#CED0DA" points="22.253 0 14.173 8.467 14.173 20.237 30.333 29.605 30.333 17.835"/><g stroke="#7F8FA4" stroke-linejoin="round"><polygon stroke-linecap="round" stroke-width="2.16" points="8.08 8.402 0 16.868 0 28.638 16.159 38.006 16.159 26.236"/><polyline stroke-linecap="round" stroke-width="2.16" points="30.333 29.605 30.333 17.835 22.253 0"/><line x1="8.08" x2="22.253" y1="8.402" stroke-linecap="round" stroke-width="2.16"/><line x1="16.16" x2="30.333" y1="26.312" y2="17.91" stroke-linecap="round" stroke-width="2.16"/><line x1="16.16" x2="30.333" y1="38.006" y2="29.769" stroke-linecap="round" stroke-width="2.16"/><line x1="22.253" x2="21.696" y2=".584" stroke-width=".816"/></g><path stroke="#7F8FA4" stroke-dasharray="2.88 2.16" stroke-linejoin="round" stroke-width="1.44" d="M20.5362276,1.79901618 L14.1731685,8.46678617 L14.1731685,18.586707"/><polyline stroke="#7F8FA4" stroke-linejoin="round" stroke-width=".816" points="14.173 19.428 14.173 20.237 14.871 20.641"/><line x1="16.213" x2="28.964" y1="21.419" y2="28.812" stroke="#7F8FA4" stroke-dasharray="2.88 2.16" stroke-linejoin="round" stroke-width="1.44"/><line x1="29.636" x2="30.333" y1="29.201" y2="29.605" stroke="#7F8FA4" stroke-linejoin="round" stroke-width=".816"/></g></g></svg>
