<svg viewBox="0 0 151 76" xmlns="http://www.w3.org/2000/svg"><g fill="none" fill-rule="evenodd"><path d="m0 3.60177759c0-1.98920684 1.61888966-3.60177759 3.60213306-3.60177759h143.79573394c1.989403 0 3.602133 1.60490316 3.602133 3.60177759v68.79644481c0 1.9892068-1.61889 3.6017776-3.602133 3.6017776h-143.79573394c-1.98940316 0-3.60213306-1.6049032-3.60213306-3.6017776z" fill="#fff"/><g transform="translate(28.762 51.873)"><rect fill="#e8eaf1" height="15.683" rx="1.843" width="34.754"/><text fill="#7f8fa4" font-family="GreycliffCF-ExtraBold, Greycliff CF" font-size="6.6" font-weight="700"><tspan x="6.268" y="10.04">Bewerk</tspan></text></g><rect fill="#e8eaf1" height="15.683" rx="1.843" width="15.579" x="66.512" y="51.873"/><ellipse cx="81.492" cy="52.477" fill="#ff4e4e" rx="1.798" ry="1.81"/><g transform="translate(71.306 56.659)"><path d="m5.62775011 4.32932799c-.33000169 0-.59869682-.26962092-.59869682-.60129555v-1.082332c0-.87572685-.53643235-1.67184216-1.34179931-2.0023142-.08980453-.37689205-.42148257-.64338624-.81350924-.64338624-.38603971 0-.72418368.27202611-.81422768.64338624-.804888.33047204-1.34108088 1.12634684-1.34108088 2.0023142v1.082332c0 .33167463-.26869513.60129555-.59869682.60129555-.06609612 0-.11973936.05387608-.11973936.12025911s.05364324.12025911.11973936.12025911h5.50801075c.06609613 0 .11973936-.05387608.11973936-.12025911s-.05364323-.12025911-.11973936-.12025911zm-2.03556919.48103645h-1.43687237c-.06609613 0-.11973936.05387608-.11973936.12025911 0 .46420017.3759816.84181377.83817555.84181377.46219394 0 .83817554-.3776136.83817554-.84181377 0-.06638303-.05364323-.12025911-.11973936-.12025911z" fill="#7f8fa4" fill-rule="nonzero"/><path d="m0 0h5.992v6.032h-5.992z"/></g><g transform="translate(28.762 8.659)"><rect fill="#3d5372" height="12.063" rx="1.382" width="43.143"/><text fill="#fff" font-family="GreycliffCF-ExtraBold, Greycliff CF" font-size="6.6" font-weight="700"><tspan x="2.372" y="8.831">ONDERZOEK</tspan></text></g><g transform="translate(28.762 24.159)"><text fill="#3d5372" font-family="GreycliffCF-ExtraBold, Greycliff CF" font-size="9.6" font-weight="700"><tspan x="0" y="10">2017-01-00126-Dordrecht</tspan></text><g fill="#7f8fa4" font-family="GreycliffCF-Bold, Greycliff CF" font-size="8.4" font-weight="bold"><text><tspan x="0" y="21.265">4 adressen</tspan></text><text><tspan x="51.984" y="21.265">01 - 02 - 2017</tspan></text></g></g><g transform="translate(8.621 8.659)"><ellipse cx="5.992" cy="6.032" fill="#28cc8b" rx="5.992" ry="6.032"/><path d="m4.972 7.117-1.378-1.378-.587.59 1.965 1.979 4.049-4.075-.587-.601z" fill="#fff"/></g></g></svg>
