<svg xmlns="http://www.w3.org/2000/svg" width="166" height="25" viewBox="0 0 166 25"><mask id="a" fill="#fff"><path fill-rule="evenodd" d="m0 0h89.917486v25h-89.917486z"/></mask><g fill="#fff" fill-rule="evenodd"><path d="m27.3836672.01273427v3.06983436h-3.0439791v3.07080644h-3.0449431v9.21241933h3.0449431v3.0708064h6.0889221v6.1406408h6.0889222v-6.1406408h6.0879583v-3.0708064h3.0449431v-9.21241933h-3.0449431v-3.07080644h-3.0430152v-3.06983436z"/><path d="m12.428457 19.1393188c-.8395522 1.1519169-1.948031 1.9986002-3.594363 1.9986002-1.94803099 0-3.3919451-1.2530135-3.79485304-3.18454h11.68914984v-1.591298c0-5.2511859-2.9562648-8.63889102-7.65910652-8.63889102-5.03827707 0-9.06928428 3.38770512-9.06928428 8.63889102 0 5.2502139 4.03100721 8.637919 9.06928428 8.637919 2.61986552 0 5.27346732-1.1859398 6.88606302-3.2525857zm-7.38921604-4.6407186c.13398135-1.59227 1.34270518-3.1164943 3.55966276-3.1164943 1.81404958 0 3.12398238 1.4231278 3.09024608 3.1164943zm14.47673294 10.0950696h5.0382771v-24.5936698h-5.0382771zm8.6654125 0h5.038277v-8.3336574h.0674727l5.5086576 8.3336574h6.3482098l-6.6508727-9.0452212 6.4831551-7.41795634h-6.1804922l-5.5761303 6.50322734v-14.6337196h-5.038277zm18.7429305 0h5.038277v-16.46317754h-5.038277zm-.4038719-21.64631775c0 1.62629287 1.3108967 2.94735205 2.9225284 2.94735205 1.6125957 0 2.9225285-1.32105918 2.9225285-2.94735205s-1.3099328-2.94735205-2.9225285-2.94735205c-1.6116317 0-2.9225284 1.32105918-2.9225284 2.94735205zm20.6572252 16.19196675c-.8395522 1.1519169-1.948031 1.9986002-3.5933991 1.9986002-1.948031 0-3.392909-1.2530135-3.7958169-3.18454h11.6891498v-1.591298c0-5.2511859-2.9553009-8.63889102-7.6581426-8.63889102-5.0382771 0-9.0692843 3.38770512-9.0692843 8.63889102 0 5.2502139 4.0310072 8.637919 9.0692843 8.637919 2.6198655 0 5.2734673-1.1859398 6.886063-3.2525857zm-7.389216-4.6407186c.1339813-1.59227 1.343669-3.1164943 3.5606266-3.1164943 1.8140497 0 3.1239824 1.4231278 3.0902461 3.1164943zm14.4092603 10.0950696h5.0382771v-8.198538c0-2.1337196.4038718-4.2003655 3.0237373-4.2003655 2.5861293 0 2.6198656 2.4389533 2.6198656 4.336457v8.0624465h5.038277v-9.0792441c0-4.4035306-.9407611-7.79123572-6.0465108-7.79123572-2.4521478 0-4.0975159 1.35508205-4.7693505 2.64309042h-.0674726v-2.23578814h-4.8368231z" mask="url(#a)" transform="translate(76.083)"/><path d="M9.13193743.01837235v3.06983435h-3.04397914v3.06983436h-3.04397915v3.06983436h-3.04397914v15.34917178h9.13193743v-6.1396687h3.04397917v6.1396687h9.1319374v-15.34917178h-3.0439791v-3.06983436h-3.0439792v-3.06983436h-3.0439791v-3.06983435zm-3.04397914 12.27933745h3.04397914v-3.06983438h-3.04397914zM51.738874.01837235v3.06983435h-6.0879583v6.13966872h6.0879583v12.27933738h-3.0439792v3.0698344h6.0879583v-6.1396687h9.1329014v3.0698343h-3.0439792v3.0698344h6.0879583v-15.34917178h3.0420513v-3.06983436h-3.0420513v3.06983436h-12.1768805v-9.20950307z"/></g></svg>