<svg height="92" viewBox="0 0 160 92" width="160" xmlns="http://www.w3.org/2000/svg" xmlns:xlink="http://www.w3.org/1999/xlink"><mask id="a" fill="#fff"><path d="m0 92h160v-92h-160z" fill="#fff" fill-rule="evenodd"/></mask><g fill="#fff" fill-rule="evenodd"><path d="m73.7129291 52.3401897c-.63796.3132141-1.3460911.463069-2.0586494.4356246-.4449339-.0002178-.8892037-.0365925-1.3281609-.1089061-.3439936-.0590272-.6789115-.161399-.9961206-.3049373-.222467-.1108664-.4185921-.2668201-.5755364-.4574058-.1175422-.165973-.1795231-.3639644-.1770881-.566312-.0139457-.2947001.0714993-.5859152.2434961-.8276868.1620357-.2056149.3654656-.3761619.5976724-.5009684.3763123.0435625.9518487.087125 1.7708812.1089062.569781.0065344 1.1386766.042909 1.7044731.1089062.3422228.0442159.6771407.1319942.9961207.2613747.1673483.0601162.3081333.1755568.3984483.3267185.0750411.1642305.1128937.3426188.11068.5227496-.0309904.4303971-.2924167.8120042-.6862164 1.0019366m-4.1172987-10.1282725c.390922-.3175704.8880969-.4807118 1.3945689-.4574059.5126701-.0196031 1.015379.1428849 1.4167049.4574059.3683433.2988385.5731014.7503634.5534004 1.2197489.0239069.4578415-.1830649.8980402-.5534004 1.1761865-.4112871.2914329-.9104543.4371493-1.4167049.4138434-.4998312.0267909-.993243-.119579-1.3945689-.4138434-.3563899-.2870766-.5534004-.7235725-.5312644-1.1761865-.0214719-.4650293.1742104-.9143761.5312644-1.2197489m6.5743963 10.5856783c.2908673-.4639402.4371863-1.001501.4205843-1.5464674.0148311-.5460554-.1148859-1.0864478-.3763122-1.5682486-.2753721-.4299615-.6660727-.7767187-1.1289368-1.0019367-.534142-.2435141-1.1006026-.4123187-1.6823371-.5009683-.7185351-.1004115-1.4434895-.1513795-2.1693295-.1524686h-.066408c-.4030968-.0037028-.8044228-.0548887-1.1953448-.1524686-.5312644-.1524686-.7304885-.4791871-.6640804-.7187806.0464856-.1539933.148754-.2857698.2877682-.370281.1770881.0435625.3763122.0653437.6198084.1089062.2490301.0361568.500938.0507503.7526245.0435624.5611479.0054454 1.1200823-.0677396 1.6602011-.2178123.5115633-.1417958.9972274-.3624397 1.4388409-.6534369.4205843-.283156.7630285-.664981.9961207-1.1108428.2589914-.4828899.3884871-1.0226288.3763122-1.5682486.0037632-.3883594-.0714993-.7734516-.2213601-1.1326241-.1288316-.3635287-.3322616-.6972172-.5976724-.9801554l1.4167049-1.4811237-1.4831129-1.1979677-1.5716571 1.6118111c-.3240712-.1252421-.6569969-.2271782-.9961207-.3049372-.3493063-.073185-.7054747-.1095596-1.0625287-.1089062-.5611479-.0054453-1.1200823.0677396-1.6602011.2178123-.5093497.1400533-.9892585.3687563-1.4167049.6752182-.4108444.2938288-.7508536.6732578-.9961207 1.1108428-.2589913.4826721-.388487 1.022411-.3763122 1.5682486-.0090758.5081562.1128936 1.0099957.3541762 1.4593425.2353058.437585.5593771.8231127.9518486 1.132624-.3161022.1781705-.5941306.4149325-.8190325.6969994-.2005523.2724832-.3090188.600073-.3099042.936593.007969.2820669.0838955.5582529.2213601.8059055.1691192.2814135.3778618.5379964.6198085.7623431l-.0885441.0653437c-.706803.5329868-1.1103425 1.3676435-1.0846647 2.2434668 0 1.1326241.4869923 1.9820921 1.483113 2.5048416.9075766.5009683 2.1693294.7405619 3.7631225.7405619.6193657.0067522 1.2371818-.0664328 1.8372892-.2178123.5580489-.1167474 1.0901987-.3306391 1.571657-.6316557.4985031-.2291386.9153242-.601162 1.1953448-1.0672804m3.4974904-9.1481171c.0380739-.2892547.1279461-.5693613.2656321-.8276868.1319307-.2376332.3041489-.4510892.5091284-.6316557.1894843-.1659729.4066386-.2986206.6419444-.3920621.2337563-.0853824.4810156-.1295983.7304885-.1306874.4812369.0124153.9432156.1894967 1.3060249.5009683.4239046.3927156.6775834.9309298.7083524 1.502905l.022136.1306874h-4.2058428zm6.6629404 3.8988404-1.9479693-1.1761865c-.3984483.5445308-.7968965.9148117-1.1732088 1.0672804-.3973414.1709826-.8283297.2528801-1.2617528.2395935-.5341421-.0010891-1.051018-.1860117-1.460977-.5227495-.4427203-.3484997-.6862165-.936593-.7526245-1.7424985h6.6186684c-.022136-1.8949672-.4427203-3.288966-1.2838888-4.2255589-.8137199-.9261379-2.0106143-1.4390859-3.2539942-1.3939988-.6204725-.0032672-1.2360751.1075993-1.8151532.3267185-1.1734302.4425946-2.094067 1.3643763-2.5235057 2.5266228-.2596555.6821882-.3873803 1.4061963-.3763123 2.1345607-.0123961.7568977.1151073 1.5096571.3763123 2.2216855.2273369.5843905.5826199 1.1121497 1.0403927 1.5464675.4360795.4099227.9571613.7220478 1.527385.9148117.5908102.2016942 1.2119468.3047194 1.8372892.3049372.8754794.0178606 1.744318-.1531221 2.5456417-.5009683.7083525-.3049373 1.3502969-.8930305 1.9036973-1.7207173zm10.7802392 2.0474575v-.0217812-5.750245c-.0022136-.2184658-.0170448-.4367137-.0442721-.653437-.0150524-.1764279-.0447147-.3511134-.088544-.5227495.088544-.0653437.1992241-.1306874.3320402-.2178123.1553948-.0927881.3183159-.172943.4869923-.2395936.1863853-.0856002.3787472-.1585673.5755364-.2178123.1930261-.0607696.3949065-.0901743.5976724-.0871249.6862165 0 1.1510731.1960311 1.4167051.5880932.26696.4639403.39712.9919173.376312 1.5246862v5.5977764h2.61205v-5.7066825c.008412-.5795986-.058661-1.1578903-.199224-1.7207173-.1171-.4667718-.344658-.8995649-.664081-1.2633114-.336689-.363311-.763914-.633616-1.239617-.7841243-1.202428-.3700632-2.4898585-.3776866-3.696714-.0217813-.531043.1646661-1.0428277.3835675-1.527385.653437-.3796327-.3382626-.8345278-.5846083-1.3281609-.7187807-.4602078-.1343902-.9367962-.2077929-1.416705-.2178156-.4796874-.0006501-.9542836.0956229-1.3945689.2831593-.4205843.1574783-.8101781.3859634-1.1510728.6752182l-.11068-.7187806h-2.4128256v9.518398h2.6341857v-6.7739629c.2656322-.2480882.5633616-.4604552.8854406-.6316557.3428869-.1966845.732038-.3016701 1.1289368-.3049372.2689525-.0067522.5354702.0531462.7747605.1742498.2023232.1049855.3709996.2633351.4869923.4574059.118649.212367.2080785.4395452.2656322.6752181.0537905.2729189.0832314.5497583.088544.8276868v5.5977764zm10.8023753-5.9462979c.038074-.2892547.127946-.5693613.265632-.8276868.131931-.2376332.304149-.4510892.509128-.6316557.189485-.1659729.406639-.2986206.641945-.3920621.233756-.0853824.481015-.1295983.730488-.1306874.481237.0124153.943216.1894967 1.306025.5009683.423905.3927156.677584.9309298.708353 1.502905l.022136.1306874h-4.183707zm2.191465 6.1423072c.87548.0178606 1.744318-.153122 2.545642-.5009683.730489-.3267185 1.350297-.9148117 1.903697-1.7424985l-1.947969-1.1761865c-.398448.5445308-.796897.9148117-1.173209 1.0672804-.397341.1709826-.828329.2528801-1.261753.2395935-.534142-.0010891-1.051018-.1860117-1.460977-.5227495-.44272-.3484997-.686216-.936593-.752624-1.7424985h6.618668c-.022136-1.8949672-.44272-3.288966-1.283889-4.2255589-.813719-.9261379-2.010614-1.4390859-3.253994-1.3939988-.620472-.0032672-1.236075.1075993-1.815153.3267185-1.17343.4425946-2.094067 1.3643763-2.523506 2.5266228-.259655.6821882-.38738 1.4061963-.376312 2.1345607-.012396.7568977.115107 1.5096571.376312 2.2216855.227559.5843905.58262 1.1121497 1.040393 1.5464675.43608.4099227.957161.7220478 1.527385.9148117.584391.2276138 1.208848.3386981 1.837289.3267184zm8.345278-6.1423072c.038074-.2892547.127946-.5693613.265632-.8276868.131931-.2376332.304149-.4510892.509128-.6316557.189485-.1659729.406639-.2986206.641945-.3920621.233756-.0853824.481015-.1295983.730488-.1306874.481237.0124153.943216.1894967 1.306025.5009683.423905.3927156.677584.9309298.708353 1.502905l.022136.1306874h-4.205843zm-1.128937 4.9443395c.43608.4099228.957161.7220478 1.527385.9148117.59081.2016942 1.211947.3047195 1.837289.3049373.87548.0178606 1.744318-.1531221 2.545642-.5009684.730489-.3267184 1.350297-.9148117 1.903697-1.7424984l-1.947969-1.1761865c-.398448.5445307-.796896.9148117-1.173209 1.0672803-.397341.1709827-.828329.2528801-1.261753.2395935-.534142-.001089-1.051018-.1860117-1.460977-.5227495-.44272-.3484997-.686216-.936593-.752624-1.7424985h6.618668c-.022136-1.8949671-.44272-3.2889659-1.283889-4.2255589-.841168-.9365929-1.903697-1.3940689-3.253994-1.3940689-.620472-.003197-1.236075.1076694-1.815153.3267886-1.17343.4425946-2.094067 1.3643763-2.523506 2.5266228-.259655.6821882-.38738 1.4061963-.376312 2.1345607-.012396.7568978.115107 1.5096571.376312 2.2216856.227116.590707.582178 1.1258718 1.040393 1.5682486zm18.837749 1.0019584v-.0217812-5.6413389c.014388-.6414572-.075263-1.281172-.265632-1.8949671-.154731-.4763555-.411509-.9143761-.752625-1.2850926-.322743-.3232335-.716543-.5691436-1.151073-.7187807-.47858-.153122-.979961-.2267426-1.483113-.2178123-.535027.0017425-1.065849.0901743-1.571657.2613748-.506029.1631414-.978412.4138434-1.394569.7405619l-.11068-.7405619h-2.390689v9.518398h2.634185v-6.7521816c.271167-.2570186.576644-.4767912.907577-.653437.342887-.1966845.732038-.30167 1.128937-.3049372.518868-.0233059 1.01892.1945064 1.350297.5880932.33204.3920622.486992.9583742.486992 1.6771548v5.4453078zm6.99498-2.1127794c-.238405.1256777-.504258.1929817-.77476.1960311-.155174-.01394-.302157-.0747096-.420584-.1742499-.1627-.1694579-.243275-.3994677-.221361-.6316557v-4.8354333h2.368554v-1.982092h-2.346418v-2.7226539h-2.612049v2.7226539h-1.416705v1.982092h1.416705v5.2274955c-.014167.4031706.061316.8045987.22136 1.1761865.136136.3027591.340452.5708861.597672.7841243.252794.204308.547203.352856.863305.4356246.317209.0860359.644822.130034.973984.1307988.528166.0035914 1.052789-.0850582 1.549521-.2614862.490313-.1794773.958047-.4134077 1.394569-.6969994l-.951848-1.7642797c-.190813.1698936-.407524.3095113-.641945.4138434m4.914196-3.8335185c.038074-.2892547.127946-.5693613.265632-.8276868.13193-.2376332.304149-.4510892.509128-.6316557.189484-.1659729.406639-.2986206.641945-.3920621.233756-.0853824.481015-.1295983.730488-.1306874.481237.0124153.943216.1894967 1.306025.5009683.423905.3927156.677583.9309298.708352 1.502905l.022136.1306874h-4.205842zm-1.151073 4.9443395c.436079.4099228.957161.7220478 1.527385.9148117.59081.2016942 1.211947.3047195 1.837289.3049373.875479.0178606 1.744318-.1531221 2.545642-.5009684.730488-.3267184 1.350297-.9148117 1.903697-1.7424984l-1.947969-1.1761865c-.398449.5445307-.796897.9148117-1.173209 1.0672803-.397341.1709827-.82833.2528801-1.261753.2395935-.534142-.001089-1.051018-.1860117-1.460977-.5227495-.44272-.3484997-.686216-.936593-.752624-1.7424985h6.618668c-.022136-1.8949671-.44272-3.2889659-1.283889-4.2255589-.81372-.9261379-2.010614-1.4390859-3.253994-1.3939988-.620472-.0032671-1.236075.1075993-1.815153.3267185-1.17343.4425946-2.094067 1.3643763-2.523506 2.5266228-.259655.6821882-.38738 1.4061963-.376312 2.1345607-.012396.7568978.115107 1.5096571.376312 2.2216856.243496.5824301.596566 1.1145456 1.040393 1.5682486zm-63.7295866 14.9854871c-.3884871-.3591725-.828551-.6599713-1.3060249-.8930305-.575315-.2962247-1.175201-.5438773-1.7930172-.7405619-.7194204-.2358907-1.4100641-.549976-2.0586493-.9365929-.4196989-.2280495-.6820106-.6608425-.6862165-1.132624-.0022136-.3822606.1994455-.7377303.5312644-.936593.3541762-.2395935.8633045-.3484997 1.549521-.3484997.597451-.0328896 1.1911389.1113021 1.7044731.4138434.4174853.2801067.7778596.6347051 1.0625287 1.0454991l1.9479693-1.3722175c-.2100707-.3101648-.4469261-.6015976-.7083524-.8712493-.2780284-.2920863-.5987792-.5416992-.9518487-.7405618-.4092949-.226307-.8489161-.3948938-1.3060248-.5009684-.5646898-.1370039-1.1448747-.203001-1.7266092-.196031-.6955136-.0132866-1.3892563.0747096-2.0586494.2613747-.5423323.1511618-1.0472548.4105762-1.4831129.7623431-.3869376.3162635-.6906437.7198697-.8854406 1.1761865-.3758696.9363751-.3838385 1.9768646-.0221361 2.918685.1753173.4020815.4312096.7649568.7526245 1.0672803.3552831.3201841.7583799.5846083 1.1953448.7841243.5040371.2389402 1.0213558.4497825 1.5495211.6316558.6198084.2178123 1.1289367.4138433 1.527385.5880932.3404519.1391821.6605387.3223622.9518486.5445308.2056436.1570427.3723278.3580834.4869924.5880932.0925285.2361086.1374646.4876818.132816.7405619.0050913.4343177-.2330922.8359636-.6198084 1.0454991-.495404.2853341-1.0647423.4214668-1.6380651.3920621-.6136103.0095838-1.2205798-.1248064-1.7708811-.3920621-.5164333-.2509198-.9472001-.6445067-1.2396169-1.132624l-2.0586493 1.3504363c.9739846 1.6118111 2.6784577 2.4394979 5.1134194 2.4394979.6129462-.0032672 1.2230148-.0836399 1.8151532-.2395936.5598198-.1365683 1.0864356-.3807359 1.549521-.7187806.4451553-.3175703.8152694-.7261862 1.0846647-1.1979677.2840051-.5220961.4287746-1.1067044.4205843-1.698936.0115107-.5273236-.0788042-1.0520335-.2656322-1.5464675-.1923619-.4290902-.4622-.8202811-.7968965-1.1544052m8.4559576 3.9859871c-.3605956.2544048-.7962324.3844387-1.2396168.3702809-.622022.0230881-1.2165954-.2530979-1.5937931-.7405618-.3984482-.5009684-.6198084-1.1979678-.6198084-2.1127795-.0059767-.4489112.0535692-.8965155.1770882-1.3286551.0912003-.3323816.2492515-.6436354.4648563-.9148117.1742104-.2167232.3929142-.3948937.6419444-.5227495.2348631-.1113021.4918622-.1707649.7526245-.1742499.4181493-.0032672.8245665.1350436 1.1510728.3920622.4011045.3606972.6988339.8189743.8633045 1.3286551l2.0586494-1.0019367c-.1250685-.3474106-.2961799-.6769606-.5091283-.9801554-.2324282-.3382625-.5159905-.6392791-.8411686-.8930304-.360153-.2740079-.7641352-.487464-1.1953448-.6316557-.5049225-.1725074-1.0372936-.2537514-1.571657-.2395936-.5819559.0021781-1.1590418.1054212-1.7044732.3049372-.5511867.2021299-1.0501325.5220962-1.4609769.936593-.4416135.4593662-.7875995.9997585-1.0182567 1.5900299-.2718303.7091969-.3997765 1.4639165-.3763123 2.2216855-.0172661.7307604.1184277 1.4573822.3984483 2.1345607.2439389.5758958.5970083 1.1006056 1.0403927 1.5464674.4327591.4086159.9445437.7270575 1.505249.936593.564247.2171588 1.1650184.3278075 1.7708812.3267184.8602055.0211278 1.7100071-.1897145 2.4570976-.6098744.740007-.4528318 1.3257259-1.1125853 1.6823371-1.8949672l-1.9701053-1.0454991c-.2408398.3704988-.531043.7076722-.8633046 1.0019367m12.55112-6.3819225c-.301935-.3626575-.689536-.6466848-1.128936-.8276868-.526616-.2114958-1.091527-.3151744-1.660201-.3049373-.550523-.0128509-1.098611.0757987-1.6159295.2613748-.4106231.1496371-.7980034.3548163-1.1510728.6098745v-4.5522773h-2.6341858v13.4390196h2.6341858v-6.7739629c.2921954-.2284851.6032064-.4323574.9297126-.6098745.3701142-.2112779.7895917-.3238869 1.2174807-.3267184.435194.0065343.846481.1969023 1.128937.5227495.33204.3484997.486992.9148117.486992 1.6989361v5.467089h2.634186v-5.6631201c.004427-.572193-.062424-1.1428612-.199224-1.6989361-.132595-.4500002-.350413-.8710314-.641945-1.2415301"/><path d="m107.581 69.831h2.612v-9.519h-2.612z" mask="url(#a)"/><path d="m118.781855 64.0584921h-4.050891l.022136-.1524686c.038074-.2892548.127947-.5693614.265633-.8276868.13193-.2376333.304148-.4510893.509128-.6316557.189484-.165973.406639-.2986207.641944-.3920622.233757-.0853824.481016-.1295983.730489-.1306874.481237.0124153.943215.1894967 1.306025.5009683.423904.3927156.677583.9309299.708352 1.502905l.022136.1306874zm1.394569-2.5919665c-.819033-.936593-1.903697-1.394069-3.253994-1.394069-.620473-.003197-1.236075.1076694-1.815153.3267886-1.17343.4425947-2.094067 1.3643764-2.523506 2.5266229-.259655.6821881-.38738 1.4061962-.376312 2.1345606-.012396.7568978.115107 1.5096571.376312 2.2216856.227337.5843904.58262 1.1121497 1.040393 1.5464674.436079.4099228.957161.7220478 1.527385.9148117.59081.2016942 1.211946.3047194 1.837289.3049373.875479.0178606 1.744318-.1531221 2.545642-.5009684.730488-.3267184 1.350297-.9148117 1.903697-1.7424985l-1.947969-1.1761864c-.398449.5445307-.796897.9148117-1.173209 1.0672803-.397342.1709827-.82833.2528801-1.261753.2395935-.534142-.001089-1.051018-.1860117-1.460977-.5227495-.44272-.3484997-.686216-.936593-.752625-1.7424985h6.618669c-.044272-1.8731859-.464856-3.2889659-1.283889-4.2037776zm9.16431 5.6631201h-.022136c-.413943.5127302-1.039286.8161427-1.704473.8276868-.361702.0058809-.718978-.0764522-1.040393-.2395936-.281348-.1648839-.523074-.3879237-.708352-.6534369-.196789-.292522-.339124-.6170623-.420584-.9583742-.088987-.3711522-.133702-.7512347-.132817-1.132624-.002877-.3541628.049364-.706801.154953-1.0454991.108687-.3297679.273379-.6390613.486992-.9148117.221581-.268127.501381-.483979.819032-.6316557.360817-.1629236.753953-.2448211 1.151073-.2395936.486107.0054453.966901.1015006 1.416705.283156zm-.022136-6.7957442c-.558713-.1751211-1.140226-.2705229-1.726609-.283156-.732702-.0145934-1.459206.1343902-2.125057.4356247-.580407.2637707-1.094405.6506053-1.505249 1.132624-.403761.467643-.711895 1.0073819-.907577 1.5900299-.201216.5824301-.30592 1.1927402-.309904 1.8078421-.005313.6425464.091864 1.2820433.287768 1.8949672.171997.5856973.457551 1.1330596.841168 1.6118111.373214.4608908.840948.8394486 1.372433 1.1108428.575537.2870766 1.214382.429308 1.859426.4138434.481015.0141578.958489-.0827687 1.394569-.283156.351077-.1657552.672492-.3863991.951848-.653437l.11068.7405619h2.368554v-13.4390197h-2.61205zm10.381791 6.9917753h-.022136c-.243939.2090998-.520639.3781221-.819033.5009683-.307911.1295983-.639288.1962489-.973984.1960311-.376755.0287512-.751961-.0712247-1.062529-.283156-.237077-.182309-.369007-.4667718-.354176-.7623431.003763-.3132141.121527-.6146664.33204-.8494681.22136-.2613747.619809-.4356246 1.173209-.5445307.265632-.0435625.5534-.087125.863304-.1306874.285776-.0424734.574209-.0644725.863305-.0653437zm1.527385-6.403682c-.347757-.3092935-.764799-.5334224-1.217481-.653437-.503594-.1439739-1.025119-.2173766-1.549521-.2178123-.311011.0015247-.621579.0235238-.929712.0653437-.345765.0511859-.686438.1313409-1.018257.2395936-.355062.1184899-.690644.2872944-.996121.5009683-.328277.2145451-.619808.4791871-.863304.7841243l1.793017 1.219749c.281791-.2894726.620694-.5192646.996121-.6752182.278028-.0977977.568674-.1566071.863304-.1742499.350856-.0076234.691308.1169653.951849.3484997.267181.2387223.413058.5817767.398448.936593v.3267185c-.265632.0217812-.597672.0653436-.996121.0871249-.398448.0217812-.77476.0871249-1.1068.1524686-.466849.0773234-.92595.1940708-1.372433.3484997-.412616.1454986-.800439.3511134-1.151073.6098745-.323407.2513554-.593909.5619557-.796897.9148117-.208521.3892306-.315216.8233305-.309904 1.2633114-.009961.4447727.088766.885407.287768 1.2850926.179745.367885.43608.6943857.752625.9583742.316766.2672557.685995.4674252 1.084665.5880932.405974.1391821.831871.2125849 1.261752.2178551.490092.0021354.976863-.0788908 1.438841-.2396363.404868-.1492014.774097-.3789934 1.084665-.6752182l.11068.7187807h2.412826v-6.120526c.019037-.5652229-.078804-1.1284856-.287768-1.6553736-.191034-.4408521-.478138-.8348746-.841169-1.1544052zm18.572116 1.4811455c-.117099-.4667718-.344657-.8995649-.66408-1.2633114-.336689-.363311-.763914-.633616-1.239617-.7841243-1.202428-.3700632-2.489859-.3776866-3.696714-.0217813-.531043.1646661-1.042828.3835675-1.527385.653437-.379633-.3382626-.834528-.5843905-1.328161-.7187807-.460208-.1343902-.936796-.2077929-1.416705-.2178156-.479688-.0006501-.954284.0958407-1.394569.2831593-.420584.1574783-.810178.3859634-1.151073.6752182l-.11068-.7187806h-2.412826v9.518398h2.634186v-6.7739629c.265632-.2480882.563362-.4604552.885441-.6316557.342887-.1966845.732038-.3016701 1.128937-.3049373.268952-.0067521.53547.0531463.77476.1742499.202323.1049855.371.2633351.486992.4574059.118649.212367.208079.4395452.265633.6752181.05379.2729188.083231.5497583.088544.8276868v5.5977764h2.612049v-5.750245c-.002213-.2184658-.017044-.4367137-.044272-.6534369-.015052-.1762102-.044714-.3511135-.088544-.5227496.088544-.0653437.199224-.1306874.332041-.2178123.155394-.0927881.318315-.172943.486992-.2395936.186385-.0856002.378747-.1585673.575536-.2178123.193026-.0607696.394907-.0901743.597673-.0871249.686216 0 1.151072.1960311 1.416705.5880933.26696.4639402.39712.9919172.376312 1.5246861v5.5977765h2.61205v-5.7066826c.009739-.5867864-.057333-1.1724837-.199225-1.7424985m-50.890697-6.0987448c-.436301-.0259196-.863084.1326477-1.173209.4356247-.530822.5236208-.530822 1.3713463 0 1.8949671.30769.3066797.736244.4659005 1.173209.4356246.4363.0259197.863083-.1326477 1.173208-.4356246.253236-.2570185.396014-.6002907.398449-.9583742-.002657-.3515491-.145877-.6878513-.398449-.9365929-.310125-.302977-.736908-.4615443-1.173208-.4356247" mask="url(#a)"/><path d="m16.186 10.397-2.003-1.972-2.004 1.972 2.004 1.971z" mask="url(#a)"/><path d="m42.728 10.391-2.003-1.971-2.004 1.971 2.004 1.972z" mask="url(#a)"/><path d="m48.5885524 9.56185159 1.4831129 2.30881051-2.9662259.0435625v6.9046503h-1.3281609l-3.0410457-2.9923056 2.0090647-1.9768645-2.0035307-1.9714193-2.0090647 1.9768646-.002435-.002396-.0081903.0080591-2.0070725-1.975122-2.0035307 1.9714192 2.0070725 1.975122-3.0574263 3.0084237-6.6408045-5.467089v-2.7879976l3.4974904 2.8969037 3.5196263-2.918685v-3.92062159l-2.7005938-2.22168558-2.5677777.76234309.7968965-2.89690375-2.7448658-2.28702928h-2.7227298l-2.7670019 2.28702928.7968966 2.89690375-2.5677777-.76234309-2.7005938 2.22168558v3.92062159l3.5196263 2.918685 3.4974903-2.8969037v2.7879976l-6.6346063 5.4620793-3.057205-3.0082058 2.0099501-1.9777358-2.0035307-1.9714193-2.0099501 1.9777358-2.0028666-1.9707658-2.0035307 1.9714193 1.9940122 1.9618355-3.07137204 3.0221458h-1.32816089v-6.9046503l-2.96622597-.0435625 1.48311299-2.30881047-3.40894627-3.89884039-2.87768192 2.35237297 5.4011876 13.26476979 1.08466472 3.8334967s13.21520078-1.1544052 20.98494198-1.1761865c7.7697412.0217813 20.984942 1.1761865 20.984942 1.1761865l1.0846647-3.8334967 5.4011876-13.26476979-2.8998179-2.35237297z" mask="url(#a)"/><path d="m27.471 33.347 1.505-1.242h-2.568z" mask="url(#a)"/><path d="m32.213 71.185 5.579-4.606-4.184-4.906-5.579 4.606z" mask="url(#a)"/><path d="m31.0789647 30.7332083h1.571657l1.8815613-1.5464674h.7304885v3.8988404h1.7044731v10.1282725l2.1250574 2.5048416-5.5782757 4.5958398.0664081 3.0275911 11.2672315 13.2212074h1.593793l1.3502969-1.1108428v-3.8988404l-8.1903254-9.605523v-4.6829647l1.2617528-1.0454991v-3.9859653l-.5755364-.6752182 1.7487452-1.4375612.8190325.9365929v1.5464674l1.9479693-1.6118111.0221361-1.3504363h5.3790515l-1.2396168 1.0237179v2.4177166l-1.6602011 1.3504364h1.6159291l1.3281609 1.6118111v1.8731859l-3.1875862 2.6573102v-2.8533413l-1.505249-1.7642798h-1.549521l-2.6563218 2.1345607v3.2236222l8.1903255 9.605523v5.5324327l-2.3685536 1.9385296h-3.076906l-2.1693295-2.5484041.022136 5.6117164.0212506.0248306-.0013281.0013069-.0141671-.0167715-5.5789398 4.6062947 4.1786155 4.9001236v2.7766714h-3.3425382l-3.2539942 2.6790914-2.3021455-2.6790914h-3.0990421v-3.0275912l1.0846647-.9148117h2.1693295l2.4570976-2.0038732-2.0807854-2.4394979v-4.2037777l-4.1837068-4.900777v4.2037777h-5.0691473v4.9661207h-6.020996l-1.7708812 1.4593425h-1.9922413l-1.2396169-1.4593425h-.9518486v1.4593425h-2.5456417v-2.7662164l4.427203-3.6592468h4.4272029v-3.6374657l6.5814799-5.4546737.0033204.0037028 5.5787184-4.6062948-4.183264-4.9055689-5.5760621 4.6041167-.0008855-.0010891-3.5101078 2.9324072-3.0769061 2.5048416-2.0365133-2.3741542-2.83340993 2.3305917-2.14719343-2.5048416v-3.114716l3.47535431-2.8533413 1.57165705 1.8296234 4.3829309-3.6374656.0044272-.0037028.0059767.00697 5.5789398-4.606077-4.183264-4.9055689-5.5760621 4.6038989-4.18193594-4.9040442.00154952-.0010891.01549521.0182962 5.57893981-4.6062947-4.16555527-4.884659 2.18438197-1.78018 1.7266091 2.0038733 2.6341858-2.2434668 1.6380651 1.9385296v1.6553735l-1.8372893 1.5246862 6.1759481 7.2313688h2.877682l2.7227298-2.2434668h-4.0066187v-1.7207173l1.1510728-.9583742.8190325.9583742h2.8334099v-1.2633114h-6.7957565l-1.6380651-1.9167484 1.3281609-1.0890615h1.1068007v1.5464674h5.954588v-1.2633114h-2.7448658l-.9739847.8059055-.6862165-.8059055v-2.1127795l-.4869923-.5880932 1.5495211-1.2633114h1.3060248l1.0182567-.849468h3.8959386zm-26.43682105-3.0310761 3.90235804 4.5557623-5.57827571 4.5958398-.64194443-.6560507v31.0626495c.0022136 13.6655444 11.26236155 24.7417361 25.15049725 24.739558 6.5518176-.0008713 12.5174736-2.4682491 16.992269-6.5086675l-3.9034649-4.5185164 5.5731845-4.6015029-.0053127-.0063166 3.0200165 3.4311974c2.200984-3.6762362 3.4651718-7.9603866 3.4658358-12.535752v-39.2062162s-10.8466472-1.9167484-25.1465127-1.9167484c-10.2432195 0-18.87294481 1.0113026-22.82865065 1.5647637z" mask="url(#a)"/></g></svg>