<svg height="44" viewBox="0 0 172 44" width="172" xmlns="http://www.w3.org/2000/svg"><path d="m196 58.2945736c0-.8992248-.124345-1.7364341-.404121-2.4806201-.279776-.7441861-.683896-1.4263566-1.212362-1.9844961-.528465-.5581396-1.15019-.9922481-1.865173-1.3023256-.714982-.3100775-1.492138-.4651163-2.362551-.4651163-.932587 0-1.803001.1550388-2.580156.496124-.777155.3100776-1.461052.7751938-2.020604 1.3643411-.559551.5891473-1.025844 1.2713178-1.336707 2.1085272-.310862.8062015-.466293 1.7054263-.466293 2.6976744 0 1.24031.279776 2.3255814.839328 3.2868217s1.336707 1.7054263 2.362552 2.2635659c1.025845.5581395 2.207121.8372093 3.574914.8372093.590638 0 1.181276-.0620155 1.740828-.2170543.590638-.1550388 1.15019-.3410853 1.709741-.6511628.559552-.2790698 1.056931-.620155 1.492138-1.0232558l-1.585396-2.2325581c-.528466.4341085-1.025845.7131783-1.492138.8992248-.466294.1860465-.963673.248062-1.523225.248062-.808241 0-1.492138-.1550388-2.113862-.4341085-.590638-.3100776-1.056931-.7441861-1.367793-1.3023256-.186517-.3100775-.310862-.6821706-.373035-1.0542636h8.952829zm-3.20188-1.0232558h-5.719862c.062172-.248062.155431-.496124.248689-.7131783.24869-.5271317.621725-.8992248 1.088018-1.1782945.466293-.2790698 1.088017-.4031008 1.803-.4031008.466293 0 .870414.0930232 1.243448.3100775.373035.1860465.683897.4651163.932587.8062016.248689.3410852.373034.7131783.40412 1.1472868zm-12.994035-1.9224806h2.580155v-3.0077519h-2.580155v-3.1627907h-3.357311v3.1627907h-2.362552v3.0077519h2.362552v9.5193799h3.357311zm-11.284295 9.5193799h3.357311v-7.627907c0-1.1472868-.155431-2.0775194-.497379-2.8527132-.310862-.7751938-.808242-1.3333333-1.461052-1.7054264-.652811-.372093-1.429966-.5581395-2.393638-.5581395-.683897 0-1.336707.1550388-1.958432.4341085-.621724.2790698-1.181276.6511628-1.647569 1.1162791-.093258.0930233-.217603.2170543-.279776.3410853l-.062172-1.6124031h-3.232966v12.496124h3.388397v-7.503876c0-.3410852.062172-.6511628.186517-.9612403.124345-.2790697.310862-.5271318.559552-.744186.24869-.2170543.528466-.4031008.839328-.4961241.310862-.124031.65281-.1860465 1.056931-.1860465.497379 0 .9015.0620155 1.212362.2480621.310862.1860465.559552.4341085.714983.8372093.155431.372093.24869.8372093.24869 1.4263565v7.3488373zm-10.786915-5.5193799.031087-1.0542636c0-.8992248-.124345-1.7364341-.404121-2.4806201-.279776-.7441861-.683897-1.4263566-1.212362-1.9844961-.528466-.5581396-1.15019-.9922481-1.865173-1.3023256s-1.492138-.4651163-2.362552-.4651163c-.932586 0-1.803.1550388-2.580155.496124-.777155.3100776-1.461052.7751938-2.020604 1.3643411s-1.025845 1.2713178-1.336707 2.1085272c-.310862.8062015-.466293 1.7054263-.466293 2.6976744 0 1.24031.279776 2.3255814.839328 3.2868217.559551.9612403 1.336707 1.7054263 2.362552 2.2635659 1.025845.5581395 2.20712.8372093 3.574914.8372093.590638 0 1.181276-.0620155 1.740827-.2170543.590638-.1550388 1.15019-.3410853 1.709742-.6511628.559552-.2790698 1.056931-.620155 1.492138-1.0232558l-1.585397-2.2325581c-.528465.4341085-1.025845.7131783-1.492138.8992248s-.963672.248062-1.523224.248062c-.808241 0-1.492138-.1550388-2.113862-.4341085-.590638-.3100776-1.056931-.7441861-1.367793-1.3023256-.186518-.3100775-.310863-.6821706-.373035-1.0542636zm-3.170793-2.0775194h-5.719863c.062173-.248062.155431-.496124.24869-.7131783.24869-.5271317.621724-.8992248 1.088017-1.1782945.466294-.2790698 1.088018-.4031008 1.803001-.4031008.466293 0 .870414.0930232 1.243448.3100775.373035.1860465.683897.4651163.932586.8062016.24869.3410852.373035.7131783.404121 1.1472868zm-10.849087 2.0775194.031086-1.0542636c0-.8992248-.124345-1.7364341-.404121-2.4806201-.279776-.7441861-.683896-1.4263566-1.212362-1.9844961-.528466-.5581396-1.15019-.9922481-1.865173-1.3023256-.714982-.3100775-1.492138-.4651163-2.362552-.4651163-.932586 0-1.803.1550388-2.580155.496124-.777155.3100776-1.461052.7751938-2.020604 1.3643411-.559551.5891473-1.025845 1.2713178-1.336707 2.1085272-.310862.8062015-.466293 1.7054263-.466293 2.6976744 0 1.24031.279776 2.3255814.839328 3.2868217s1.336707 1.7054263 2.362552 2.2635659c1.025845.5581395 2.207121.8372093 3.574914.8372093.590638 0 1.181276-.0620155 1.740828-.2170543.590638-.1550388 1.15019-.3410853 1.709741-.6511628.559552-.2790698 1.056931-.620155 1.492138-1.0232558l-1.585396-2.2325581c-.528466.4341085-1.025845.7131783-1.492138.8992248-.466294.1860465-.963673.248062-1.523225.248062-.808241 0-1.492138-.1550388-2.113862-.4341085-.590638-.3100776-1.056931-.7441861-1.367793-1.3023256-.186517-.3100775-.310862-.6821706-.373035-1.0542636zm-3.20188-2.0775194h-5.719863c.062173-.248062.155432-.496124.24869-.7131783.24869-.5271317.621724-.8992248 1.088018-1.1782945.466293-.2790698 1.088017-.4031008 1.803-.4031008.466293 0 .870414.0930232 1.243448.3100775.373035.1860465.683897.4651163.932586.8062016.24869.3410852.373035.7131783.404121 1.1472868zm-8.051328 19.1627907c-.559552-.1860465-1.119104-.2790697-1.709742-.2790697-1.119103 0-2.082776.2790697-2.95319.8372093-.870414.5581395-1.55431 1.3333333-2.05169 2.3255814-.497379.992248-.746069 2.1085271-.746069 3.3488372 0 1.24031.24869 2.3565891.746069 3.3488372.49738.992248 1.181276 1.7674418 2.05169 2.2945736.870414.5581396 1.865173.8372093 2.95319.8372093.590638 0 1.15019-.0930232 1.678656-.248062.528465-.1550388.994758-.4031008 1.429965-.6821705.310862-.2170543.590638-.4651163.808242-.7441861l.062172 1.4263566h3.170793v-17.4883721h-3.35731v6.3255814c-.186517-.2170543-.404121-.4031008-.652811-.5891473-.40412-.3100775-.9015-.5581395-1.429965-.7131783zm-.963673 2.5116279c.652811 0 1.212362.1550388 1.678656.4651163.466293.3100775.839327.7441861 1.088017 1.3023256.279776.5581395.404121 1.2093023.404121 1.9534884 0 .7131783-.124345 1.3643411-.404121 1.9224806s-.621724.992248-1.088017 1.3023256c-.466294.3100775-1.025845.4651162-1.678656.4651162-.621724 0-1.15019-.1550387-1.647569-.4651162-.466293-.3100776-.839328-.7441861-1.088017-1.3023256-.24869-.5581395-.404121-1.1782946-.404121-1.9224806 0-.7441861.124345-1.3953489.404121-1.9534884.248689-.5581395.621724-.9922481 1.088017-1.3023256s1.025845-.4651163 1.647569-.4651163zm-5.875293-14.0775193h3.35731v-7.5658915c0-1.1472868-.155431-2.0775194-.497379-2.8527132-.310862-.7751938-.808242-1.3333333-1.461052-1.7364341s-1.461052-.5891473-2.424724-.5891473c-.404121 0-.839328.0620155-1.243449.1860465-.435207.124031-.839327.3100775-1.243448.5271318s-.746069.496124-1.056931.8062016c-.24869.248062-.466293.5271317-.652811.8372093-.155431-.4341086-.373034-.7751938-.621724-1.0852714-.373034-.4341085-.808241-.7751938-1.305621-.9612403-.528465-.2170542-1.088017-.3100775-1.771914-.3100775-.435207 0-.870414.0620155-1.305621.2170543-.435207.1550387-.839327.3410852-1.212362.5581395-.373034.248062-.714983.5271318-.994758.8682171-.062173.0930232-.124345.1550387-.186518.248062l-.062172-1.6434109h-3.232966v12.4961241h3.388397v-7.4418605c0-.3410853.062172-.6511628.186517-.9612403.124345-.2790698.310862-.5581396.528466-.7441861.217603-.2170542.497379-.372093.808241-.496124s.652811-.1860465.994759-.1860465c.65281 0 1.181276.2170543 1.523224.6511628.341949.4341085.528466 1.0232558.528466 1.8294573v7.379845h3.35731v-7.4418605c0-.3410852.062173-.6511627.186518-.9612403.124345-.2790697.310862-.5271318.528465-.744186.217604-.2170543.49738-.4031008.808242-.496124.310862-.1240311.65281-.1860466 1.025845-.1860466.683896 0 1.212362.2170543 1.55431.6201551s.49738 1.0542635.49738 1.8914728zm-18.371951 21.1472868c.590638-.9922481.870414-2.0775194.870414-3.3488372 0-1.2713179-.279776-2.4186047-.870414-3.379845-.590638-.9922481-1.367793-1.7364341-2.362552-2.2945736-.994758-.5581396-2.144948-.8372093-3.419483-.8372093-1.274534 0-2.3936378.2790697-3.3883965.8372093-.9947588.5581395-1.8030002 1.3333333-2.362552 2.2945736-.590638.9922481-.8704139 2.1085271-.8704139 3.379845 0 1.24031.2797759 2.3565891.8704139 3.3488372.590638.992248 1.3677932 1.7364341 2.362552 2.2945736.9947587.5581396 2.1449485.8372093 3.3883965.8372093 1.274535 0 2.424725-.2790697 3.419483-.8372093.994759-.5581395 1.771914-1.3333333 2.362552-2.2945736zm-2.580155-3.3488372c0 .6821705-.124345 1.2713178-.404121 1.8294573-.279776.5271318-.65281.9612403-1.15019 1.2713179-.497379.3100775-1.025844.4651162-1.678655.4651162-.621724 0-1.181276-.1550387-1.647569-.4651162-.4973793-.3100776-.8704139-.7441861-1.1501898-1.2713179-.2797758-.5271318-.4041207-1.1472868-.4041207-1.8294573-.0310862-.7131783.1243449-1.3333334.4041207-1.8604651.2797759-.5271318.6838967-.9612404 1.1501898-1.2713179.497379-.3100775 1.056931-.4651163 1.647569-.4651163.621724 0 1.181276.1550388 1.678655.4651163.466294.3100775.870414.7441861 1.15019 1.2713179.310862.5271317.435207 1.1472868.404121 1.8604651zm2.393638-23.3178295.031086-1.0542636c0-.8992248-.124344-1.7364341-.40412-2.4806201-.279776-.7441861-.683897-1.4263566-1.212363-1.9844961-.528465-.5581396-1.150189-.9922481-1.865172-1.3023256s-1.492138-.4651163-2.362552-.4651163c-.932586 0-1.8030003.1550388-2.5801555.496124-.7771553.3100776-1.4610519.7751938-2.0206037 1.3643411s-1.0258449 1.2713178-1.336707 2.1085272c-.3108621.8062015-.4662932 1.7054263-.4662932 2.6976744 0 1.24031.2797759 2.3255814.8393277 3.2868217s1.336707 1.7054263 2.362552 2.2635659c1.0258449.5581395 2.2071207.8372093 3.5749137.8372093.590638 0 1.181276-.0620155 1.740828-.2170543.590638-.1550388 1.15019-.3410853 1.709742-.6511628.559551-.2790698 1.056931-.620155 1.492138-1.0232558l-1.585397-2.2325581c-.528465.4341085-1.025845.7131783-1.492138.8992248s-.963673.248062-1.523224.248062c-.808242 0-1.492138-.1550388-2.0827764-.4341085-.5906379-.3100776-1.0569311-.7441861-1.3677932-1.3023256-.1865173-.3100775-.3108621-.6821706-.3730345-1.0542636zm-3.170793-2.0775194h-5.7198629c.0621724-.248062.155431-.496124.2486897-.7131783.2486897-.5271317.6217242-.8992248 1.0880173-1.1782945.4973789-.2790698 1.0880169-.4031008 1.8029999-.4031008.466293 0 .870414.0930232 1.243449.3100775.373034.1860465.683896.4651163.932586.8062016.24869.3410852.373035.7131783.404121 1.1472868zm-11.5951566 27.5348838c.3730345-.8992249.5595518-1.8604652.5595518-2.9457365v-.5891473c0-.248062-.0310862-.496124-.0310862-.744186-.0310862-.248062-.0310862-.4651163-.0621725-.6511628h-7.6472076v2.9767442h4.2277245c0 .4031008-.1243448.7751938-.3108621 1.1472868-.2176034.372093-.4973793.7131783-.8393276.9922481-.3419483.2790697-.7771553.496124-1.2434484.6821705-.4662932.1550388-.9636725.248062-1.4921381.248062-.746069 0-1.4299657-.124031-2.0827761-.4031008-.6528104-.2790697-1.2123622-.6511627-1.7097415-1.1472868-.4973794-.496124-.8704139-1.0542635-1.1501898-1.7054263s-.4041207-1.3333334-.4041207-2.0775194c0-.7441861.1243448-1.4573644.4041207-2.1085271.2486897-.6511628.6217242-1.2093024 1.0880174-1.7054264.4662931-.496124 1.0258449-.8372093 1.6475691-1.1162791.6217242-.248062 1.3056208-.4031007 2.0516898-.4031007.8082415 0 1.5543105.1550387 2.2382072.496124.6838966.3100775 1.336707.7751938 1.9584312 1.3643411l2.2071209-2.3255814c-.4352069-.5271318-.9636725-1.0232558-1.6475691-1.4263566-.6528104-.4031008-1.3988795-.7441861-2.2071209-.9612403-.8082415-.248062-1.6475692-.3410853-2.5490693-.3410853-1.2745346 0-2.4558105.2170543-3.5438279.6511628-1.0880173.4341085-2.0206036 1.0232558-2.7977589 1.7984496-.8082415.7751938-1.4299657 1.6744186-1.8340864 2.6976744-.4352069 1.0542636-.6528104 2.1705427-.6528104 3.379845s.2176035 2.3565891.6217242 3.3798449c.4041207 1.0542636 1.0258449 1.9534884 1.8030002 2.7286822.7771552.7751938 1.6786553 1.3643411 2.7355865 1.7984496 1.0569311.4341086 2.2382071.6511628 3.5438279.6511628 1.0880174 0 2.0827761-.1860465 3.0153624-.5271318.9325863-.3410852 1.7408277-.868217 2.4558106-1.4883721.746069-.6511627 1.2745346-1.4263565 1.6475691-2.3255813zm0-24.0620156c.3730345-.8992248.5595518-1.8604651.5595518-2.9457364v-.5891473c0-.248062-.0310862-.496124-.0310862-.744186-.0310862-.248062-.0310862-.4651163-.0621725-.6511628h-7.6472076v2.9767442h4.2277245c0 .4031007-.1243448.7751938-.3108621 1.1472868-.2176034.372093-.4973793.7131783-.8393276.9922481-.3419483.2790697-.7771553.496124-1.2434484.6821705-.4662932.1550388-.9636725.248062-1.4921381.248062-.746069 0-1.4299657-.124031-2.0827761-.4031008-.6528104-.2790697-1.2123622-.6511627-1.7097415-1.1472868-.4973794-.496124-.8704139-1.0542635-1.1501898-1.7054263s-.4041207-1.3333334-.4041207-2.0775194c0-.7441861.1243448-1.4573644.4041207-2.1085271.2486897-.6511628.6217242-1.2093024 1.0880174-1.7054264.4662931-.496124 1.0258449-.8372093 1.6475691-1.1162791.6217242-.248062 1.3056208-.4031008 2.0516898-.4031008.8082415 0 1.5543105.1550388 2.2382072.4961241.6838966.3100775 1.336707.7751938 1.9584312 1.3643411l2.2071209-2.3255814c-.4352069-.5271318-.9636725-1.0232558-1.6475691-1.4263566-.6528104-.4031008-1.3988795-.7441861-2.2071209-.9612403-.8082415-.248062-1.6475692-.3410853-2.5490693-.3410853-1.2745346 0-2.4558105.2170543-3.5438279.6511628-1.0880173.4341085-2.0206036 1.0232558-2.7977589 1.7984496-.8082415.7751938-1.4299657 1.6744186-1.8340864 2.6976744-.4352069 1.0542636-.6528104 2.1705427-.6528104 3.379845s.2176035 2.3565891.6217242 3.3798449c.4041207 1.0542636 1.0258449 1.9534884 1.8030002 2.7286822.7771552.7751938 1.6786553 1.3643411 2.7355865 1.7984496 1.0569311.4341086 2.2382071.6511628 3.5438279.6511628 1.0880174 0 2.0827761-.1860465 3.0153624-.5271318.9325863-.3410852 1.7408277-.868217 2.4558106-1.4883721.746069-.6511627 1.2745346-1.4263565 1.6475691-2.3255814zm-29.904934 11.6899225-1.4299657-2.4496124 1.4299657-2.4496124h-2.8910176l-1.6164829-2.7596899-1.6164829 2.7596899h-2.8910175l1.4299656 2.4496124-1.4299656 2.4496124h2.8910175l1.6164829 2.7596899 1.6164829-2.7596899zm0-16.744186-1.4299657-2.4496124 1.4299657-2.4496124h-2.8910176l-1.6164829-2.7596899-1.6164829 2.7596899h-2.8910175l1.4299656 2.4496124-1.4299656 2.4496124h2.8910175l1.6164829 2.7596899 1.6164829-2.7596899zm-22.3820712 36.3100775 6.3415868-6.5736434v-30.7906977l-6.3415868-6.5736434zm-6.9943973-19.5658915-1.4299657-2.4496124 1.4299657-2.4496124h-2.8910175l-1.6164829-2.7596899-1.616483 2.7596899h-2.8910175l1.4299657 2.4496124-1.4299657 2.4496124h2.8910175l1.616483 2.7596899 1.6164829-2.7596899zm0-16.744186-1.4299657-2.4496124 1.4299657-2.4496124h-2.8910175l-1.6164829-2.7596899-1.616483 2.7596899h-2.8910175l1.4299657 2.4496124-1.4299657 2.4496124h2.8910175l1.616483 2.7596899 1.6164829-2.7596899zm-9.0150009 28.6511628 1.4299657 2.4496124-1.4299657 2.4496124h2.8910175l1.616483 2.7596899 1.6164829-2.7596899h2.8910175l-1.4299657-2.4496124 1.4299657-2.4496124h-2.8910175l-1.6164829-2.75969-1.616483 2.75969zm29.3453823 0 1.4299656 2.4496124-1.4299656 2.4496124h2.8910175l1.6164829 2.7596899 1.6164829-2.7596899h2.8910176l-1.4299657-2.4496124 1.4299657-2.4496124h-2.8910176l-1.6164829-2.75969-1.6164829 2.75969zm60.7113677-7.9379845h-3.35731v7.751938c0 1.0542635.186517 1.9224806.528465 2.6976744.341949.7751938.870414 1.3333333 1.523225 1.7364341.65281.4031008 1.461051.5891473 2.362552.5891473.714982 0 1.367793-.124031 1.989517-.4031008s1.15019-.6511628 1.585397-1.1162791l.373034-.4651163.062173 1.7364342h3.201879v-12.5271318h-3.35731v7.4728682c0 .372093-.062173.6821705-.186518.9922481-.124345.3100775-.310862.5581395-.528465.7751938-.217604.2170542-.49738.4031007-.808242.496124-.310862.124031-.65281.1860465-1.025845.1860465-.746069 0-1.336707-.248062-1.740827-.7441861-.404121-.496124-.621725-1.1782945-.621725-2.0775193zm26.858486 7.2868217c-.24869.496124-.341948 1.0542635-.341948 1.7054263 0 .7441861.186517 1.4263566.559551 1.9844962.373035.5581395.870414.992248 1.523225 1.3023255.65281.3100776 1.367793.4651163 2.144948.4651163.621724 0 1.212362-.124031 1.740828-.3410852.559552-.2480621 1.056931-.5581396 1.55431-.9612404.062173-.0310077.093259-.0930232.155431-.124031v1.2093024h3.170794v-8.4961241c0-.9612403-.217604-1.7674418-.621724-2.3875969-.404121-.620155-.994759-1.116279-1.740828-1.4263566-.746069-.3100775-1.647569-.4651162-2.642328-.4651162-1.119104 0-2.144948.2170542-3.077535.6511628-.932586.4341085-1.803 1.0232558-2.549069 1.8294573l2.05169 1.9844961c.435207-.5271317.9015-.9302325 1.429966-1.1782945.497379-.2480621 1.088017-.3720931 1.740827-.3720931.683897 0 1.212362.1860466 1.616483.5271318.404121.3410853.590638.8682171.590638 1.5193799v.3410852h-2.05169c-.932586 0-1.740827.0930233-2.45581.2480621-.714983.1860465-1.274535.4341085-1.740828.744186s-.808241.744186-1.056931 1.2403101zm2.891017 1.5503876c0-.248062.062173-.4651163.155431-.6511628.093259-.1860465.24869-.3410853.435207-.496124.186518-.1550388.435207-.2480621.746069-.3100776.279776-.0620155.621725-.0930232.994759-.0930232h2.082776v1.6434108c-.124345.124031-.217603.248062-.341948.3410853-.341948.2790698-.714983.496124-1.119104.6511628-.40412.1550388-.870414.248062-1.30562.248062-.310863 0-.590638-.0620155-.839328-.1550387-.24869-.1240311-.435207-.2790698-.590638-.4651163s-.217604-.4341086-.217604-.7131783z" fill="#fff" fill-rule="evenodd" transform="translate(-24 -48)"/></svg>