<svg xmlns="http://www.w3.org/2000/svg" viewBox="0 0 863 386"><mask id="a" fill="#fff"><path fill-rule="evenodd" d="M0 0h863v386H0z"/></mask><g fill="#f6f7f8" fill-rule="evenodd"><path d="M91.164 4.5h-.038c-2.94-.047-5.896-.063-8.862-.04-1.253.044-2.236-.98-2.247-2.208A2.23 2.23 0 0 1 82.23.009a388.21 388.21 0 0 1 8.97.04 2.226 2.226 0 0 1-.036 4.45zm22.273.836c-.038 0-.078 0-.119-.002a924.792 924.792 0 0 0-8.882-.425 2.23 2.23 0 0 1-2.133-2.319c.052-1.226 1.095-2.17 2.323-2.127 3.016.127 5.996.274 8.924.427a2.227 2.227 0 0 1 2.111 2.339 2.228 2.228 0 0 1-2.224 2.107zm-53.446.285a2.225 2.225 0 0 1-.23-4.437c2.873-.298 5.895-.545 8.987-.73 1.201-.091 2.282.861 2.358 2.09a2.226 2.226 0 0 1-2.093 2.352 205.02 205.02 0 0 0-8.788.714c-.08.009-.156.011-.234.011zm75.705.88c-.035 0-.071 0-.109-.003l-3.85-.185c-1.658-.078-3.347-.164-5.065-.253a2.227 2.227 0 0 1-2.109-2.341c.065-1.227 1.103-2.184 2.343-2.103 1.71.089 3.392.173 5.041.251l3.856.185a2.23 2.23 0 0 1 2.12 2.332 2.229 2.229 0 0 1-2.227 2.116zm22.262 1.143c-.042 0-.082 0-.123-.002l-8.9-.472a2.227 2.227 0 0 1-2.11-2.339c.065-1.226 1.103-2.2 2.34-2.105l8.911.472a2.224 2.224 0 0 1-.118 4.446zm22.255 1.253a2.51 2.51 0 0 1-.131-.005l-8.9-.511a2.227 2.227 0 0 1-2.1-2.348c.072-1.226 1.148-2.145 2.352-2.096l8.906.511a2.227 2.227 0 0 1-.127 4.449zm-142.139.639a2.229 2.229 0 0 1-2.15-1.65 2.222 2.222 0 0 1 1.57-2.725c2.81-.76 5.787-1.44 8.85-2.026a2.225 2.225 0 1 1 .84 4.37 119.262 119.262 0 0 0-8.53 1.95c-.192.054-.388.08-.58.08zm164.388.68c-.045 0-.092 0-.136-.004l-8.9-.534a2.225 2.225 0 1 1 .267-4.442l8.902.534a2.225 2.225 0 0 1-.133 4.447zm22.248 1.36c-.047 0-.091-.002-.138-.004l-8.9-.545a2.229 2.229 0 0 1-2.088-2.36c.078-1.225 1.165-2.151 2.362-2.084l8.898.547a2.224 2.224 0 0 1-.134 4.446zm347.219.316a2.229 2.229 0 0 1-2.224-2.112 2.23 2.23 0 0 1 2.112-2.336 288.66 288.66 0 0 1 8.978-.327c1.24-.007 2.25.952 2.274 2.18a2.226 2.226 0 0 1-2.182 2.27 279.63 279.63 0 0 0-8.958.325zm31.175.425c-.071 0-.143-.004-.216-.01a167.297 167.297 0 0 0-8.777-.61 2.229 2.229 0 0 1-2.129-2.322c.056-1.226 1.117-2.145 2.325-2.125 3.093.136 6.125.347 9.011.628a2.224 2.224 0 0 1-.214 4.44zm-356.148.617c-.044 0-.09 0-.138-.005l-8.897-.54a2.225 2.225 0 0 1-2.089-2.357c.074-1.229 1.164-2.152 2.36-2.085l8.898.54a2.23 2.23 0 0 1 2.09 2.357 2.228 2.228 0 0 1-2.224 2.09zm302.751.652a2.23 2.23 0 0 1-2.218-2.019 2.229 2.229 0 0 1 2.015-2.42 847.54 847.54 0 0 1 8.905-.786 2.206 2.206 0 0 1 2.405 2.036 2.229 2.229 0 0 1-2.04 2.4c-2.955.243-5.909.506-8.857.78a2.23 2.23 0 0 1-.21.009zm-280.502.676c-.042 0-.087-.002-.132-.004l-8.902-.525a2.226 2.226 0 1 1 .266-4.442l8.897.523a2.227 2.227 0 0 1-.129 4.448zm22.253 1.257c-.04 0-.083 0-.123-.002l-8.906-.494a2.229 2.229 0 0 1-2.1-2.35c.072-1.226 1.148-2.158 2.352-2.096l8.897.496a2.226 2.226 0 0 1-.12 4.446zm236.052.096a2.225 2.225 0 0 1-.183-4.442c2.392-.2 4.781-.41 7.168-.625l1.694-.156a2.218 2.218 0 0 1 2.425 2.012 2.229 2.229 0 0 1-2.015 2.421l-1.698.156c-2.4.218-4.799.425-7.204.628a2.631 2.631 0 0 1-.187.006zm97.5.67c-.204 0-.409-.027-.614-.085a97.46 97.46 0 0 0-5.944-1.488c-.85-.185-1.698-.36-2.545-.528a2.225 2.225 0 1 1 .855-4.366c.88.172 1.76.354 2.64.545 2.079.452 4.167.975 6.214 1.556a2.225 2.225 0 0 1-.607 4.366zm-311.295.392c-.038 0-.073 0-.111-.003-2.969-.146-5.94-.296-8.909-.447a2.227 2.227 0 1 1 .23-4.446c2.966.153 5.93.303 8.897.447a2.23 2.23 0 0 1 2.118 2.332 2.227 2.227 0 0 1-2.225 2.117zm191.569.563a2.227 2.227 0 0 1-2.222-2.088 2.224 2.224 0 0 1 2.084-2.359c2.957-.186 5.917-.382 8.875-.594 1.264-.075 2.293.837 2.38 2.063a2.226 2.226 0 0 1-2.064 2.377c-2.97.211-5.942.41-8.913.596a2.958 2.958 0 0 1-.14.005zm-169.305.454c-.03 0-.062 0-.095-.003-2.971-.124-5.943-.253-8.914-.389a2.226 2.226 0 0 1-2.124-2.323c.056-1.226 1.1-2.154 2.327-2.123 2.967.136 5.933.265 8.898.39a2.224 2.224 0 0 1-.092 4.448zm-318.51.153a2.23 2.23 0 0 1-1.926-1.101 2.223 2.223 0 0 1 .798-3.045l.25-.144A76.907 76.907 0 0 1 24.555 9.6a2.228 2.228 0 0 1 2.927 1.166 2.224 2.224 0 0 1-1.168 2.922 73.001 73.001 0 0 0-7.51 3.732l-.213.122a2.21 2.21 0 0 1-1.124.305zm465.555.574a2.225 2.225 0 0 1-.093-4.448c2.962-.13 5.924-.27 8.886-.42a2.225 2.225 0 1 1 .23 4.444c-2.974.153-5.95.293-8.925.422-.031.002-.064.002-.098.002zm-124.774.118h-.076c-2.973-.1-5.946-.207-8.917-.316a2.229 2.229 0 0 1-2.144-2.307 2.21 2.21 0 0 1 2.31-2.141c2.965.109 5.934.216 8.9.314a2.227 2.227 0 0 1-.074 4.45zm22.278.639c-.018 0-.036 0-.054-.002-2.973-.07-5.946-.145-8.92-.227a2.229 2.229 0 0 1-2.166-2.288c.036-1.228 1.063-2.279 2.289-2.16 2.969.082 5.935.157 8.902.226a2.226 2.226 0 0 1-.051 4.45zm80.223.02a2.227 2.227 0 0 1-2.227-2.165 2.227 2.227 0 0 1 2.171-2.283c2.967-.078 5.931-.167 8.898-.265 1.184-.058 2.26.923 2.3 2.152a2.227 2.227 0 0 1-2.155 2.296c-2.973.098-5.949.187-8.927.265h-.06zm-57.941.374h-.027c-2.976-.036-5.949-.078-8.924-.127a2.23 2.23 0 0 1-2.194-2.263 2.227 2.227 0 0 1 2.23-2.188h.037c2.969.05 5.936.092 8.904.127a2.227 2.227 0 0 1-.026 4.45zm35.657.033a2.228 2.228 0 0 1-2.229-2.203 2.228 2.228 0 0 1 2.207-2.247c2.969-.032 5.935-.072 8.9-.12a2.227 2.227 0 1 1 .074 4.45c-2.976.049-5.952.09-8.93.12zm-15.997.083c-2.1 0-4.199-.005-6.296-.012a2.227 2.227 0 0 1 .009-4.45h.006c2.093.006 4.186.01 6.281.01l2.622-.001h.004a2.225 2.225 0 1 1 .002 4.45zm223.134 4.989c-.361 0-.729-.087-1.07-.274a95.57 95.57 0 0 0-7.821-3.816 2.227 2.227 0 1 1 1.772-4.086 99.95 99.95 0 0 1 8.191 3.999 2.224 2.224 0 0 1-1.072 4.177zM3.814 34.773a2.225 2.225 0 0 1-2.124-2.902 32.464 32.464 0 0 1 4.168-8.558 2.235 2.235 0 0 1 3.1-.575 2.224 2.224 0 0 1 .576 3.094 28.016 28.016 0 0 0-3.595 7.39 2.235 2.235 0 0 1-2.125 1.551zm659.777 2.933c-.555 0-1.11-.205-1.543-.62a77.507 77.507 0 0 0-6.581-5.613 2.224 2.224 0 0 1-.42-3.12 2.235 2.235 0 0 1 3.128-.418 82.224 82.224 0 0 1 6.96 5.94c.888.85.919 2.258.065 3.146a2.222 2.222 0 0 1-1.61.685zm13.335 17.691a2.232 2.232 0 0 1-1.99-1.217 59.589 59.589 0 0 0-4.436-7.337 2.226 2.226 0 0 1 .537-3.102 2.233 2.233 0 0 1 3.108.539 64.38 64.38 0 0 1 4.765 7.884 2.225 2.225 0 0 1-1.984 3.233zM3.547 56.744a2.228 2.228 0 0 1-2.16-1.691 48.576 48.576 0 0 1-1.384-9.209 2.226 2.226 0 0 1 2.11-2.336 2.222 2.222 0 0 1 2.341 2.11c.14 2.745.564 5.56 1.26 8.366a2.225 2.225 0 0 1-2.167 2.76zm9.756 19.828a2.228 2.228 0 0 1-1.745-.84 53.927 53.927 0 0 1-5.125-7.74 2.225 2.225 0 0 1 .894-3.019 2.23 2.23 0 0 1 3.022.892 49.202 49.202 0 0 0 4.697 7.097 2.223 2.223 0 0 1-1.743 3.61zm669.797.073a2.227 2.227 0 0 1-2.21-1.97c-.35-3.046-.839-5.823-1.494-8.487a2.224 2.224 0 0 1 1.636-2.69 2.231 2.231 0 0 1 2.694 1.63c.7 2.85 1.22 5.807 1.59 9.038a2.224 2.224 0 0 1-2.216 2.479zM29.112 89.476c-.365 0-.735-.091-1.076-.278a69.807 69.807 0 0 1-7.748-4.96 2.222 2.222 0 0 1-.461-3.113 2.232 2.232 0 0 1 3.118-.461 64.962 64.962 0 0 0 7.248 4.64 2.222 2.222 0 0 1 .872 3.022 2.23 2.23 0 0 1-1.953 1.15zm20.67 8.185c-.202 0-.405-.027-.61-.084a126.273 126.273 0 0 1-8.637-2.773 2.224 2.224 0 0 1-1.333-2.85 2.238 2.238 0 0 1 2.858-1.332c2.594.942 5.32 1.816 8.333 2.673a2.227 2.227 0 0 1 1.534 2.75 2.233 2.233 0 0 1-2.144 1.616zm633.9 1.213h-.05a2.23 2.23 0 0 1-2.179-2.274c.058-2.7.11-5.401.11-8.094l-.003-.739a2.228 2.228 0 0 1 2.209-2.245h.02c1.223 0 2.218.983 2.229 2.205l.002.779c0 2.726-.051 5.459-.11 8.19a2.229 2.229 0 0 1-2.228 2.178zm-612.19 3.82c-.15 0-.299-.013-.45-.044-2.92-.6-5.842-1.206-8.756-1.84a2.226 2.226 0 1 1 .954-4.348c2.896.632 5.8 1.232 8.7 1.829a2.228 2.228 0 0 1 1.734 2.628 2.23 2.23 0 0 1-2.182 1.776zm21.709 5.03c-.205 0-.415-.031-.624-.091a161.68 161.68 0 0 0-8.51-2.208 2.227 2.227 0 0 1-1.67-2.67 2.23 2.23 0 0 1 2.675-1.665 164.3 164.3 0 0 1 8.75 2.27 2.226 2.226 0 0 1-.621 4.364zm20.688 8.183a2.21 2.21 0 0 1-1.052-.265 88.586 88.586 0 0 0-7.863-3.703 2.227 2.227 0 0 1-1.206-2.909 2.231 2.231 0 0 1 2.913-1.201 91.731 91.731 0 0 1 8.262 3.892 2.223 2.223 0 0 1-1.054 4.186zm570.005 5.207a2.229 2.229 0 0 1-2.223-2.043c-.225-2.762-.352-5.724-.385-9.05a2.225 2.225 0 0 1 2.206-2.248h.023c1.219 0 2.215.981 2.229 2.2.03 3.223.153 6.078.374 8.733a2.23 2.23 0 0 1-2.224 2.408zm-552.515 8.38a2.227 2.227 0 0 1-1.694-.778 49.93 49.93 0 0 0-6.092-5.949 2.224 2.224 0 0 1-.296-3.133 2.236 2.236 0 0 1 3.14-.296 54.794 54.794 0 0 1 6.634 6.482 2.224 2.224 0 0 1-1.692 3.674zm557.877 13.088a2.233 2.233 0 0 1-2.015-1.264l-.367-.795a53.667 53.667 0 0 1-2.882-7.893 2.224 2.224 0 0 1 1.546-2.742 2.232 2.232 0 0 1 2.746 1.543 49.629 49.629 0 0 0 2.644 7.245l.336.721a2.226 2.226 0 0 1-2.008 3.185zm-547.892 6.576c-.98 0-1.879-.65-2.148-1.638-.847-3.09-1.761-5.74-2.795-8.105a2.228 2.228 0 0 1 4.086-1.778c1.12 2.561 2.103 5.412 3.006 8.708a2.222 2.222 0 0 1-2.149 2.813zm561.63 10.703a2.215 2.215 0 0 1-1.419-.511 57.492 57.492 0 0 1-6.646-6.436c-.812-.926-.716-2.332.21-3.14s2.333-.719 3.146.21a52.974 52.974 0 0 0 6.134 5.936 2.227 2.227 0 0 1-1.424 3.941zM146.34 170.852c-.978 0-1.874-.65-2.146-1.637-.82-2.976-1.48-5.989-2.069-8.802a2.223 2.223 0 0 1 1.723-2.632 2.23 2.23 0 0 1 2.64 1.72c.576 2.744 1.216 5.675 2.003 8.536a2.225 2.225 0 0 1-2.151 2.815zm575.8.26c-.29 0-.582-.055-.863-.175a91.174 91.174 0 0 1-8.242-3.93 2.224 2.224 0 0 1-.899-3.018 2.233 2.233 0 0 1 3.023-.894 87.954 87.954 0 0 0 7.84 3.74 2.224 2.224 0 0 1-.86 4.278zm21.26 6.617a2.2 2.2 0 0 1-.492-.056 151.475 151.475 0 0 1-8.768-2.24 2.224 2.224 0 1 1 1.235-4.276c2.714.784 5.578 1.516 8.514 2.174a2.227 2.227 0 0 1 1.685 2.66 2.232 2.232 0 0 1-2.173 1.738zm21.984 3.647c-.094 0-.192-.007-.288-.018a817.147 817.147 0 0 1-5.612-.74c-1.088-.15-2.18-.306-3.272-.47a2.225 2.225 0 0 1-1.87-2.535 2.209 2.209 0 0 1 2.539-1.867c1.072.162 2.144.316 3.207.46 1.85.252 3.709.497 5.579.737a2.225 2.225 0 0 1-.283 4.433zm22.088 3.03c-.118 0-.239-.008-.359-.028a359.955 359.955 0 0 0-8.766-1.3 2.224 2.224 0 1 1 .604-4.408 367.3 367.3 0 0 1 8.875 1.313 2.233 2.233 0 0 1 1.846 2.555 2.231 2.231 0 0 1-2.2 1.869zm21.736 4.825c-.214 0-.433-.03-.649-.098-2.65-.805-5.5-1.56-8.465-2.247a2.224 2.224 0 1 1 1.007-4.335c3.063.71 6.01 1.49 8.755 2.325a2.226 2.226 0 0 1-.648 4.355zm-652.417.95c-.56 0-1.119-.206-1.549-.625a34.296 34.296 0 0 1-2.984-3.282 36.178 36.178 0 0 1-2.864-4.173 2.223 2.223 0 0 1 .79-3.046 2.233 2.233 0 0 1 3.052.79 31.537 31.537 0 0 0 2.512 3.658c.794 1 1.667 1.959 2.592 2.855a2.225 2.225 0 0 1-1.549 3.824zm672.753 7.97a2.23 2.23 0 0 1-1.17-.332 72.111 72.111 0 0 0-7.612-4.084 2.228 2.228 0 0 1-1.085-2.957 2.236 2.236 0 0 1 2.962-1.08 77.276 77.276 0 0 1 8.082 4.336 2.224 2.224 0 0 1-1.177 4.117zm-653.228 2.227c-.18 0-.366-.02-.55-.067-3.13-.792-6.083-1.802-8.782-2.997a2.226 2.226 0 0 1-1.135-2.938 2.235 2.235 0 0 1 2.942-1.132c2.47 1.097 5.185 2.023 8.071 2.752a2.225 2.225 0 0 1-.546 4.382zm35.479 1.798a2.228 2.228 0 0 1-2.227-2.15 2.231 2.231 0 0 1 2.151-2.3c2.855-.096 5.706-.174 8.555-.174l.452.002a2.227 2.227 0 0 1 2.213 2.241c-.009 1.23-1.072 2.265-2.244 2.21l-.421-.002c-2.798 0-5.597.077-8.401.173h-.078zm-15.078.414c-1.654 0-3.306-.027-4.96-.089a87.122 87.122 0 0 1-2.382-.12 2.227 2.227 0 0 1-2.082-2.363c.08-1.227 1.126-2.143 2.37-2.079.755.05 1.51.087 2.26.114 1.598.06 3.196.086 4.794.086l1.687-.01h.027a2.23 2.23 0 0 1 2.229 2.2 2.228 2.228 0 0 1-2.205 2.25zm46.057 2.02c-.187 0-.381-.024-.57-.073a73.164 73.164 0 0 0-8.47-1.709 2.227 2.227 0 0 1-1.895-2.514c.172-1.218 1.317-2.059 2.519-1.892a77.55 77.55 0 0 1 8.984 1.811 2.225 2.225 0 0 1-.568 4.378zm603.313 8.266a2.225 2.225 0 0 1-1.763-.862 57.842 57.842 0 0 0-5.742-6.355 2.223 2.223 0 0 1-.07-3.147 2.233 2.233 0 0 1 3.153-.069 62.63 62.63 0 0 1 6.18 6.843 2.22 2.22 0 0 1-.394 3.122 2.212 2.212 0 0 1-1.364.468zm-582.863.362a2.22 2.22 0 0 1-1.13-.307 85.034 85.034 0 0 0-7.688-4.014c-1.119-.512-1.609-1.832-1.096-2.949s1.834-1.609 2.953-1.097a89.169 89.169 0 0 1 8.095 4.226 2.222 2.222 0 0 1 .787 3.046 2.228 2.228 0 0 1-1.921 1.095zm17.788 13.328c-.54 0-1.078-.194-1.506-.588a116.277 116.277 0 0 0-6.654-5.665 2.221 2.221 0 0 1-.372-3.125 2.236 2.236 0 0 1 3.132-.371 120.287 120.287 0 0 1 6.91 5.886 2.224 2.224 0 0 1-1.51 3.863zm575.474 5.87c-.929 0-1.794-.585-2.11-1.51a69.19 69.19 0 0 0-3.272-7.976 2.228 2.228 0 0 1 4.01-1.945 73.715 73.715 0 0 1 3.483 8.49 2.223 2.223 0 0 1-1.395 2.821c-.236.082-.477.12-.716.12zm-560.317 10.408a2.225 2.225 0 0 1-1.735-.828 167.844 167.844 0 0 0-5.701-6.687 2.224 2.224 0 0 1 .167-3.142 2.228 2.228 0 0 1 3.147.167 171.516 171.516 0 0 1 5.856 6.865 2.224 2.224 0 0 1-1.734 3.625zm564.568 11.378a2.228 2.228 0 0 1-2.222-2.074c-.2-2.924-.537-5.83-.999-8.632a2.223 2.223 0 0 1 1.835-2.557 2.222 2.222 0 0 1 2.563 1.834 95.83 95.83 0 0 1 1.05 9.05 2.228 2.228 0 0 1-2.227 2.38zm-551.525 6.663a2.23 2.23 0 0 1-1.87-1.01 245.887 245.887 0 0 0-4.955-7.308 2.226 2.226 0 0 1 .54-3.102 2.236 2.236 0 0 1 3.106.538 253.55 253.55 0 0 1 5.042 7.442 2.224 2.224 0 0 1-1.863 3.44zm550.665 15.535a2.227 2.227 0 0 1-2.211-2.537c.41-2.9.708-5.82.882-8.679.074-1.226 1.168-2.152 2.358-2.085a2.227 2.227 0 0 1 2.09 2.357c-.18 2.977-.49 6.015-.915 9.028a2.228 2.228 0 0 1-2.204 1.916zm-539.198 3.563a2.223 2.223 0 0 1-1.948-1.144 375.61 375.61 0 0 0-4.404-7.684 2.224 2.224 0 0 1 .79-3.049 2.233 2.233 0 0 1 3.05.79 378.914 378.914 0 0 1 4.458 7.78 2.22 2.22 0 0 1-.862 3.024 2.218 2.218 0 0 1-1.084.283zm533.97 18.036a2.223 2.223 0 0 1-2.104-2.957 112.382 112.382 0 0 0 2.536-8.347 2.23 2.23 0 0 1 4.316 1.128 121.997 121.997 0 0 1-1.932 6.58c-.232.703-.466 1.402-.711 2.103a2.227 2.227 0 0 1-2.104 1.493zm-523.311 1.504a2.232 2.232 0 0 1-1.96-1.157c-1.43-2.614-2.848-5.227-4.261-7.828a2.23 2.23 0 0 1 3.92-2.12c1.407 2.596 2.825 5.204 4.253 7.812a2.224 2.224 0 0 1-1.952 3.293zm348.134 12.654c-.089 0-.178-.005-.27-.016a110.13 110.13 0 0 0-8.707-.696 2.222 2.222 0 0 1-2.136-2.313 2.217 2.217 0 0 1 2.316-2.134c3.065.125 6.114.368 9.063.724a2.228 2.228 0 0 1 1.946 2.476 2.227 2.227 0 0 1-2.212 1.959zm-31.128.351a2.227 2.227 0 0 1-.283-4.433c3.025-.391 6.056-.69 9.01-.885a2.226 2.226 0 1 1 .296 4.44c-2.862.19-5.8.48-8.733.86a2.563 2.563 0 0 1-.29.018zm-21.836 4.39c-.98 0-1.881-.653-2.149-1.648a2.222 2.222 0 0 1 1.574-2.726 182.522 182.522 0 0 1 8.768-2.132 2.24 2.24 0 0 1 2.653 1.705 2.226 2.226 0 0 1-1.708 2.646c-2.83.614-5.71 1.313-8.556 2.076-.194.053-.388.08-.582.08zm74.611.344c-.252 0-.508-.045-.76-.136a91.602 91.602 0 0 0-8.309-2.564 2.227 2.227 0 0 1-1.603-2.71 2.239 2.239 0 0 1 2.717-1.6 96.58 96.58 0 0 1 8.715 2.69 2.231 2.231 0 0 1 1.338 2.853 2.236 2.236 0 0 1-2.098 1.467zm144.05.867a2.224 2.224 0 0 1-1.906-3.376 105.849 105.849 0 0 0 4.201-7.648 2.228 2.228 0 0 1 2.987-1.001 2.22 2.22 0 0 1 1.005 2.982 110.41 110.41 0 0 1-4.378 7.969 2.228 2.228 0 0 1-1.91 1.074zm-502.81.744a2.23 2.23 0 0 1-1.914-1.082 429.544 429.544 0 0 1-4.527-7.726 2.223 2.223 0 0 1 .827-3.035 2.23 2.23 0 0 1 3.042.825 426.15 426.15 0 0 0 4.48 7.646 2.223 2.223 0 0 1-.764 3.054 2.21 2.21 0 0 1-1.144.318zm263.002 5.029a2.23 2.23 0 0 1-2.075-1.418 2.222 2.222 0 0 1 1.263-2.881 221.027 221.027 0 0 1 8.454-3.1 2.232 2.232 0 0 1 2.831 1.382 2.223 2.223 0 0 1-1.382 2.828 215.6 215.6 0 0 0-8.278 3.035c-.27.105-.544.154-.813.154zm115.678 3.236c-.4 0-.8-.107-1.164-.33a139.312 139.312 0 0 0-7.607-4.361 2.225 2.225 0 0 1-.925-3.009 2.234 2.234 0 0 1 3.016-.924 144.99 144.99 0 0 1 7.845 4.5 2.223 2.223 0 0 1 .736 3.062 2.228 2.228 0 0 1-1.901 1.062zm-136.088 5.69c-.834 0-1.63-.467-2.013-1.266a2.22 2.22 0 0 1 1.05-2.967 374.004 374.004 0 0 1 8.138-3.767 2.226 2.226 0 0 1 2.944 1.121 2.22 2.22 0 0 1-1.121 2.94 364.995 364.995 0 0 0-8.04 3.72c-.31.15-.637.219-.958.219zm246.74 2.968a2.22 2.22 0 0 1-1.543-.62 2.223 2.223 0 0 1-.065-3.147 92.872 92.872 0 0 0 5.722-6.543 2.231 2.231 0 0 1 3.131-.36 2.223 2.223 0 0 1 .36 3.129 97.395 97.395 0 0 1-5.999 6.858 2.223 2.223 0 0 1-1.607.683zM354.56 337.5c-.69 0-1.37-.32-1.807-.921a221.571 221.571 0 0 1-5.127-7.397 2.222 2.222 0 0 1 .625-3.085 2.227 2.227 0 0 1 3.089.623 221.684 221.684 0 0 0 5.024 7.248 2.225 2.225 0 0 1-1.804 3.532zm385.105 1.867c-.42 0-.851-.12-1.23-.372-1.754-1.16-3.502-2.334-5.253-3.511l-2.167-1.456a2.221 2.221 0 0 1-.606-3.086 2.228 2.228 0 0 1 3.091-.608l2.169 1.458a929.512 929.512 0 0 0 5.231 3.494 2.227 2.227 0 0 1-1.235 4.08zm-174.618 3.478a2.221 2.221 0 0 1-1.974-1.193 2.22 2.22 0 0 1 .938-3.002 810.835 810.835 0 0 1 7.944-4.103 2.228 2.228 0 0 1 2.998.972 2.224 2.224 0 0 1-.975 2.993 827.39 827.39 0 0 0-7.899 4.08c-.33.173-.682.253-1.032.253zm249.245 6.734a2.226 2.226 0 0 1-1.114-4.155 70.007 70.007 0 0 0 7.199-4.758 2.232 2.232 0 0 1 3.12.441 2.22 2.22 0 0 1-.439 3.116 74.812 74.812 0 0 1-7.658 5.062c-.352.2-.733.294-1.108.294zm-55.432 1.077c-.32 0-.65-.069-.96-.218-2.575-1.233-5.198-2.628-8.026-4.266a2.225 2.225 0 1 1 2.238-3.848c2.725 1.578 5.248 2.92 7.716 4.1a2.226 2.226 0 0 1-.968 4.232zm-213.518 2.59a2.225 2.225 0 0 1-1.039-4.194l7.877-4.16a2.229 2.229 0 0 1 3.011.926 2.222 2.222 0 0 1-.927 3.009l-7.886 4.163c-.33.174-.684.256-1.036.256zm-176.588 1.396c-.586 0-1.17-.23-1.607-.684a145.45 145.45 0 0 1-6.06-6.718 2.223 2.223 0 0 1 .26-3.138 2.231 2.231 0 0 1 3.14.263 141.285 141.285 0 0 0 5.874 6.51 2.223 2.223 0 0 1-1.607 3.767zm424.65 2.29a2.23 2.23 0 0 1-2.205-1.914 2.228 2.228 0 0 1 1.894-2.517 52.388 52.388 0 0 0 8.323-1.887 2.228 2.228 0 0 1 2.795 1.455 2.228 2.228 0 0 1-1.458 2.79 57.26 57.26 0 0 1-9.033 2.05 2.184 2.184 0 0 1-.317.022zm-13.33.17a2.43 2.43 0 0 1-.253-.013 60.597 60.597 0 0 1-9.074-1.766 2.226 2.226 0 1 1 1.181-4.293 55.655 55.655 0 0 0 8.396 1.635 2.226 2.226 0 0 1-.25 4.438zm-254.591 6.247a2.226 2.226 0 0 1-.974-4.228 516.9 516.9 0 0 0 7.948-3.945 2.234 2.234 0 0 1 2.996.979 2.225 2.225 0 0 1-.981 2.993 525.88 525.88 0 0 1-8.017 3.977 2.201 2.201 0 0 1-.972.224zM385.61 369.13c-.44 0-.88-.13-1.269-.399a106.237 106.237 0 0 1-7.24-5.498 2.223 2.223 0 0 1-.291-3.136 2.235 2.235 0 0 1 3.138-.291 100.989 100.989 0 0 0 6.934 5.27 2.227 2.227 0 0 1-1.273 4.055zm119.542 3.327a2.226 2.226 0 0 1-.838-4.288 294.64 294.64 0 0 0 8.147-3.45c1.134-.496 2.443.013 2.94 1.137s-.014 2.44-1.14 2.933a290.315 290.315 0 0 1-8.27 3.503 2.23 2.23 0 0 1-.839.165zm-99.913 7.087a2.22 2.22 0 0 1-.796-.149 91.45 91.45 0 0 1-6.519-2.784c-.617-.296-1.23-.594-1.839-.899a2.222 2.222 0 0 1-.992-2.986 2.228 2.228 0 0 1 2.991-.99 87.787 87.787 0 0 0 7.95 3.503 2.227 2.227 0 0 1-.795 4.305zm78.86.19a2.226 2.226 0 0 1-.61-4.366c2.778-.79 5.609-1.667 8.417-2.607a2.226 2.226 0 1 1 1.418 4.22 197.208 197.208 0 0 1-8.615 2.666c-.203.058-.41.086-.61.086zm-21.768 4.735a2.23 2.23 0 0 1-2.202-1.9 2.23 2.23 0 0 1 1.88-2.528c2.848-.421 5.759-.935 8.656-1.53a2.223 2.223 0 0 1 2.63 1.732 2.225 2.225 0 0 1-1.734 2.628 165.07 165.07 0 0 1-8.9 1.573c-.111.016-.22.025-.33.025zm-35.53.516c-.1 0-.2-.006-.303-.02-3.036-.414-6.051-.959-8.962-1.618a2.224 2.224 0 0 1-1.68-2.663 2.233 2.233 0 0 1 2.665-1.678 99.966 99.966 0 0 0 8.579 1.549 2.227 2.227 0 0 1 1.908 2.505 2.228 2.228 0 0 1-2.207 1.925zM442.207 386c-.707 0-1.415-.004-2.12-.018a2.23 2.23 0 0 1-2.19-2.263c.022-1.228 1.031-2.24 2.266-2.187a124.47 124.47 0 0 0 8.755-.163c1.21-.06 2.28.875 2.343 2.103a2.226 2.226 0 0 1-2.107 2.341 130.96 130.96 0 0 1-6.947.187z" mask="url(#a)" transform="matrix(-1 0 0 1 863 0)"/><path d="M322.557 31.743c11 0 21.955.173 32.743.344l409.406 6.469c5.654.089 10.625.395 14.206 3.235 2.93 2.328 3.773 5.615 3.963 7.96.389 4.768-1.531 10.234-4.887 13.924-4.764 5.238-11.597 8.358-18.206 11.376a236.46 236.46 0 0 0-4.844 2.252c-20.358 9.834-37.893 25.954-49.37 45.395-1.544 2.614-3.026 5.35-4.457 7.996-4.876 9-9.916 18.308-18.133 24.032-10.485 7.305-24.19 7.585-37.44 7.854-3.165.064-6.316.128-9.413.281-44.788 2.237-87.347 27.204-111.065 65.16-7.921 12.678-13.765 26.643-19.417 40.152-3.12 7.459-6.346 15.173-9.88 22.554-12.171 25.436-26.457 41.857-43.675 50.205-18.63 9.03-42.592 9.363-71.216.995-23.843-6.971-46.669-18.036-68.743-28.735-13.707-6.642-27.879-13.513-42.21-19.372-46.647-19.063-86.794-22.125-119.323-9.094-7.114 2.847-13.936 6.518-20.532 10.066-6.157 3.314-12.525 6.74-19.045 9.44-9.081 3.76-26.522 9.013-41.237 1.912-8.01-3.864-14.179-11.232-17.365-20.743-3.983-11.884-2.942-26.085 2.72-37.062 8.967-17.378 26.921-30.694 53.37-39.573 9.51-3.193 19.457-5.692 29.074-8.109 12.576-3.16 25.578-6.425 37.881-11.3 15.118-5.99 41.784-20.047 50.542-46.881 3.845-11.776 3.222-25.721 2.564-40.484-1.066-23.865-2.165-48.545 17.463-62.17 8.66-6.011 21.404-6.47 32.645-6.879 2.197-.077 4.326-.155 6.353-.27 12.439-.706 25.013-.93 37.528-.93m96.31 319.993c13.025 0 24.685-2.47 34.874-7.41 18.02-8.738 32.882-25.737 45.438-51.973 3.572-7.467 6.818-15.226 9.956-22.729 5.594-13.369 11.375-27.19 19.136-39.609 23.073-36.921 64.472-61.21 108.04-63.383 3.063-.153 6.178-.215 9.304-.28 13.816-.282 28.102-.572 39.53-8.533 8.952-6.236 14.21-15.945 19.292-25.332 1.416-2.617 2.882-5.322 4.39-7.876 11.104-18.806 28.065-34.398 47.76-43.91 1.568-.759 3.168-1.489 4.77-2.221 6.954-3.176 14.148-6.458 19.433-12.27 4.087-4.494 6.33-10.917 5.856-16.764-.36-4.43-2.22-8.098-5.38-10.606-4.876-3.87-11.593-3.98-16.5-4.057l-409.382-6.469c-23.148-.364-47.057-.741-70.57.593-2.003.113-4.108.19-6.273.268-11.763.424-25.098.906-34.669 7.55-21.341 14.813-20.193 40.547-19.085 65.434.646 14.412 1.253 28.024-2.38 39.15-8.278 25.367-33.843 38.794-48.34 44.541-12.072 4.783-24.953 8.018-37.41 11.148-9.688 2.434-19.706 4.95-29.359 8.19-27.414 9.206-46.094 23.14-55.524 41.425-6.204 12.028-7.305 26.975-2.946 39.984 3.516 10.483 10.373 18.632 19.308 22.944 15.249 7.357 32.525 3.067 44.334-1.824 6.697-2.774 13.15-6.247 19.392-9.605 6.502-3.497 13.226-7.117 20.142-9.886 31.593-12.652 70.778-9.596 116.479 9.085 14.223 5.815 28.342 12.656 41.991 19.274 22.216 10.768 45.189 21.904 69.332 28.963 14.112 4.126 27.158 6.188 39.06 6.188"/><path d="m336.728 42.34 333.575 7.17c8.15.175 16.99 1.203 20.763 7.497 2.491 4.158 2.286 9.848-.624 17.393-8.876 23.006-29.004 41.912-52.53 49.341-11.2 3.539-23.183 4.68-34.771 5.784-9.536.908-19.397 1.848-28.872 4.11-26.272 6.275-50.984 23.171-69.583 47.582-15.557 20.416-27.292 46.508-34.873 77.55l-1.025 4.252c-4.02 16.792-8.179 34.155-21.323 44.312-15.427 11.922-38.03 8.993-53.688 5.75a348.27 348.27 0 0 1-87.838-30.889c-4.618-2.356-9.3-4.875-13.83-7.31-19.412-10.435-39.484-21.227-61.6-23.553-22.436-2.358-44.465 4.252-65.78 10.644-12.892 3.866-26.22 7.863-39.543 9.859-11.706 1.755-26.708-.03-30.474-10.828-3.967-11.39 8.06-22.124 11.842-25.144 18.456-14.743 41.907-21.533 64.586-28.103 7.942-2.3 16.152-4.68 24.039-7.367 18.394-6.265 61.809-24.99 67.66-63.431 1.476-9.684.346-19.799-.743-29.582-1.63-14.594-3.167-28.375 3.271-40.633 5.536-10.54 16.968-18.57 31.364-22.026 13.068-3.14 26.742-2.48 39.97-1.844zm81.19 275.83c10.866 0 21.975-2.173 30.911-9.077 13.766-10.637 18.015-28.389 22.127-45.555l1.023-4.242c7.508-30.745 19.11-56.561 34.479-76.732 18.291-24 42.555-40.608 68.328-46.761 9.326-2.227 19.107-3.16 28.566-4.06 11.704-1.116 23.807-2.27 35.233-5.88 24.52-7.743 44.683-26.682 53.934-50.66 3.175-8.228 3.325-14.555.459-19.34-4.332-7.223-13.868-8.39-22.626-8.58L292.4 39.16l-.047 2.227 8.606.185a76.556 76.556 0 0 0-4.753.98c-15.018 3.608-26.978 12.049-32.812 23.16-6.757 12.859-5.108 27.628-3.515 41.91 1.075 9.642 2.187 19.61.756 29.001-5.667 37.237-48.167 55.525-66.175 61.661-7.84 2.67-16.025 5.042-23.94 7.334-22.89 6.63-46.556 13.487-65.36 28.502-4.069 3.251-17 14.848-12.553 27.618 4.216 12.081 20.357 14.175 32.91 12.297 13.478-2.02 26.885-6.04 39.852-9.928 21.102-6.33 42.91-12.872 64.903-10.563 21.68 2.28 41.559 12.966 60.78 23.3 4.541 2.443 9.234 4.964 13.872 7.333a350.678 350.678 0 0 0 88.397 31.088c7.192 1.488 15.816 2.906 24.596 2.906z"/><path d="M411.726 14.82c10.636 0 21.3 1.051 31.765 2.084L563.93 28.78c11.092 1.093 22.56 2.224 32.86 6.885 11.326 5.128 19.085 14.099 20.757 23.997 3.001 17.755-13.57 33.302-30.685 38.917-8.85 2.905-18.317 4.185-27.47 5.428-8.95 1.211-18.203 2.465-26.982 5.231-22.176 6.985-42.004 23.862-55.835 47.516-10.74 18.368-18.128 40.775-23.249 70.515a927.312 927.312 0 0 0-.946 5.63c-1.681 10.144-3.418 20.636-7.074 30.334-4.847 12.863-12.793 22.625-22.373 27.484-10.93 5.548-25.121 5.662-42.174.337-17.94-5.6-35.006-15.159-51.513-24.404-24.887-13.938-50.623-28.352-79.389-28.99-14.625-.332-29.523 2.99-43.905 6.2-22.009 4.91-42.788 9.546-62.927 2.313-4.003-1.439-8.952-4.105-9.787-8.622-1.191-6.432 6.343-11.208 13.79-13.532 12.335-3.851 25.2-6.789 37.639-9.629 18.762-4.285 38.163-8.718 56.198-16.374 27.58-11.71 58.181-36.529 61.356-71.071.546-5.95.243-12.004-.049-17.858-.358-7.206-.728-14.655.517-21.8 3.433-19.712 16.545-27.636 31.722-36.812 1.73-1.046 3.48-2.103 5.244-3.197 4.245-2.628 7.696-6.19 11.036-9.637 2.351-2.425 4.783-4.935 7.443-7.058 8.044-6.42 18.228-11.074 29.447-13.46 7.962-1.692 16.044-2.301 24.144-2.301m-8.015 282.371c7.576 0 14.336-1.495 20.23-4.484 10.076-5.115 18.405-15.301 23.45-28.687 3.732-9.905 5.489-20.506 7.187-30.757.31-1.873.62-3.747.942-5.617 5.074-29.467 12.377-51.638 22.977-69.766 13.55-23.176 32.934-39.698 54.58-46.515 8.598-2.709 17.758-3.951 26.615-5.151 9.253-1.254 18.82-2.55 27.866-5.517 17.996-5.903 35.394-22.425 32.185-41.41-1.796-10.632-10.034-20.222-22.035-25.657-10.636-4.812-22.289-5.96-33.56-7.072l-120.44-11.877c-18.601-1.833-37.831-3.73-56.589.26-11.555 2.455-22.057 7.26-30.371 13.895-2.772 2.21-5.252 4.772-7.652 7.248-3.396 3.505-6.602 6.811-10.61 9.296a570.199 570.199 0 0 1-5.225 3.184c-14.993 9.061-29.155 17.623-32.762 38.337-1.291 7.39-.913 14.967-.548 22.295.287 5.776.586 11.75.054 17.542-3.084 33.563-33.019 57.765-60.008 69.221-17.854 7.58-37.157 11.989-55.826 16.252-12.48 2.853-25.386 5.8-37.803 9.675-8.36 2.61-16.774 8.2-15.318 16.069.813 4.401 4.694 7.969 11.224 10.315 20.741 7.454 42.817 2.53 64.16-2.233 14.255-3.18 28.939-6.476 43.377-6.148 28.212.625 52.565 14.264 78.35 28.707 16.604 9.3 33.775 18.918 51.936 24.586 8.567 2.673 16.456 4.009 23.614 4.009"/><path d="M522.743 94.555c-1.901 0-3.814.027-5.711.113-35.637 1.647-68.947 27.448-79.2 61.349-3.174 10.497-4.296 21.557-5.383 32.253-.909 8.972-1.85 18.251-4.002 27.1-4.585 18.856-17.985 38.64-37.592 40.329-14.557 1.258-26.699-7.23-39.55-16.212-10.905-7.62-22.183-15.501-35.23-17.082-2.518-.305-5.181-.405-7.754-.502-7.68-.293-14.932-.565-19.46-5.695-4.795-5.434-3.54-13.878-.342-19.425 3.138-5.444 8.147-9.706 12.99-13.83l2.089-1.784c18.56-16.01 28.535-32.457 29.644-48.883.315-4.66-.087-9.384-.475-13.951-.516-6.087-1.05-12.382.174-18.364 2.178-10.681 10.048-20.855 23.39-30.239 3.643-2.561 7.5-4.992 11.231-7.346 7.455-4.703 15.169-9.565 21.67-15.767 4.404-4.2 8.276-9.036 12.019-13.712 5.564-6.95 11.318-14.135 18.773-19.072 13.985-9.26 32.536-9.667 47.446-9.995 19.83-.438 42.31-.934 62.422 5.648 12.55 4.108 14.601 11.297 17.197 20.399 1.547 5.42 3.299 11.564 7.61 17.788 6.5 9.382 13.87 20.014 10.625 30.57-2.757 8.97-12.343 13.804-20.396 15.338-5.89 1.123-12.054 1.06-18.025 1a368.23 368.23 0 0 0-4.16-.028M388.05 258.033c.991 0 1.989-.042 3-.129 20.71-1.784 34.795-22.387 39.567-42.015 2.188-8.996 3.136-18.35 4.053-27.398 1.076-10.592 2.188-21.545 5.301-31.839 9.99-33.028 42.445-58.167 77.167-59.772 3.227-.149 6.541-.115 9.744-.082 6.075.064 12.358.124 18.467-1.039 8.691-1.658 19.065-6.959 22.112-16.867 3.557-11.577-4.471-23.162-10.921-32.47-4.105-5.925-5.73-11.624-7.303-17.137-2.667-9.35-4.97-17.425-18.645-21.9-20.476-6.7-43.161-6.197-63.173-5.759-15.197.334-34.11.75-48.633 10.366-7.747 5.13-13.61 12.455-19.282 19.538-3.698 4.619-7.521 9.394-11.818 13.493-6.343 6.049-13.958 10.851-21.321 15.496-3.754 2.365-7.633 4.814-11.323 7.409-13.822 9.718-21.993 20.35-24.29 31.604-1.283 6.293-.736 12.747-.207 18.989.381 4.485.774 9.124.47 13.619-1.066 15.815-10.784 31.748-28.88 47.358l-2.078 1.775c-4.986 4.245-10.144 8.633-13.472 14.412-3.58 6.206-4.917 15.731.6 21.984 5.158 5.845 13.238 6.149 21.052 6.445 2.529.096 5.144.195 7.568.488 12.492 1.514 23.536 9.232 34.216 16.696 11.784 8.237 23.944 16.735 38.03 16.735"/></g></svg>
