<svg height="16" viewBox="0 0 63 16" width="63" xmlns="http://www.w3.org/2000/svg"><path d="m0 2.37499927h2.43508386v9.00000003h4.55797854v2.2500014h-6.9930624zm8.11694815 3.62500073h2.37264545v7.6250007h-2.37264545zm1.18632272-3.81250036c.37463053 0 .69722393.13541527.96778903.40625018.2705664.27083491.4058475.59374982.4058475.96875054 0 .37500219-.1352811.69791564-.4058475.96874909-.2705651.27083491-.5931585.40625019-.96778903.40625019-.37463052 0-.69722394-.13541528-.96779043-.40625019-.27056648-.27083345-.40584755-.5937469-.40584755-.96874909 0-.37500072.13528107-.69791563.40584755-.96875054.27056649-.27083491.59315991-.40625018.96779043-.40625018zm11.11397343.18749963h2.3102085v6.75000146l2.6848361-3.12500073h2.9345883l-3.1219021 3.5 3.0594651 4.1250007h-2.9970267l-2.4975223-3.75000143h-.0624384v3.75000143h-2.3102085zm-8.6164511 3.62500073h2.24777v1.06250036c.2497537-.37500218.56194-.67708218.9365705-.90625018s.7908794-.34374982 1.2487612-.34374982h.0312184.03122c1.2071413 0 1.9876092.34374691 2.3414269 1.03124946.3538177.687504.530723 1.55207854.530723 2.59374982v4.18750106h-2.3726455v-3.68750106c0-.45833455-.0520313-.90624728-.1560953-1.34374982-.104064-.43750255-.4474703-.65625018-1.0302274-.65625018-.6243842 0-1.0198217.19791563-1.1863242.59374981-.1665024.39583564-.2497522.84374837-.2497522 1.34374982v3.75000143h-2.3726454zm21.5411286 2.93749964s0-.010416 0-.03124946c0-.02083345 0-.03125091 0-.03125091 0-.37500072-.1352811-.69791418-.4058461-.96874909-.2705665-.27083491-.6139727-.40625018-1.0302289-.40625018-.0416256-.04166691-.0728441-.06250036-.0936569-.06250036s-.0312185 0-.0312185 0c-.4162561 0-.770068.14583272-1.0614473.43749963-.2913793.29166837-.4578788.64583128-.4995045 1.06250037zm1.9980178 3.37500076c-.3746291.4583345-.8429107.8229149-1.404855 1.0937498-.5619458.2708349-1.1551013.4062502-1.7794855.4062502-.0416257 0-.062437 0-.062437 0-1.1655172 0-2.1645159-.3645804-2.9970268-1.0937499-.8325122-.7291709-1.2487625-1.7187447-1.2487625-2.9687505 0-1.20833891.4162503-2.17707927 1.2487625-2.90625018.8325109-.72916946 1.8315096-1.09374982 2.9970268-1.09374982 1.1238901 0 2.0084206.36458036 2.6536161 1.09374982.6451971.72917091.9677905 1.69791127.9677905 2.90625018v.75h-5.4945491c.0416257.458336.228938.8229149.5619429 1.0937498s.728441.4062502 1.1863227.4062502c.3746306 0 .7076297-.0833324.999009-.25s.5203158-.3958313.6868182-.6874996zm5.3072352-4.50000004s-.0104057 0-.0312185 0-.0312184 0-.0312184 0c-.541133 0-.9990075.19791419-1.373638.59374982-.3746305.39583564-.5619429.86458037-.5619429 1.40625018 0 .50000004.1873124.94791414.5619429 1.34374984.3746305.3958356.832505.5937498 1.373638.5937498.5411315 0 .999006-.1979142 1.3736365-.5937498.3746305-.3958357.5619429-.8437498.5619429-1.34374984 0-.04166691 0-.07291636 0-.09374981 0-.02083346 0-.05208437 0-.09374982 0-.50000291-.1769067-.92708218-.5307244-1.28125091-.3538163-.35416873-.7804723-.53124946-1.2799797-.53124946 0 0-.0104056 0-.0312184 0s-.03122 0-.03122 0zm4.0584741 5.81250034h-2.1853316v-1c-.2913793.3750008-.6347856.6666648-1.0302289.8749993-.3954419.2083345-.8429107.3125004-1.342418.3125004-1.1238901 0-2.0292334-.3645804-2.7160546-1.0937499-.6868226-.7291709-1.0302289-1.6770778-1.0302289-2.84375123 0-1.08333818.3121878-2.04166109.9365705-2.87499927.6243842-.83333818 1.4776962-1.25 2.5599607-1.25h.1248769.1248754c.4162561 0 .8116936.09374836 1.1863227.28124945.3746305.1875011.7076311.42708219.9990089.71875055v-4.37500073h2.3726469zm17.1080269-13.6250007h-13.6114957c-.3330049 0-.6139727.11458182-.8429136.34374982s-.3434091.51041454-.3434091.84374982v13.68749966c0 .2916683.1144682.5520829.3434091.7812509s.5099087.3437498.8429136.3437498h13.6114957c.3330049 0 .6139742-.1145818.8429151-.3437498.2289394-.229168.3434091-.4895826.3434091-.7812509v-13.68749966c0-.33333528-.1144697-.61458182-.3434091-.84374982-.2289409-.229168-.5099102-.34374982-.8429151-.34374982zm-10.0525261 13.6250007h-2.3726469v-7.6250007h2.3726469zm-1.1863227-8.68750106c-.3746305 0-.6972239-.12499782-.9677904-.37499928-.2705665-.25000145-.4058476-.58333091-.4058476-1 0-.37500072.1352811-.69791563.4058476-.96875054s.5931599-.40625018.9677904-.40625018c.3746291 0 .6972225.13541527.967789.40625018s.4058475.59374982.4058475.96875054c0 .41666909-.135281.74999855-.4058475 1-.2705665.25000146-.5931599.37499928-.967789.37499928zm10.0525261 8.68750106h-2.3726454v-3.68750106c0-.45833455-.0520313-.90624728-.1560954-1.34374982-.104064-.43750255-.468283-.65625018-1.0926658-.65625018-.5827586 0-.9573833.19791563-1.1238857.59374981-.1665025.39583564-.2497523.84374837-.2497523 1.34374982v3.81250033h-2.3726454v-7.6874996h2.24777v1.06250036c.2497537-.37500218.56194-.67708218.9365705-.90625018.3746306-.229168.7908794-.34374982 1.2487612-.34374982h.0312185.0312199c1.2071413 0 1.9876092.35416291 2.341427 1.06249891.3538177.70833746.5307229 1.562496.5307229 2.56250037z"/></svg>
