<svg height="40" viewBox="0 0 40 40" width="40" xmlns="http://www.w3.org/2000/svg"><g fill="none" fill-rule="evenodd"><rect fill="#fff" height="40" rx="20" width="40"/><path d="m15.0280978 14.1431393c-.8560883-.8522492-2.2391582-.8522492-3.0952465 0l-.3322581.3413257c-1.82864037-1.541705-3.52232273-3.2369967-5.06256418-5.06737476l.3322581-.34132576c.41060477-.40898798.64144942-.96490065.64144942-1.54471787 0-.57981721-.23084465-1.13572989-.64144942-1.54471787l-1.85365045-1.85541183c-.40625673-.4153713-.96251878-.64947239-1.54325144-.64947239s-1.13699471.23410109-1.54325144.64947239l-1.04049247 1.01522534c-1.02145253 1.03124656-1.18193227 2.63756889-.3847199 3.85085475 3.02909153 4.5646188 6.94173541 8.4750286 11.50662258 11.5000526 1.2129775.7945274 2.8154238.6341304 3.8471991-.3850855l1.0230052-1.0152253c.8514401-.8569018.8514401-2.2412859 0-3.0981877zm5.0975388-14.1431393h-4.1969444c-.3508648.00028623-.6675772.21047989-.8044144.5338685-.1347038.32764662-.0587619.7042622.19236.95396174l1.1629033 1.17276031-5.1500005 5.16364614c-.2482921.24649838-.3879529.58204243-.3879529.93208189s.1396608.68558351.3879529.93208189c.5177652.49791183 1.3358852.49791183 1.8536504 0l5.1937187-5.16364614 1.171647 1.17276031c.1541441.1534757.3598846.24396272.5770799.25380633.4828976 0 .8743634-.39183782.8743634-.87519426v-4.20093245c0-.48335644-.3914658-.87519426-.8743634-.87519426z" fill="#191E3C" fill-rule="nonzero" transform="translate(9 10)"/></g></svg>
