<svg height="27" viewBox="0 0 37 27" width="37" xmlns="http://www.w3.org/2000/svg"><path d="m8.41853933 27c4.67696627 0 8.41853937-3.7384615 8.41853937-8.3076923 0-4.6730769-3.7415731-8.4115385-8.41853937-8.4115385 0-2.90769228.83146067-6.12692305 2.18258427-8.9307692.3117977-.83076923 0-1.35-.83146068-1.35h-1.45505618c-.51966292 0-.83146067.10384615-1.35112359.51923077-2.59831461 3.01153846-6.96348315 9.76153843-6.96348315 17.13461543 0 5.6076923 3.84550562 9.3461538 8.41853933 9.3461538zm20.16292137 0c4.6769663 0 8.4185393-3.7384615 8.4185393-8.3076923 0-4.6730769-3.741573-8.4115385-8.4185393-8.4115385 0-2.90769228.8314606-6.12692305 2.1825842-8.9307692.3117978-.83076923 0-1.35-.8314606-1.35h-1.4550562c-.5196629 0-.8314607.10384615-1.3511236.51923077-2.5983146 3.01153846-6.9634832 9.76153843-6.9634832 17.13461543 0 5.6076923 3.8455057 9.3461538 8.4185394 9.3461538z" fill="#191e3c" opacity=".199"/></svg>
