
<svg viewBox="0 0 469 210" version="1.1" xmlns="http://www.w3.org/2000/svg" xmlns:xlink="http://www.w3.org/1999/xlink">
  <defs>
      <polygon id="path-sdh2omd2ds-1" points="0 0 469 0 469 210 0 210"></polygon>
  </defs>
  <g id="Landingspage" stroke="none" stroke-width="1" fill="none" fill-rule="evenodd" opacity="0.2">
      <g id="bg-element">
          <g id="Group-3">
              <mask id="mask-sdh2omd2ds-2" fill="white">
                  <use xlink:href="#path-sdh2omd2ds-1"></use>
              </mask>
              <g id="Clip-2"></g>
              <path d="M49.5431107,2.44798423 L49.5225189,2.44798423 C47.9248385,2.42256006 46.3186792,2.41408534 44.7064635,2.42619208 C44.0257233,2.45040558 43.4915481,1.89349522 43.4854592,1.22520279 C43.4806466,0.556910358 44.0184556,0.0108960722 44.6882943,0.00484269877 C46.3174679,-0.00726404815 47.944219,0.00121067469 49.5624912,0.0266348432 C50.2311186,0.0375309154 50.7640824,0.5883879 50.7531809,1.25668033 C50.7434906,1.91891939 50.2020478,2.44798423 49.5431107,2.44798423 L49.5431107,2.44798423 Z M61.647447,2.90319791 C61.6268552,2.90319791 61.6050521,2.90319791 61.5832491,2.90198724 C59.9988928,2.81966136 58.3866771,2.73975683 56.7562922,2.67074837 C56.0876648,2.64169218 55.5692363,2.07751777 55.5970957,1.40922534 C55.6249552,0.742143586 56.191835,0.228817517 56.8592511,0.251820336 C58.498115,0.320828793 60.1175984,0.400733323 61.7092224,0.484269877 C62.3778498,0.519379443 62.8914331,1.08839655 62.856306,1.75668898 C62.8223901,2.40197859 62.2870036,2.90319791 61.647447,2.90319791 L61.647447,2.90319791 Z M32.6021272,3.05816427 C31.9892187,3.05816427 31.4635225,2.59568654 31.3993246,1.97339975 C31.3290703,1.30873934 31.8123716,0.713087393 32.4773652,0.644078936 C34.0387071,0.481848527 35.6812048,0.347463637 37.3612523,0.246977637 C38.014133,0.197339975 38.6016046,0.715508743 38.6427882,1.38380117 C38.6827604,2.05088293 38.1728109,2.62353206 37.5053948,2.66348432 C35.8616858,2.76275965 34.2543152,2.89351251 32.7293117,3.0521109 C32.6857056,3.0569536 32.644522,3.05816427 32.6021272,3.05816427 L32.6021272,3.05816427 Z M73.7445156,3.53638077 C73.7251351,3.53638077 73.7057546,3.53638077 73.6851629,3.5351701 L71.5932796,3.4346841 C70.6920862,3.39231049 69.7739348,3.34509417 68.8400367,3.29666719 C68.1714093,3.26155762 67.6590372,2.69132984 67.6941644,2.02303741 C67.7292916,1.35595565 68.2937488,0.835365537 68.9672213,0.878949826 C69.8962742,0.927376814 70.8107918,0.973382452 71.7071401,1.01575607 L73.8026572,1.11624207 C74.4712846,1.14893028 74.9860792,1.71673671 74.9545859,2.38502914 C74.9230926,3.0327401 74.3864949,3.53638077 73.7445156,3.53638077 L73.7445156,3.53638077 Z M85.8427956,4.15866757 C85.8197812,4.15866757 85.7979782,4.15866757 85.7761751,4.15745689 L80.9395279,3.90079386 C80.2709005,3.86568429 79.7573172,3.29666719 79.7924443,2.62837476 C79.8275715,1.961293 80.3920287,1.43101749 81.0642899,1.4830765 L85.9069935,1.73973953 C86.5744096,1.77605977 87.0867817,2.34749823 87.0504433,3.01457998 C87.0165274,3.65986959 86.4811409,4.15866757 85.8427956,4.15866757 L85.8427956,4.15866757 Z M97.9374417,4.84027742 C97.913216,4.84027742 97.8889904,4.83906674 97.8659761,4.83785607 L93.0293289,4.55940089 C92.3607015,4.52186997 91.850752,3.94922084 91.8883017,3.28213909 C91.9270627,2.61505733 92.5121117,2.11504869 93.1662037,2.14168353 L98.0064847,2.42013871 C98.6739008,2.4588803 99.1838504,3.03152943 99.1450894,3.69982186 C99.1075396,4.34269012 98.5733645,4.84027742 97.9374417,4.84027742 L97.9374417,4.84027742 Z M20.6915959,5.18774105 C20.1574207,5.18774105 19.668063,4.83180269 19.5227092,4.29063111 C19.3482846,3.6453415 19.7310496,2.98068109 20.3766627,2.80755461 C21.9028774,2.39471454 23.5211495,2.02424808 25.1854503,1.70584064 C25.8443875,1.58235182 26.4778877,2.00971999 26.6026497,2.66590567 C26.7298343,3.32209135 26.2986181,3.95769557 25.6421035,4.08360574 C24.0359442,4.39111711 22.4770248,4.74826614 21.0065291,5.14415677 C20.9023588,5.17321296 20.7957661,5.18774105 20.6915959,5.18774105 L20.6915959,5.18774105 Z M110.028454,5.55820751 C110.004228,5.55820751 109.978791,5.55820751 109.954566,5.55578616 L105.117919,5.26522423 C104.450502,5.22527197 103.941764,4.65262284 103.981737,3.98554109 C104.021709,3.31724866 104.601913,2.80513326 105.263272,2.84871755 L110.101131,3.13927948 C110.768547,3.17923174 111.277285,3.75430222 111.236102,4.42138397 C111.197341,5.06425224 110.664377,5.55820751 110.028454,5.55820751 L110.028454,5.55820751 Z M122.119466,6.29792975 C122.094029,6.29792975 122.069804,6.29671907 122.044367,6.2955084 L117.20772,5.9988931 C116.540303,5.95773016 116.031565,5.38265968 116.072749,4.71557792 C116.115144,4.04849617 116.706249,3.5448555 117.356707,3.58117574 L122.192143,3.87900171 C122.859559,3.91895398 123.368297,4.49281378 123.327114,5.16110621 C123.288353,5.8027638 122.754178,6.29792975 122.119466,6.29792975 L122.119466,6.29792975 Z M310.816537,6.46984555 C310.17698,6.46984555 309.640383,5.96741556 309.607678,5.32091527 C309.573762,4.65262284 310.088557,4.08481641 310.755973,4.04970684 C312.382724,3.96617029 314.010686,3.90442588 315.635015,3.87171882 C316.308487,3.86810564 316.857198,4.38990643 316.870522,5.05819886 C316.883846,5.72649129 316.353305,6.27976963 315.684677,6.29308705 C314.083363,6.32456459 312.482049,6.38509832 310.879524,6.4674242 C310.858932,6.46863488 310.83834,6.46984555 310.816537,6.46984555 L310.816537,6.46984555 Z M327.758732,6.70108442 C327.719971,6.70108442 327.68121,6.69866307 327.641237,6.69503105 C326.115023,6.54732873 324.510075,6.43473599 322.871211,6.36330618 C322.203795,6.33303931 321.685366,5.76886491 321.714437,5.10057248 C321.744719,4.43349072 322.321289,3.93348207 322.977803,3.94437815 C324.659062,4.0182293 326.306405,4.1332434 327.875015,4.28578841 C328.54122,4.34995417 329.028155,4.94076342 328.963957,5.6066345 C328.903393,6.23255331 328.375274,6.70108442 327.758732,6.70108442 L327.758732,6.70108442 Z M134.209267,7.03644131 C134.185041,7.03644131 134.159605,7.03644131 134.134168,7.03401996 L129.298732,6.73982601 C128.630104,6.69866307 128.122577,6.12480327 128.163761,5.45772151 C128.203733,4.78942908 128.79605,4.28699908 129.446508,4.32331932 L134.281944,4.61751327 C134.94936,4.65867621 135.458098,5.23253602 135.418126,5.89961777 C135.378154,6.54248603 134.84519,7.03644131 134.209267,7.03644131 L134.209267,7.03644131 Z M298.74006,7.39116899 C298.122306,7.39116899 297.594188,6.92021654 297.534835,6.29308705 C297.474271,5.62721597 297.963629,5.03761739 298.629833,4.97587298 C300.242049,4.82574932 301.854265,4.68167903 303.468903,4.54850482 C304.152066,4.48918176 304.721368,4.99040108 304.775876,5.65627216 C304.830384,6.32214324 304.334969,6.90689912 303.667553,6.96259015 C302.061394,7.09455369 300.456446,7.23741331 298.853921,7.38632629 C298.81516,7.38995832 298.77761,7.39116899 298.74006,7.39116899 L298.74006,7.39116899 Z M146.300279,7.7592141 C146.277265,7.7592141 146.253039,7.75800342 146.228814,7.75679275 L141.390955,7.47107352 C140.722328,7.43112126 140.21359,6.85847213 140.253562,6.1901797 C140.293534,5.52309794 140.871316,5.00977187 141.535098,5.05456684 L146.370534,5.33907539 C147.03795,5.37781698 147.547899,5.95046611 147.509138,6.61875854 C147.471589,7.26283748 146.937413,7.7592141 146.300279,7.7592141 L146.300279,7.7592141 Z M158.393714,8.4432453 C158.371911,8.4432453 158.348897,8.4432453 158.327094,8.44203463 L153.486813,8.17326484 C152.818185,8.13452325 152.308236,7.5630848 152.345785,6.89479237 C152.384546,6.22771061 152.969595,5.72043792 153.623687,5.75433681 L158.459123,6.02431727 C159.126539,6.06063751 159.638912,6.63086529 159.602573,7.29915772 C159.567446,7.94444733 159.033271,8.4432453 158.393714,8.4432453 L158.393714,8.4432453 Z M286.676907,8.49530431 C286.054309,8.49530431 285.523767,8.01829848 285.471682,7.38632629 C285.414752,6.71924454 285.911377,6.13327799 286.577582,6.07879763 C287.877287,5.9698369 289.175781,5.85603348 290.473064,5.73859804 L291.393638,5.65385081 C292.06711,5.58968505 292.649737,6.08242965 292.711512,6.74830073 C292.773287,7.41417181 292.281507,8.00377039 291.616513,8.0655148 L290.693517,8.15026202 C289.388967,8.26890814 288.085628,8.38150089 286.778655,8.49167229 C286.744739,8.49409364 286.710823,8.49530431 286.676907,8.49530431 L286.676907,8.49530431 Z M339.663207,8.85971739 C339.55298,8.85971739 339.441542,8.8451893 339.330104,8.81371176 C338.266599,8.51104308 337.180079,8.23864128 336.099616,8.00377039 C335.638118,7.90328439 335.17662,7.80764109 334.716333,7.71684048 C334.059818,7.58850897 333.631025,6.95169408 333.760632,6.2955084 C333.889028,5.64053339 334.52495,5.21074387 335.181465,5.34149674 C335.659921,5.43471869 336.137166,5.53399402 336.615622,5.63811204 C337.745748,5.883879 338.880719,6.16838755 339.992675,6.48437365 C340.635866,6.66718553 341.010152,7.33668863 340.827248,7.97955689 C340.675838,8.51225376 340.190114,8.85971739 339.663207,8.85971739 L339.663207,8.85971739 Z M170.489572,9.07279614 C170.46898,9.07279614 170.449599,9.07279614 170.429007,9.07158546 C168.81558,8.99168094 167.200942,8.91056573 165.587515,8.82823985 C164.918888,8.79313029 164.405304,8.22411318 164.440432,7.55582075 C164.474347,6.88752832 165.048495,6.36935955 165.712277,6.40931182 C167.324493,6.49284837 168.935497,6.57396358 170.547713,6.65265743 C171.21634,6.68655632 171.731135,7.25436275 171.698431,7.92144451 C171.666937,8.56915547 171.131551,9.07279614 170.489572,9.07279614 L170.489572,9.07279614 Z M274.598008,9.37909684 C273.963296,9.37909684 273.430332,8.88514156 273.39036,8.24348398 C273.347965,7.57640222 273.855492,7.00133174 274.522908,6.9601688 C276.130279,6.85847213 277.738861,6.75193276 279.346231,6.63691866 C280.033028,6.59575572 280.59264,7.09213234 280.63988,7.7592141 C280.688331,8.42508518 280.18565,9.00378768 279.518233,9.05221467 C277.903595,9.16722877 276.288957,9.27497881 274.674319,9.37667549 C274.648882,9.37788616 274.623445,9.37909684 274.598008,9.37909684 L274.598008,9.37909684 Z M182.589063,9.62607447 C182.572105,9.62607447 182.555147,9.62607447 182.536978,9.6248638 C180.922339,9.55706602 179.307701,9.48684688 177.693063,9.41299573 C177.025647,9.38272886 176.508429,8.81734378 176.538712,8.14905135 C176.568994,7.48196959 177.135873,6.97711825 177.803289,6.99406769 C179.415505,7.06791885 181.027721,7.13813798 182.638725,7.20593577 C183.307353,7.23378128 183.826992,7.79795569 183.797922,8.46624812 C183.771274,9.1175911 183.234676,9.62607447 182.589063,9.62607447 L182.589063,9.62607447 Z M9.49329811,9.70961103 C9.07782854,9.70961103 8.67204923,9.49532161 8.44675086,9.11032706 C8.10880332,8.5340459 8.30260836,7.79190232 8.88038965,7.45412408 L9.01605318,7.37543022 C10.3678434,6.59938774 11.8250151,5.8741936 13.3451734,5.22285062 C13.9568705,4.95771286 14.6715267,5.24222142 14.935586,5.85724416 C15.1996454,6.47105623 14.9149942,7.18293295 14.3008745,7.44686003 C12.8667172,8.06309345 11.4931239,8.74591397 10.220067,9.47716149 L10.103784,9.54374859 C9.91240152,9.65634134 9.70163853,9.70961103 9.49329811,9.70961103 L9.49329811,9.70961103 Z M262.500939,10.0219651 C261.856537,10.0219651 261.31994,9.5146924 261.29208,8.86456009 C261.263009,8.19626766 261.781438,7.63088258 262.450065,7.60182639 C264.059859,7.53160726 265.669652,7.45533475 267.279445,7.37300887 C267.952917,7.34153133 268.517375,7.85122538 268.55129,8.51951781 C268.585206,9.18781024 268.072834,9.75682734 267.404207,9.79072623 C265.788357,9.87426279 264.171296,9.95053529 262.554236,10.0207544 C262.537278,10.0219651 262.519108,10.0219651 262.500939,10.0219651 L262.500939,10.0219651 Z M194.692188,10.0861309 C194.678864,10.0861309 194.66554,10.0861309 194.651004,10.0861309 C193.035155,10.0316505 191.419305,9.97353811 189.804667,9.91421505 C189.137251,9.88879088 188.615188,9.3282485 188.639414,8.6587454 C188.66364,7.99166364 189.207505,7.47107352 189.895513,7.49407634 C191.506517,7.5533994 193.119944,7.61151179 194.73216,7.66478147 C195.400788,7.68778429 195.925272,8.24832667 195.902258,8.9166191 C195.880455,9.57038344 195.342646,10.0861309 194.692188,10.0861309 L194.692188,10.0861309 Z M206.798947,10.4335945 C206.789256,10.4335945 206.779566,10.4335945 206.769876,10.4323838 C205.154026,10.3948529 203.538177,10.35369 201.922327,10.308895 C201.2537,10.2895242 200.726792,9.73382452 200.744962,9.06432142 C200.764342,8.39602899 201.322743,7.82459053 201.988948,7.88875629 C203.602375,7.93355125 205.21459,7.97471419 206.826806,8.01224511 C207.495434,8.02798388 208.024764,8.58247289 208.009017,9.25076532 C207.99327,9.90937235 207.455461,10.4335945 206.798947,10.4335945 L206.798947,10.4335945 Z M250.396603,10.4444906 C249.742511,10.4444906 249.204702,9.92390045 249.186533,9.26650409 C249.169575,8.59821166 249.696482,8.0413013 250.366321,8.02435186 C251.978537,7.98197824 253.589541,7.93355125 255.201757,7.88028157 C255.844947,7.84880403 256.429996,8.38271157 256.451799,9.051004 C256.473602,9.71929643 255.949117,10.2786281 255.28049,10.3004203 C253.66464,10.35369 252.04758,10.402117 250.429307,10.4444906 C250.418406,10.4444906 250.407504,10.4444906 250.396603,10.4444906 L250.396603,10.4444906 Z M218.908128,10.6478839 L218.893593,10.6478839 C217.276532,10.6285131 215.660682,10.6055103 214.043622,10.5788755 C213.373783,10.5667687 212.840819,10.0159117 212.851721,9.34761929 C212.863833,8.68538024 213.402854,8.15752607 214.063002,8.15752607 L214.083594,8.15752607 C215.697021,8.18416092 217.309237,8.20716374 218.922664,8.22653453 C219.591291,8.23379858 220.126677,8.78223421 220.11941,9.45173732 C220.110931,10.115187 219.570699,10.6478839 218.908128,10.6478839 L218.908128,10.6478839 Z M238.28621,10.666044 C237.622428,10.666044 237.082196,10.1321365 237.074929,9.46747609 C237.067661,8.79918366 237.60547,8.2519587 238.274097,8.24469465 C239.887524,8.2277452 241.49974,8.20595306 243.110744,8.17931822 C243.774527,8.16357945 244.330505,8.70111901 244.342618,9.37062211 C244.353519,10.0389145 243.820555,10.5897715 243.150717,10.6006676 C241.533656,10.6273024 239.916595,10.6490946 238.298323,10.666044 L238.28621,10.666044 Z M229.592843,10.710839 C228.451815,10.710839 227.310788,10.7084176 226.170972,10.7047856 C225.502345,10.7023643 224.962113,10.1587713 224.964528,9.48926823 C224.966958,8.82218648 225.508401,8.28343624 226.175817,8.28343624 L226.179451,8.28343624 C227.316845,8.28706826 228.454238,8.28948961 229.592843,8.28948961 L231.01731,8.28827894 L231.019732,8.28827894 C231.68836,8.28827894 232.229802,8.82945053 232.231014,9.49774296 C232.231014,10.1672461 231.690782,10.7096283 231.020943,10.7096283 L229.592843,10.710839 Z M350.855448,13.4251717 C350.65922,13.4251717 350.459359,13.3779553 350.274033,13.2762587 C348.91013,12.5304831 347.479606,11.8307131 346.023646,11.1999516 C345.409526,10.9336031 345.127298,10.2205157 345.39378,9.60670368 C345.65905,8.99289161 346.373706,8.70959373 346.986615,8.97715284 C348.510407,9.63818122 350.009973,10.3706394 351.438074,11.1527353 C352.025546,11.4735641 352.239943,12.2096543 351.918953,12.7968315 C351.6985,13.1987755 351.28303,13.4251717 350.855448,13.4251717 L350.855448,13.4251717 Z M2.07298745,18.9180027 C1.95185929,18.9180027 1.82709729,18.8986319 1.70475786,18.861101 C1.06762377,18.6577077 0.715140849,17.9773085 0.918636146,17.3392829 C1.45523386,15.6552344 2.21712995,14.0886214 3.18373261,12.6830281 C3.56286373,12.1321711 4.3187034,11.9929435 4.86862522,12.370674 C5.41975832,12.7496152 5.55905569,13.5026548 5.18113585,14.0535118 C4.34898544,15.2641865 3.69125957,16.6165101 3.22733874,18.0741625 C3.06260446,18.5886992 2.58535953,18.9180027 2.07298745,18.9180027 L2.07298745,18.9180027 Z M360.63049,20.513672 C360.328881,20.513672 360.027272,20.4022899 359.792283,20.1758937 C358.687594,19.1189747 357.484792,18.0899012 356.215369,17.1225722 C355.683616,16.7157855 355.581868,15.9566924 355.987648,15.4252062 C356.394638,14.8925094 357.154112,14.7932341 357.687076,15.1975994 C359.026753,16.2206195 360.29981,17.3078054 361.469908,18.4288902 C361.951998,18.8913679 361.968956,19.657725 361.505035,20.1407842 C361.267624,20.3889725 360.949057,20.513672 360.63049,20.513672 L360.63049,20.513672 Z M367.877587,30.1385358 C367.43547,30.1385358 367.01031,29.8964008 366.795913,29.4762967 C366.10306,28.1118663 365.291501,26.7692281 364.385463,25.4847023 C364.000275,24.938688 364.131094,24.183227 364.677381,23.7970217 C365.222458,23.4120272 365.978298,23.5427801 366.365908,24.090005 C367.337356,25.4689635 368.209478,26.910877 368.955628,28.3794254 C369.258448,28.9762881 369.021037,29.7051142 368.425087,30.0077829 C368.248239,30.0961622 368.061702,30.1385358 367.877587,30.1385358 L367.877587,30.1385358 Z M1.92763366,30.870994 C1.38497954,30.870994 0.890776671,30.5029489 0.753901858,29.9508812 C0.338432293,28.2753074 0.0852744528,26.5888376 0.00169602716,24.9411093 C-0.0334311372,24.2728169 0.481363514,23.7050105 1.14877964,23.6699009 C1.82467473,23.6384234 2.38670936,24.1493281 2.42062524,24.8176205 C2.49693598,26.3115931 2.72707947,27.8430966 3.10499931,29.3697573 C3.26609975,30.018679 2.87001069,30.6748647 2.22076379,30.8358844 C2.12264999,30.8600979 2.02453618,30.870994 1.92763366,30.870994 L1.92763366,30.870994 Z M7.22941292,41.6581055 C6.87329615,41.6581055 6.52081323,41.5019284 6.28097948,41.2016811 C5.24775634,39.9026272 4.31143572,38.4861378 3.49624324,36.9909545 C3.17646492,36.4025666 3.3944956,35.6676871 3.98196714,35.348069 C4.56943868,35.0284509 5.30589785,35.2463723 5.62446489,35.8335495 C6.3718256,37.2064546 7.23062421,38.5055086 8.17663508,39.6943911 C8.59331593,40.2174026 8.50610366,40.978917 7.98283004,41.3953891 C7.75995423,41.5721476 7.4934723,41.6581055 7.22941292,41.6581055 L7.22941292,41.6581055 Z M371.232837,41.6980577 C370.624774,41.6980577 370.102711,41.242844 370.031246,40.6266106 C369.841075,38.969197 369.575804,37.458275 369.219687,36.0090974 C369.061009,35.358965 369.45831,34.70399 370.108768,34.5453917 C370.751958,34.3855826 371.414529,34.7826839 371.573207,35.4328162 C371.95355,36.9824798 372.235778,38.5914665 372.436851,40.3493661 C372.514373,41.0140265 372.037128,41.6145212 371.372135,41.6907937 C371.324895,41.6956364 371.278866,41.6980577 371.232837,41.6980577 L371.232837,41.6980577 Z M15.8210328,48.678808 C15.6223827,48.678808 15.4213099,48.6291703 15.2359838,48.5274737 C13.7473188,47.7042149 12.3313307,46.7962089 11.0255692,45.8288798 C10.4877602,45.4305678 10.3763223,44.6714748 10.774834,44.1351459 C11.1733456,43.598817 11.9316078,43.4862243 12.4694168,43.8845362 C13.687966,44.7889102 15.0143193,45.6375932 16.4085044,46.408793 C16.9935533,46.7320431 17.2055276,47.4681333 16.8821154,48.0528892 C16.6616622,48.4524118 16.2474039,48.678808 15.8210328,48.678808 L15.8210328,48.678808 Z M27.0544577,53.1316695 C26.9442311,53.1316695 26.8340045,53.1171414 26.7225666,53.0856639 C25.029195,52.6038154 23.4945013,52.1098601 22.0288507,51.5771632 C21.4001956,51.3495564 21.0767834,50.6546291 21.3045043,50.0262889 C21.5346478,49.3979488 22.232346,49.0759093 22.8573672,49.3023055 C24.2672989,49.8144209 25.7486963,50.290216 27.3863489,50.7563258 C28.0295394,50.9391377 28.4014028,51.6086408 28.2197106,52.2527197 C28.0670891,52.7842059 27.5825765,53.1316695 27.0544577,53.1316695 L27.0544577,53.1316695 Z M371.548982,53.7914872 L371.522333,53.7914872 C370.853706,53.7757485 370.323165,53.2224701 370.3377,52.5541777 C370.369193,51.0856293 370.397053,49.6158702 370.397053,48.1509538 L370.395842,47.7490098 C370.389785,47.0807174 370.927594,46.5334925 371.596222,46.5274391 L371.607123,46.5274391 C372.272117,46.5274391 372.812348,47.0625573 372.818405,47.7272177 L372.819616,48.1509538 C372.819616,49.6340303 372.791756,51.1207389 372.760263,52.6062367 C372.745728,53.2660544 372.206707,53.7914872 371.548982,53.7914872 L371.548982,53.7914872 Z M38.8523399,55.8702157 C38.771184,55.8702157 38.6900281,55.8629516 38.607661,55.8460022 C37.0208822,55.51912 35.4328921,55.1898165 33.8497471,54.8447742 C33.1968664,54.7019146 32.7826081,54.0554143 32.9255393,53.4028607 C33.0684705,52.7490963 33.711661,52.3362562 34.3681756,52.4791159 C35.9416303,52.8229475 37.5199302,53.1498296 39.0958074,53.4742905 C39.7511108,53.609886 40.1726367,54.2503329 40.0381845,54.9040973 C39.9194789,55.4767464 39.4155858,55.8702157 38.8523399,55.8702157 L38.8523399,55.8702157 Z M50.650222,58.6063405 C50.5387841,58.6063405 50.4249236,58.589391 50.3110631,58.5567028 C48.8514689,58.1329667 47.2949721,57.7286013 45.6863903,57.3557135 C45.0347208,57.2055899 44.6289415,56.5542469 44.7791404,55.9029039 C44.9305506,55.2515609 45.5846426,54.8447742 46.2326782,54.9973192 C47.8848662,55.3798924 49.4849691,55.7951538 50.9881695,56.2322074 C51.6301487,56.419862 51.9995896,57.0905758 51.8130522,57.7322333 C51.6592195,58.2612982 51.1747069,58.6063405 50.650222,58.6063405 L50.650222,58.6063405 Z M61.8933371,63.0579913 C61.6995321,63.0579913 61.5033045,63.0119857 61.3216123,62.913921 C59.995259,62.203255 58.5574678,61.5252772 57.048211,60.8993583 C56.4304574,60.6426953 56.1373273,59.9344506 56.3929077,59.3170065 C56.6496994,58.6995624 57.3570878,58.4077898 57.9760527,58.6632422 C59.5604089,59.3194279 61.070877,60.0313046 62.4662733,60.7807122 C63.0561674,61.0966983 63.2778319,61.8303672 62.9616875,62.4199658 C62.7436568,62.8267525 62.3257647,63.0579913 61.8933371,63.0579913 L61.8933371,63.0579913 Z M371.664053,65.8909701 C371.039032,65.8909701 370.508491,65.4127536 370.456406,64.7795707 C370.334066,63.2771234 370.265023,61.6657154 370.246854,59.8557568 C370.239586,59.1874643 370.776184,58.6390287 371.446023,58.6329753 L371.458136,58.6329753 C372.120707,58.6329753 372.662149,59.1668829 372.669417,59.8303326 C372.686375,61.5833895 372.752995,63.1366852 372.872912,64.5810201 C372.92742,65.2481018 372.430795,65.831647 371.76459,65.8873381 C371.729463,65.8897594 371.696758,65.8909701 371.664053,65.8909701 L371.664053,65.8909701 Z M71.3982633,70.450371 C71.0566819,70.450371 70.7175231,70.3063007 70.4776894,70.0266348 C69.5050303,68.8922327 68.3918626,67.8026254 67.1672569,66.7905014 C66.6524623,66.3643439 66.5797854,65.6004082 67.0061565,65.0858714 C67.4349501,64.5713347 68.1968462,64.4986942 68.7128522,64.9248517 C70.0428393,66.0265657 71.2553321,67.2130269 72.317626,68.4515471 C72.7524761,68.9600304 72.6931233,69.7239662 72.1855963,70.1585984 C71.9566641,70.3547277 71.6768581,70.450371 71.3982633,70.450371 L71.3982633,70.450371 Z M374.578397,77.5703488 C374.126589,77.5703488 373.691739,77.3173178 373.483398,76.8826856 L373.283537,76.4504748 C372.665783,75.1054152 372.138876,73.6598696 371.71735,72.1562116 C371.536869,71.5121327 371.913577,70.8450509 372.557979,70.6646604 C373.196325,70.4842699 373.869797,70.859579 374.050278,71.503658 C374.437888,72.8850378 374.921189,74.2107266 375.486858,75.4456148 L375.669761,75.8378734 C375.958046,76.4407894 375.703677,77.1635622 375.100459,77.4529134 C374.93088,77.5328179 374.752821,77.5703488 374.578397,77.5703488 L374.578397,77.5703488 Z M76.8248046,81.1478926 C76.2918407,81.1478926 75.8036942,80.7943756 75.6571292,80.256836 C75.1968422,78.5764195 74.7002168,77.134506 74.1381821,75.8475588 C73.8717002,75.2349574 74.150295,74.52187 74.7644147,74.2543109 C75.3797457,73.9867518 76.090768,74.2676283 76.3584612,74.8802297 C76.9677358,76.2737163 77.501911,77.8245905 77.99248,79.6175998 C78.1693271,80.2616787 77.790196,80.9287604 77.1445829,81.1043083 C77.0379901,81.1345751 76.9301861,81.1478926 76.8248046,81.1478926 L76.8248046,81.1478926 Z M382.044736,86.9712378 C381.772198,86.9712378 381.499659,86.8804372 381.27315,86.6927826 C379.951642,85.6007541 378.736726,84.4215569 377.661108,83.1915114 C377.220202,82.6878708 377.272287,81.9227244 377.774969,81.4832495 C378.277651,81.0437745 379.04318,81.0922015 379.485298,81.5970529 C380.476127,82.7314551 381.597773,83.8174303 382.818745,84.8271329 C383.33354,85.2532904 383.405005,86.0172262 382.978634,86.5329736 C382.7388,86.8211142 382.393585,86.9712378 382.044736,86.9712378 L382.044736,86.9712378 Z M79.528385,92.9507601 C78.9966324,92.9507601 78.5096972,92.5972431 78.3619208,92.0597036 C77.9161692,90.4410315 77.5576299,88.801778 77.2378516,87.2714852 C77.0997655,86.6177208 77.5200802,85.9760632 78.1741722,85.839257 C78.8282642,85.7024508 79.4714547,86.1213442 79.6083295,86.7751085 C79.9220515,88.2678704 80.2696893,89.862329 80.6972716,91.4192566 C80.8741187,92.0645463 80.4949876,92.7304173 79.8505858,92.9071758 C79.7427818,92.9374427 79.6349777,92.9507601 79.528385,92.9507601 L79.528385,92.9507601 Z M392.448433,93.0924091 C392.290967,93.0924091 392.132289,93.0621422 391.979667,92.9967658 C390.407424,92.3381587 388.90059,91.619018 387.500348,90.8587143 C386.911665,90.5403068 386.693635,89.8054273 387.012202,89.2170394 C387.330769,88.6310728 388.068439,88.41073 388.654699,88.7303482 C389.985898,89.4519103 391.418844,90.1371521 392.915988,90.7654923 C393.533741,91.023366 393.823238,91.7328214 393.565235,92.3502655 C393.370218,92.8139539 392.920833,93.0924091 392.448433,93.0924091 L392.448433,93.0924091 Z M404.002848,96.6917449 C403.914424,96.6917449 403.824789,96.6820595 403.735154,96.6614781 C402.093868,96.2922223 400.490131,95.8818036 398.969973,95.4423286 C398.325571,95.2570954 397.95613,94.585171 398.141456,93.9435134 C398.327994,93.3006451 398.997832,92.9301787 399.641023,93.1166226 C401.116364,93.5427801 402.672861,93.941092 404.268118,94.2994517 C404.920999,94.447154 405.330412,95.094865 405.183847,95.746208 C405.056663,96.3091717 404.556403,96.6917449 404.002848,96.6917449 L404.002848,96.6917449 Z M415.949717,98.6760407 C415.898844,98.6760407 415.845547,98.6724087 415.793462,98.6663554 C414.772352,98.5343918 413.756087,98.4012176 412.743455,98.2632007 C412.15235,98.1820855 411.558822,98.0973382 410.965294,98.0077483 C410.302723,97.9072623 409.848492,97.2898182 409.949029,96.6287898 C410.048354,95.9677615 410.649149,95.5113371 411.328678,95.6130338 C411.911305,95.701413 412.493931,95.7849496 413.071713,95.8636434 C414.077076,96.0004497 415.087285,96.1336239 416.10355,96.2643768 C416.767332,96.349124 417.236098,96.9568827 417.150097,97.6203324 C417.071364,98.2305125 416.549302,98.6760407 415.949717,98.6760407 L415.949717,98.6760407 Z M427.953517,100.32498 C427.889319,100.32498 427.82391,100.320137 427.758501,100.309241 C426.175356,100.052578 424.586155,99.8201283 422.994531,99.6022069 C422.33196,99.5114063 421.868039,98.9012262 421.957674,98.2389872 C422.04852,97.5767481 422.659006,97.1094277 423.322788,97.2038603 C424.933793,97.4242031 426.544797,97.659074 428.146111,97.9181584 C428.80626,98.0259084 429.254434,98.6481952 429.149052,99.3080129 C429.050938,99.9024542 428.538566,100.32498 427.953517,100.32498 L427.953517,100.32498 Z M439.765935,102.949722 C439.649652,102.949722 439.530946,102.932773 439.413452,102.896453 C437.973238,102.458188 436.424009,102.04777 434.813005,101.673671 C434.161335,101.523548 433.755556,100.873415 433.905755,100.222072 C434.058376,99.5695187 434.708834,99.1651533 435.360504,99.315277 C437.024805,99.7014822 438.626119,100.126429 440.118418,100.580432 C440.759186,100.775351 441.118936,101.450907 440.925131,102.091354 C440.765242,102.613155 440.285575,102.949722 439.765935,102.949722 L439.765935,102.949722 Z M85.2080841,103.466681 C84.9040524,103.466681 84.6000207,103.354088 84.3662434,103.126481 C83.7872508,102.565939 83.2409628,101.965444 82.7443374,101.340736 C82.1847254,100.638544 81.6614517,99.8746087 81.1878407,99.0707207 C80.8486818,98.4956502 81.0400643,97.7535066 81.6178456,97.413307 C82.1944156,97.0755288 82.9369312,97.2668154 83.27609,97.8430966 C83.6915596,98.5489199 84.1506353,99.218423 84.6412043,99.8334458 C85.0724205,100.377039 85.5472429,100.898839 86.0499247,101.386741 C86.5308035,101.85164 86.5429163,102.617998 86.0789955,103.098635 C85.840373,103.343192 85.5242285,103.466681 85.2080841,103.466681 L85.2080841,103.466681 Z M450.817668,107.802107 C450.600848,107.802107 450.380395,107.743994 450.181745,107.621716 C448.890519,106.82146 447.498756,106.074474 446.045218,105.400128 C445.438366,105.118041 445.174307,104.397689 445.455324,103.791141 C445.738764,103.187015 446.458265,102.921877 447.065117,103.203964 C448.605868,103.919473 450.083631,104.712465 451.457224,105.562358 C452.025315,105.913454 452.200951,106.66044 451.849679,107.228247 C451.619536,107.598713 451.223447,107.802107 450.817668,107.802107 L450.817668,107.802107 Z M95.8189103,109.013992 C95.7207965,109.013992 95.6202601,109.003096 95.5197237,108.977672 C93.8190845,108.546672 92.2141364,107.997025 90.7472745,107.346893 C90.1355773,107.074491 89.8594051,106.358982 90.1307322,105.748802 C90.4020593,105.137412 91.1203492,104.862588 91.7296238,105.132569 C93.0717238,105.729432 94.5470647,106.233072 96.1156742,106.630173 C96.7637099,106.794825 97.1561651,107.453432 96.9914308,108.101143 C96.8533447,108.649579 96.3591418,109.013992 95.8189103,109.013992 L95.8189103,109.013992 Z M115.10009,109.992217 C114.450843,109.992217 113.913034,109.47768 113.890019,108.822705 C113.868216,108.155624 114.390279,107.595081 115.058906,107.570868 C116.610558,107.518809 118.159787,107.476435 119.707805,107.476435 L119.953695,107.477646 C120.623533,107.482488 121.161342,108.028503 121.15653,108.696795 C121.151652,109.366298 120.573871,109.929262 119.936737,109.898995 L119.707805,109.897784 C118.187646,109.897784 116.666277,109.940158 115.142485,109.992217 C115.127949,109.992217 115.113414,109.992217 115.10009,109.992217 L115.10009,109.992217 Z M106.90577,110.217403 C106.006999,110.217403 105.10944,110.202874 104.210669,110.168976 C103.781875,110.153237 103.349448,110.131445 102.915809,110.103599 C102.248393,110.061226 101.742077,109.484944 101.784472,108.817863 C101.828078,108.150781 102.396169,107.651983 103.072064,107.687092 C103.482689,107.713727 103.893313,107.734309 104.300304,107.748837 C105.168792,107.781525 106.037281,107.796053 106.90577,107.796053 L107.82271,107.79 L107.837246,107.79 C108.499817,107.79 109.040048,108.323907 109.048527,108.987357 C109.055795,109.65565 108.519197,110.204085 107.85057,110.211349 L106.90577,110.217403 Z M131.935692,111.316695 C131.833944,111.316695 131.728563,111.303378 131.625604,111.276743 C130.116347,110.87722 128.568329,110.564866 127.022734,110.346945 C126.361374,110.253723 125.899876,109.641121 125.993144,108.978882 C126.086413,108.316643 126.709012,107.859008 127.361893,107.949809 C129.001968,108.179837 130.644466,108.512773 132.244568,108.935298 C132.892604,109.107214 133.27658,109.769453 133.10579,110.415953 C132.962858,110.958335 132.472289,111.316695 131.935692,111.316695 L131.935692,111.316695 Z M459.807799,115.813141 C459.445626,115.813141 459.088298,115.652121 458.849675,115.34461 C457.896397,114.116986 456.847427,112.953527 455.729414,111.886923 C455.246113,111.425656 455.229155,110.658088 455.691864,110.175029 C456.153363,109.69318 456.918893,109.67502 457.404617,110.137498 C458.606208,111.285218 459.737545,112.539477 460.7635,113.860323 C461.174125,114.388177 461.078433,115.148481 460.549103,115.558899 C460.32865,115.730815 460.067013,115.813141 459.807799,115.813141 L459.807799,115.813141 Z M143.0492,116.010481 C142.839648,116.010481 142.628885,115.957211 142.43508,115.843408 C141.063909,115.035888 139.657611,114.301008 138.25737,113.659351 C137.649307,113.380896 137.382825,112.662965 137.661419,112.055207 C137.940014,111.447448 138.658304,111.179889 139.266368,111.458344 C140.74292,112.133901 142.221894,112.907522 143.665742,113.757415 C144.241101,114.096404 144.433695,114.838548 144.093324,115.414829 C143.868026,115.797402 143.463458,116.010481 143.0492,116.010481 L143.0492,116.010481 Z M152.716438,123.261212 C152.423308,123.261212 152.130177,123.155883 151.897611,122.941594 C150.70571,121.847144 149.488372,120.809595 148.281936,119.859216 C147.75624,119.446376 147.665394,118.684861 148.079652,118.159429 C148.49391,117.635206 149.255806,117.544406 149.781502,117.957246 C151.03639,118.946367 152.299757,120.022657 153.536475,121.15948 C154.029467,121.611062 154.06096,122.377419 153.609152,122.870164 C153.369318,123.129248 153.043484,123.261212 152.716438,123.261212 L152.716438,123.261212 Z M465.459639,126.454972 C464.954534,126.454972 464.484557,126.136564 464.312555,125.632923 C463.802606,124.131687 463.204233,122.671613 462.534394,121.293865 C462.242475,120.69216 462.49321,119.968177 463.094006,119.676404 C463.702069,119.384631 464.42157,119.63403 464.713489,120.235736 C465.426934,121.703073 466.064068,123.25758 466.606722,124.85446 C466.821119,125.487642 466.483172,126.175306 465.84846,126.389595 C465.720064,126.43439 465.589246,126.454972 465.459639,126.454972 L465.459639,126.454972 Z M160.953152,132.117297 C160.600669,132.117297 160.250609,131.963541 160.010775,131.666926 C158.987242,130.40056 157.944329,129.176568 156.912317,128.028849 C156.465354,127.531261 156.506538,126.766115 157.003163,126.319376 C157.501,125.871426 158.267741,125.912589 158.713492,126.410177 C159.774575,127.589374 160.845348,128.846054 161.895529,130.145108 C162.315844,130.665698 162.234688,131.428423 161.713837,131.848527 C161.48975,132.028918 161.220845,132.117297 160.953152,132.117297 L160.953152,132.117297 Z M467.769553,138.307477 C467.138475,138.307477 466.605511,137.818364 466.561905,137.179128 C466.45289,135.588301 466.269986,134.00716 466.019251,132.482921 C465.910235,131.823103 466.355987,131.200816 467.016135,131.091856 C467.684763,130.984106 468.301305,131.429634 468.409109,132.089452 C468.673169,133.688753 468.865762,135.346166 468.979623,137.013266 C469.02444,137.680347 468.520547,138.25905 467.854342,138.303845 C467.825272,138.306266 467.797412,138.307477 467.769553,138.307477 L467.769553,138.307477 Z M168.041572,141.932237 C167.645483,141.932237 167.257872,141.738529 167.025306,141.38259 C166.128958,140.007264 165.222919,138.670679 164.332628,137.406735 C163.94744,136.85951 164.07947,136.104049 164.625758,135.719054 C165.172046,135.33527 165.929097,135.466023 166.314284,136.012038 C167.220323,137.300195 168.143319,138.662204 169.054203,140.060534 C169.42001,140.619865 169.261332,141.370484 168.70172,141.736108 C168.497013,141.869282 168.268081,141.932237 168.041572,141.932237 L168.041572,141.932237 Z M467.301998,150.383957 C467.246279,150.383957 467.188137,150.380325 467.131207,150.37185 C466.468636,150.278628 466.007138,149.666027 466.100407,149.003788 C466.323282,147.426279 466.485594,145.837873 466.580074,144.282156 C466.620046,143.615075 467.214786,143.111434 467.86161,143.147754 C468.530237,143.187706 469.037764,143.762777 468.997792,144.429859 C468.899678,146.049741 468.73131,147.702312 468.499955,149.341566 C468.415166,149.946903 467.895526,150.383957 467.301998,150.383957 L467.301998,150.383957 Z M174.273615,152.322247 C173.848455,152.322247 173.435408,152.098272 173.214955,151.69996 C172.438524,150.307684 171.6415,148.911776 170.821463,147.519501 C170.481093,146.943219 170.673686,146.201076 171.250256,145.860876 C171.828038,145.523098 172.569342,145.714385 172.908501,146.290666 C173.738229,147.699891 174.544942,149.112748 175.331064,150.523184 C175.656899,151.10673 175.446136,151.844031 174.862298,152.168491 C174.675761,152.272609 174.473476,152.322247 174.273615,152.322247 L174.273615,152.322247 Z M464.461543,162.134765 C464.329513,162.134765 464.19385,162.112973 464.063031,162.066968 C463.430742,161.846625 463.09764,161.15654 463.318093,160.525779 C463.445278,160.160155 463.568828,159.794531 463.686323,159.428907 C464.055763,158.295716 464.394922,157.13589 464.696531,155.984538 C464.867322,155.338038 465.528682,154.9482 466.176717,155.120116 C466.823542,155.289611 467.209941,155.950639 467.041572,156.59835 C466.726639,157.794497 466.374156,158.999118 465.991391,160.178315 C465.865418,160.560888 465.738233,160.94104 465.604993,161.322403 C465.431779,161.822411 464.961802,162.134765 464.461543,162.134765 L464.461543,162.134765 Z M180.065963,162.953181 C179.63717,162.953181 179.2217,162.725575 179.001247,162.323631 C178.223604,160.901088 177.453229,159.479756 176.685277,158.064477 C176.36671,157.476089 176.58474,156.74121 177.173423,156.422802 C177.762106,156.101973 178.496142,156.323527 178.815921,156.910704 C179.580239,158.323561 180.350614,159.742472 181.127046,161.161383 C181.448036,161.747349 181.232427,162.48344 180.646167,162.804268 C180.462052,162.904754 180.262191,162.953181 180.065963,162.953181 L180.065963,162.953181 Z M369.260871,169.837078 C369.21242,169.837078 369.163968,169.834656 369.114306,169.828603 C367.575978,169.642159 365.983143,169.515038 364.381829,169.449662 C363.713201,169.423027 363.193562,168.860063 363.221421,168.191771 C363.246858,167.523478 363.800414,167.007731 364.479943,167.030734 C366.145455,167.098532 367.802488,167.230495 369.405013,167.424203 C370.068796,167.505318 370.543618,168.108234 370.462462,168.771684 C370.388574,169.386707 369.8653,169.837078 369.260871,169.837078 L369.260871,169.837078 Z M352.344113,170.028364 C351.744529,170.028364 351.224889,169.584047 351.144944,168.973867 C351.058943,168.310417 351.526498,167.702658 352.19028,167.6167 C353.833989,167.403622 355.481332,167.241391 357.08628,167.134852 C357.753696,167.084004 358.332689,167.596119 358.376295,168.263201 C358.419901,168.930282 357.914797,169.506564 357.247381,169.550148 C355.692095,169.654266 354.095626,169.811654 352.50158,170.018679 C352.448283,170.024732 352.396198,170.028364 352.344113,170.028364 L352.344113,170.028364 Z M340.477188,172.417026 C339.944224,172.417026 339.454866,172.061087 339.309512,171.519916 C339.135088,170.874626 339.517853,170.209966 340.164677,170.036839 C341.747822,169.609471 343.35277,169.219634 344.929859,168.877013 C345.581528,168.740207 346.229564,169.150625 346.371284,169.80439 C346.513004,170.456943 346.097534,171.102233 345.443442,171.243882 C343.905115,171.578028 342.340139,171.95818 340.793332,172.373441 C340.687951,172.402497 340.582569,172.417026 340.477188,172.417026 L340.477188,172.417026 Z M381.024837,172.603469 C380.887962,172.603469 380.748665,172.579256 380.61179,172.529618 C379.152196,172.000553 377.632037,171.530812 376.096132,171.134921 C375.449308,170.967848 375.058064,170.30803 375.225221,169.660319 C375.3948,169.012608 376.05616,168.625192 376.701773,168.789844 C378.312778,169.206316 379.905613,169.69785 381.437884,170.25355 C382.066539,170.482367 382.391163,171.177295 382.164653,171.805635 C381.984172,172.297169 381.520251,172.603469 381.024837,172.603469 L381.024837,172.603469 Z M459.308751,173.075633 C459.095566,173.075633 458.878746,173.019942 458.68373,172.901295 C458.112005,172.556253 457.926679,171.811688 458.273105,171.239039 C459.085875,169.893979 459.853828,168.493229 460.556371,167.07795 C460.853135,166.479877 461.582327,166.23411 462.179488,166.533147 C462.779073,166.829762 463.023752,167.556167 462.725776,168.155451 C461.994162,169.628842 461.194716,171.087705 460.346819,172.490877 C460.119098,172.867397 459.719376,173.075633 459.308751,173.075633 L459.308751,173.075633 Z M186.05575,173.479998 C185.643915,173.479998 185.242981,173.270551 185.01526,172.89161 C184.180687,171.500545 183.36186,170.098584 182.555147,168.688147 C182.223256,168.108234 182.424328,167.368512 183.004532,167.036787 C183.587159,166.703852 184.324829,166.906034 184.657932,167.485948 C185.456166,168.881855 186.267725,170.270499 187.092607,171.645826 C187.436611,172.219686 187.251285,172.96304 186.677138,173.306871 C186.482122,173.424307 186.267725,173.479998 186.05575,173.479998 L186.05575,173.479998 Z M328.984549,176.216123 C328.501247,176.216123 328.043383,175.923139 327.856846,175.444923 C327.612167,174.822636 327.921043,174.120445 328.543642,173.877099 C330.071068,173.281447 331.615452,172.713641 333.138033,172.190629 C333.771533,171.97634 334.459541,172.310486 334.676361,172.942458 C334.894391,173.574431 334.558866,174.263304 333.925366,174.481226 C332.43549,174.993341 330.921388,175.549041 329.426666,176.132586 C329.280101,176.189488 329.131114,176.216123 328.984549,176.216123 L328.984549,176.216123 Z M391.85006,177.976444 C391.633241,177.976444 391.41521,177.918331 391.217771,177.797264 C389.74243,176.89289 388.39064,176.116847 387.083667,175.424341 C386.493773,175.110777 386.267264,174.378319 386.580985,173.787509 C386.894707,173.1967 387.627533,172.972725 388.219849,173.285079 C389.57164,174.001799 390.965825,174.803265 392.48356,175.733064 C393.055285,176.082949 393.233344,176.828724 392.883283,177.398952 C392.655562,177.770629 392.257051,177.976444 391.85006,177.976444 L391.85006,177.976444 Z M317.892844,181.072139 C317.439824,181.072139 317.007397,180.817897 316.799056,180.383265 C316.50956,179.780349 316.765141,179.056366 317.36957,178.769436 C318.835221,178.069666 320.30935,177.384424 321.791959,176.719763 C322.403656,176.44494 323.119523,176.719763 323.392062,177.329943 C323.667023,177.940123 323.393273,178.655632 322.782787,178.929245 C321.317137,179.58543 319.862387,180.262198 318.413695,180.953493 C318.245327,181.034608 318.067268,181.072139 317.892844,181.072139 L317.892844,181.072139 Z M451.984132,182.687179 C451.682523,182.687179 451.379702,182.574586 451.145925,182.349401 C450.662624,181.885712 450.648088,181.119355 451.110798,180.637507 C452.185204,179.520054 453.23054,178.322697 454.220157,177.078123 C454.636838,176.553901 455.397523,176.466732 455.922008,176.881994 C456.446493,177.298466 456.533705,178.05998 456.117024,178.584202 C455.081379,179.886888 453.985169,181.142358 452.857466,182.315502 C452.620054,182.562479 452.302699,182.687179 451.984132,182.687179 L451.984132,182.687179 Z M192.687517,183.613345 C192.31202,183.613345 191.942579,183.439008 191.705168,183.112126 C190.793073,181.853024 189.855541,180.498279 188.91922,179.087843 C188.548568,178.530933 188.701189,177.779104 189.258379,177.409848 C189.817991,177.039382 190.567774,177.190716 190.937215,177.748837 C191.856578,179.131427 192.774729,180.459538 193.667444,181.692004 C194.059899,182.234387 193.938771,182.991058 193.397328,183.383317 C193.182931,183.538283 192.933407,183.613345 192.687517,183.613345 L192.687517,183.613345 Z M401.973951,184.629101 C401.745019,184.629101 401.511242,184.563725 401.305324,184.426918 C400.352045,183.796157 399.4024,183.156921 398.450333,182.516474 L397.272967,181.724693 C396.718201,181.353015 396.570424,180.601186 396.943499,180.045487 C397.314151,179.490998 398.065146,179.342085 398.623546,179.714973 L399.802123,180.507965 C400.749345,181.144779 401.696568,181.780384 402.645001,182.408724 C403.202191,182.77919 403.354812,183.529809 402.985371,184.08793 C402.751594,184.439025 402.366406,184.629101 401.973951,184.629101 L401.973951,184.629101 Z M307.077311,186.521386 C306.641249,186.521386 306.219724,186.286515 306.004115,185.872464 C305.692816,185.280444 305.921748,184.549197 306.514065,184.239264 C307.949434,183.487435 309.387225,182.74287 310.831072,182.00678 C311.428234,181.7029 312.156214,181.938982 312.460246,182.535845 C312.764278,183.131497 312.526866,183.860323 311.930916,184.164202 C310.495547,184.89545 309.066235,185.636383 307.638134,186.383369 C307.458865,186.477801 307.267482,186.521386 307.077311,186.521386 L307.077311,186.521386 Z M442.530079,190.184887 C442.109765,190.184887 441.701563,189.966966 441.477476,189.577129 C441.144373,188.998426 441.345446,188.258704 441.924439,187.924558 C443.247158,187.165465 444.563821,186.293779 445.836878,185.336135 C446.373476,184.934191 447.131738,185.043152 447.532672,185.575849 C447.934818,186.109756 447.829436,186.868849 447.29405,187.270793 C445.941048,188.288971 444.540807,189.215137 443.132086,190.025078 C442.940704,190.134039 442.733575,190.184887 442.530079,190.184887 L442.530079,190.184887 Z M412.405508,190.770854 C412.231083,190.770854 412.051813,190.733323 411.883445,190.652208 C410.484415,189.981494 409.058737,189.222401 407.521621,188.331344 C406.943839,187.995987 406.745189,187.255055 407.081925,186.676352 C407.416239,186.09765 408.156332,185.90031 408.737747,186.238088 C410.219145,187.096456 411.590315,187.826493 412.931204,188.468151 C413.534422,188.758713 413.788791,189.481485 413.499295,190.084401 C413.290954,190.517823 412.857316,190.770854 412.405508,190.770854 L412.405508,190.770854 Z M296.368371,192.180079 C295.933521,192.180079 295.511995,191.945208 295.296387,191.533579 C294.983876,190.941559 295.211597,190.210311 295.803914,189.897957 L300.084583,187.635206 C300.670843,187.321642 301.407302,187.546827 301.721024,188.138847 C302.034746,188.729656 301.809447,189.462115 301.217131,189.775679 L296.931617,192.040852 C296.752347,192.135284 296.559753,192.180079 296.368371,192.180079 L296.368371,192.180079 Z M200.400958,192.939172 C200.082391,192.939172 199.765035,192.814473 199.527624,192.567495 C198.424146,191.419776 197.317035,190.18973 196.234149,188.912468 C195.801722,188.401563 195.864708,187.637628 196.375869,187.205417 C196.885819,186.774417 197.651349,186.837372 198.082565,187.348277 C199.132746,188.586797 200.205941,189.778101 201.274292,190.8895 C201.738212,191.371349 201.722466,192.137706 201.240376,192.601394 C201.005387,192.826579 200.703778,192.939172 200.400958,192.939172 L200.400958,192.939172 Z M431.177949,194.184957 C430.584421,194.184957 430.065992,193.747903 429.979991,193.143776 C429.886723,192.481537 430.34701,191.868936 431.009581,191.774503 C432.520049,191.561424 434.04263,191.215171 435.532506,190.747851 C436.173274,190.546879 436.851592,190.902817 437.051453,191.539632 C437.251314,192.177658 436.896409,192.856846 436.259275,193.057818 C434.642214,193.565091 432.991237,193.93919 431.349951,194.17285 C431.291809,194.181324 431.234879,194.184957 431.177949,194.184957 L431.177949,194.184957 Z M423.934485,194.278178 C423.888457,194.278178 423.842428,194.275757 423.796399,194.270914 C422.170859,194.084471 420.512615,193.76122 418.865272,193.309639 C418.219659,193.13167 417.841739,192.465798 418.018586,191.820509 C418.195433,191.175219 418.860427,190.795067 419.507251,190.974247 C421.033466,191.393141 422.569371,191.693388 424.070149,191.864093 C424.735142,191.940366 425.213599,192.54086 425.136077,193.205521 C425.065822,193.822965 424.542549,194.278178 423.934485,194.278178 L423.934485,194.278178 Z M285.575852,197.676542 C285.126467,197.676542 284.695251,197.425933 284.485699,196.994932 C284.19378,196.393227 284.444515,195.669244 285.046522,195.37626 C286.491581,194.674069 287.931795,193.95735 289.365952,193.229734 C289.960692,192.928276 290.692306,193.166779 290.993915,193.762431 C291.296735,194.359294 291.058113,195.08812 290.460951,195.390788 C289.014681,196.123247 287.563565,196.846019 286.103971,197.554264 C285.93318,197.637801 285.753911,197.676542 285.575852,197.676542 L285.575852,197.676542 Z M209.560669,200.821875 C209.322046,200.821875 209.082212,200.751656 208.871449,200.605164 C207.543885,199.685052 206.221165,198.67777 204.937207,197.613587 C204.421201,197.186219 204.350947,196.422283 204.778529,195.907747 C205.206112,195.394421 205.97043,195.322991 206.484014,195.749148 C207.714676,196.770958 208.982887,197.735865 210.25231,198.616026 C210.802232,198.997388 210.937896,199.751639 210.557553,200.300074 C210.321353,200.640274 209.944645,200.821875 209.560669,200.821875 L209.560669,200.821875 Z M274.526542,202.631834 C274.049297,202.631834 273.595067,202.346115 273.403684,201.876373 C273.152949,201.256507 273.450924,200.549473 274.0711,200.298864 C275.557343,199.695948 277.032684,199.068818 278.498334,198.422318 C279.114877,198.152337 279.825899,198.429582 280.096015,199.040973 C280.366131,199.652363 280.088747,200.367872 279.47705,200.636642 C277.988385,201.294038 276.491241,201.930853 274.981984,202.542244 C274.832996,202.602778 274.677952,202.631834 274.526542,202.631834 L274.526542,202.631834 Z M220.228425,206.487833 C220.084283,206.487833 219.937717,206.461198 219.795998,206.406718 C218.595618,205.947872 217.403717,205.438178 216.252999,204.892163 C215.917474,204.731144 215.584372,204.568913 215.253692,204.403051 C214.655319,204.102804 214.414274,203.375188 214.714672,202.778325 C215.013858,202.181463 215.739416,201.939328 216.340211,202.239575 C216.655145,202.396963 216.973712,202.55314 217.29349,202.705685 C218.387277,203.223854 219.521037,203.709334 220.660853,204.145177 C221.285874,204.384891 221.598384,205.084661 221.359762,205.709369 C221.175647,206.191217 220.71536,206.487833 220.228425,206.487833 L220.228425,206.487833 Z M263.084777,206.59074 C262.556658,206.59074 262.070934,206.243276 261.919524,205.71179 C261.736621,205.067711 262.109695,204.398208 262.752886,204.215396 C264.263354,203.785607 265.801681,203.308601 267.327896,202.797696 C267.961396,202.583407 268.648193,202.927238 268.861379,203.560421 C269.073353,204.194815 268.731771,204.881267 268.098271,205.093135 C266.536929,205.616147 264.961052,206.104049 263.416668,206.543524 C263.306441,206.575001 263.193792,206.59074 263.084777,206.59074 L263.084777,206.59074 Z M251.255401,209.167056 C250.665507,209.167056 250.14829,208.734845 250.058655,208.13314 C249.961753,207.472111 250.418406,206.855878 251.079766,206.757813 C252.627783,206.528996 254.209717,206.24933 255.784383,205.92608 C256.436053,205.786852 257.079243,206.21301 257.213695,206.867985 C257.349359,207.52296 256.926622,208.162196 256.271318,208.297791 C254.654257,208.629516 253.026295,208.917657 251.434671,209.153738 C251.374107,209.162213 251.314754,209.167056 251.255401,209.167056 L251.255401,209.167056 Z M231.946363,209.447932 C231.891855,209.447932 231.837347,209.4443 231.781628,209.437036 C230.131863,209.211851 228.492999,208.915235 226.911065,208.556876 C226.258185,208.409173 225.848771,207.760252 225.997759,207.107698 C226.145535,206.456355 226.798416,206.047147 227.446452,206.194849 C228.960554,206.538681 230.529163,206.821979 232.108674,207.037479 C232.772457,207.12828 233.235166,207.73846 233.145531,208.400699 C233.061953,209.008457 232.543524,209.447932 231.946363,209.447932 L231.946363,209.447932 Z M240.318741,210 C239.934764,210 239.549577,209.997579 239.166812,209.990315 C238.498184,209.978208 237.965221,209.427351 237.976122,208.759058 C237.988235,208.090766 238.536945,207.539909 239.207995,207.568965 C240.770549,207.5956 242.358539,207.566544 243.965909,207.480586 C244.623635,207.447898 245.20505,207.956381 245.238966,208.624674 C245.275305,209.291755 244.762932,209.861983 244.094305,209.898303 C242.824882,209.966101 241.555459,210 240.318741,210 L240.318741,210 Z" id="Fill-1" fill="#FFFFFF" mask="url(#mask-sdh2omd2ds-2)"></path>
          </g>
          <path d="M293.585877,17.4468197 C287.606258,17.4468197 281.652038,17.5407572 275.788529,17.6334904 L53.2593986,21.144105 C50.186136,21.192278 47.4841805,21.3584752 45.5381437,22.9000144 C43.945272,24.1633539 43.486883,25.9469628 43.3840781,27.219937 C43.1724209,29.8068323 44.2161933,32.7730909 46.0400737,34.7758874 C48.6295484,37.6181002 52.34383,39.3113846 55.9359552,40.94927 C56.8200776,41.3515154 57.7029905,41.7537607 58.5689708,42.1716623 C69.6344096,47.5080373 79.1650313,56.256272 85.4034763,66.8061805 C86.2428483,68.2248782 87.0483551,69.709814 87.8260442,71.1453723 C90.4759924,76.0301245 93.2154414,81.0810738 97.6820132,84.1870343 C103.381035,88.1516803 110.830159,88.3034256 118.032551,88.4491492 C119.752417,88.4840747 121.465026,88.5190002 123.148608,88.6020988 C147.492816,89.8160609 170.625134,103.364745 183.516872,123.962357 C187.822584,130.84268 190.998652,138.421513 194.070705,145.752254 C195.766382,149.799999 197.520113,153.986241 199.440751,157.991834 C206.05655,171.795835 213.821346,180.706654 223.180223,185.237334 C233.305904,190.137742 246.330684,190.318391 261.889303,185.776873 C274.848771,181.99408 287.255512,175.989303 299.253452,170.183241 C306.703785,166.578689 314.406898,162.850091 322.197093,159.670666 C347.551207,149.325494 369.372461,147.663522 387.053699,154.735332 C390.920374,156.280485 394.628608,158.272442 398.213477,160.198162 C401.560079,161.996223 405.021582,163.855704 408.565328,165.321371 C413.501174,167.361501 422.980998,170.212145 430.979222,166.358297 C435.333313,164.261563 438.685963,160.263195 440.417924,155.101448 C442.582874,148.652274 442.016843,140.945783 438.939952,134.989179 C434.065788,125.558091 424.306577,118.332126 409.930819,113.513612 C404.761546,111.780585 399.355216,110.424512 394.127888,109.113 C387.291965,107.398037 380.225033,105.626472 373.537875,102.980564 C365.320737,99.7300845 350.826452,92.1018744 346.065979,77.5391468 C343.976015,71.1489853 344.314666,63.5809916 344.672669,55.5698053 C345.252005,42.6184678 345.849484,29.2251422 335.180751,21.8317759 C330.473495,18.5692528 323.546861,18.3199571 317.43662,18.0983608 C316.242873,18.0562094 315.085411,18.0140579 313.983584,17.9514329 C307.222648,17.5684567 300.387934,17.4468197 293.585877,17.4468197 M241.237607,191.1 C234.157371,191.1 227.819749,189.759584 222.281587,187.078751 C212.487301,182.337313 204.409253,173.112165 197.584215,158.874606 C195.643016,154.822044 193.8784,150.611715 192.173047,146.539884 C189.13244,139.285015 185.990238,131.784464 181.771607,125.045048 C169.230615,105.008652 146.728431,91.8272877 123.047013,90.6482511 C121.382782,90.5651526 119.689525,90.5314314 117.99022,90.4965059 C110.480622,90.3435563 102.715826,90.1857894 96.5039897,85.8658668 C91.6382928,82.4817067 88.7803158,77.212774 86.0178869,72.1184689 C85.2486641,70.6985668 84.4516236,69.2304917 83.6316031,67.8443107 C77.596349,57.6388399 68.3777705,49.1772352 57.6727537,44.0154877 C56.8200776,43.6036077 55.9504688,43.207384 55.0796506,42.8099559 C51.3000576,41.0865633 47.3898419,39.305363 44.5173512,36.1512294 C42.2955553,33.7124663 41.0764098,30.2271426 41.3340268,27.0537398 C41.5299609,24.6499022 42.5410777,22.6591489 44.2585247,21.2982589 C46.9084729,19.1979118 50.5598621,19.1388997 53.2267429,19.0967483 L275.742569,15.5861337 C288.324683,15.388624 301.320436,15.1838884 314.100902,15.9076892 C315.189425,15.9691099 316.333584,16.0112613 317.510398,16.0534128 C323.903655,16.2834393 331.152007,16.5447784 336.353936,20.1505348 C347.953961,28.1894206 347.329875,42.1548018 346.727559,55.6601299 C346.376812,63.4810324 346.046627,70.868377 348.021691,76.9056705 C352.520919,90.6723377 366.416517,97.9585188 374.296212,101.077727 C380.857586,103.673053 387.859206,105.428962 394.629818,107.127064 C399.895849,108.448211 405.340882,109.813918 410.587562,111.572236 C425.488229,116.567787 435.641727,124.129759 440.76746,134.052213 C444.139462,140.579668 444.73815,148.690813 442.368798,155.75058 C440.457836,161.439823 436.73025,165.862114 431.874229,168.202122 C423.585733,172.194468 414.19541,169.866503 407.776754,167.212165 C404.13625,165.706756 400.628788,163.821983 397.236225,161.999836 C393.702154,160.101816 390.047137,158.137558 386.288105,156.634557 C369.116053,149.768686 347.817291,151.427045 322.977201,161.565073 C315.24627,164.720411 307.572185,168.433353 300.153297,172.024657 C288.077951,177.868054 275.591386,183.911369 262.468639,187.742335 C254.798182,189.98118 247.70706,191.1 241.237607,191.1" id="Fill-4" fill="#FFFFFF"></path>
          <path d="M286.247604,22.7313996 L105.120767,26.6355358 C100.695661,26.730108 95.8954438,27.2902667 93.8468509,30.7166919 C92.4940293,32.9803634 92.6053527,36.0782107 94.1856613,40.186041 C99.0052394,52.710801 109.934295,63.0034136 122.708658,67.0481958 C128.790305,68.9748022 135.296675,69.5955841 141.588868,70.1969665 C146.766617,70.6916521 152.121032,71.2033122 157.26611,72.4351763 C171.531238,75.8506893 184.949341,85.0496588 195.048311,98.339484 C203.49558,109.454148 209.867636,123.659384 213.984183,140.559929 L214.5408,142.874524 C216.723707,152.016508 218.981636,161.468882 226.118436,166.998934 C234.495523,173.489257 246.76893,171.894866 255.270652,170.129517 C271.846951,166.689755 287.893254,161.032395 302.965477,153.312632 C305.472674,152.029845 308.014962,150.658547 310.474968,149.333323 C321.015602,143.651714 331.914407,137.77611 343.922816,136.510297 C356.10547,135.226297 368.066688,138.824892 379.640694,142.304666 C386.640759,144.409504 393.877991,146.585878 401.111593,147.672247 C407.467919,148.627669 415.613889,147.656485 417.658852,141.777243 C419.812718,135.576699 413.282147,129.732619 411.228714,128.088517 C401.207186,120.062001 388.473965,116.365196 376.159417,112.788426 C371.846844,111.53595 367.389067,110.241037 363.106745,108.777592 C353.119099,105.366929 329.545154,95.1725263 326.367596,74.2441736 C325.566552,68.9723772 326.180041,63.4653627 326.771749,58.1390054 C327.656286,50.1937244 328.491212,42.690993 324.995414,36.0175874 C321.989682,30.2789921 315.782191,25.908057 307.965351,24.0263118 C300.869693,22.3167366 293.444905,22.6756262 286.262124,23.0223911 L286.247604,22.7313996 Z M242.162319,172.9 C236.262177,172.9 230.230142,171.716634 225.377893,167.957993 C217.903493,162.167262 215.595952,152.502706 213.363434,143.157028 L212.808027,140.847283 C208.731411,124.109208 202.431958,110.054318 194.086331,99.0730252 C184.154346,86.0062934 170.979461,76.9649443 156.985381,73.6149045 C151.921376,72.4024398 146.610522,71.8944171 141.473914,71.4045814 C135.118799,70.7971366 128.547087,70.1690799 122.343227,68.2036746 C109.029187,63.987935 98.080771,53.6771354 93.0579066,40.6225283 C91.3336036,36.1436838 91.2525311,32.6990716 92.808639,30.093485 C95.1609513,26.1614621 100.3387,25.5261306 105.094147,25.4230711 L310.316453,21 L310.341864,22.2124647 L305.6687,22.3130992 C306.532667,22.4634449 307.391793,22.6404647 308.24971,22.8465837 C316.40415,24.8107765 322.89842,29.4060176 326.066297,35.4550038 C329.73513,42.4557748 328.839702,50.4968405 327.974526,58.2723765 C327.391288,63.5211361 326.787479,68.9481279 327.564323,74.0610915 C330.641448,94.3335008 353.718067,104.290261 363.496377,107.630601 C367.753288,109.084346 372.197755,110.375621 376.495807,111.623247 C388.924099,115.232754 401.774694,118.965933 411.984988,127.14037 C414.194515,128.910568 421.216361,135.223872 418.801127,142.176144 C416.511737,148.753765 407.747437,149.893482 400.931298,148.871374 C393.612993,147.771669 386.333409,145.58317 379.292203,143.466207 C367.834361,140.020382 355.992937,136.458161 344.05108,137.715487 C332.278628,138.957051 321.485096,144.774456 311.048526,150.400292 C308.58247,151.730366 306.034132,153.102876 303.516044,154.392938 C288.347018,162.161199 272.197862,167.854934 255.517499,171.317733 C251.612709,172.127659 246.929865,172.9 242.162319,172.9 L242.162319,172.9 Z" id="Fill-6" fill="#FFFFFF"></path>
          <path d="M245.607639,8.21413939 C239.825004,8.21413939 234.026633,8.78527776 228.337209,9.34671528 L162.854355,15.8014278 C156.823565,16.3956057 150.588198,17.010398 144.988352,19.5435362 C138.830457,22.331322 134.61181,27.2072189 133.702712,32.5875607 C132.070937,42.2387079 141.080806,50.6893732 150.386042,53.7415076 C155.197842,55.3203233 160.344955,56.0163603 165.321386,56.691783 C170.18766,57.3502291 175.218564,58.0317148 179.991627,59.5353488 C192.048365,63.3320245 202.829219,72.5054042 210.348944,85.3626871 C216.188472,95.3473015 220.204964,107.526737 222.98915,123.692014 C223.164675,124.710605 223.334147,125.731621 223.503619,126.752637 C224.417559,132.266365 225.361761,137.969261 227.349428,143.240468 C229.984721,150.232366 234.305052,155.538739 239.513902,158.179799 C245.456324,161.195555 253.172152,161.257398 262.443493,158.362903 C272.197829,155.319257 281.476433,150.123231 290.451198,145.098184 C303.982344,137.521809 317.974696,129.687148 333.614561,129.340342 C341.56644,129.159664 349.666001,130.965237 357.485933,132.71018 C369.451882,135.37913 380.749627,137.89893 391.698742,133.967654 C393.87525,133.185522 396.566227,131.736456 397.02017,129.280924 C397.667796,125.784976 393.57141,123.188782 389.522235,121.925244 C382.815977,119.832283 375.821617,118.235278 369.058465,116.691628 C358.857448,114.362208 348.309013,111.952756 338.503834,107.791085 C323.507964,101.426106 306.870635,87.9358413 305.144439,69.1598187 C304.847863,65.9257931 305.012493,62.6347749 305.17107,59.4528914 C305.365963,55.5361675 305.566909,51.4872693 304.890231,47.6032858 C303.023615,36.8886813 295.894887,32.5814976 287.642801,27.5940408 C286.70223,27.0253277 285.750765,26.4505515 284.792036,25.8563735 C282.483583,24.4279213 280.607283,22.4913863 278.791509,20.6179069 C277.513204,19.2998019 276.191321,17.9356179 274.744755,16.7812151 C270.371161,13.2913292 264.834262,10.7618288 258.734472,9.46555087 C254.405668,8.54518138 250.011495,8.21413939 245.607639,8.21413939 M249.965496,161.7 C245.84611,161.7 242.170984,160.887553 238.966749,159.262658 C233.487954,156.482148 228.959414,150.945379 226.216385,143.669731 C224.187561,138.285752 223.232464,132.523438 222.30884,126.951504 C222.140578,125.932914 221.972317,124.914323 221.796792,123.898157 C219.038026,107.880818 215.067534,95.8299195 209.304269,85.9762667 C201.937069,73.378482 191.398318,64.397907 179.629683,60.6921768 C174.954671,59.2200707 169.974609,58.544648 165.159177,57.8922649 C160.128273,57.2107792 154.926687,56.5062539 150.008361,54.8934853 C140.223761,51.6849244 130.76479,42.7043494 132.509144,32.3850551 C133.48603,26.6057653 137.964939,21.3927634 144.489619,18.4388502 C150.272253,15.8232547 156.608093,15.1987616 162.735724,14.5948828 L228.218578,8.13895769 C238.332438,7.14219389 248.787664,6.11147707 258.98626,8.27962022 C265.268837,9.61470165 270.97884,12.2266593 275.498906,15.8329556 C277.005998,17.0346502 278.354513,18.4267242 279.659449,19.7727191 C281.505486,21.6777263 283.248629,23.4748114 285.427557,24.8256567 C286.382654,25.4161968 287.330488,25.9897604 288.268638,26.5560484 C296.420251,31.4816621 304.120343,36.1356517 306.081378,47.3947172 C306.783477,51.4120876 306.57769,55.5301045 306.379165,59.5135218 C306.223009,62.652964 306.060799,65.9003283 306.350113,69.0482587 C308.026677,87.2919464 324.302063,100.447531 338.975936,106.674273 C348.683062,110.794715 359.178234,113.190829 369.32841,115.508123 C376.113351,117.059048 383.130711,118.660903 389.881758,120.767204 C394.427245,122.185955 399.001785,125.224751 398.210107,129.501619 C397.768269,131.894095 395.65834,133.833055 392.107897,135.108719 C380.830731,139.160042 368.828467,136.483816 357.224462,133.894898 C349.473529,132.165719 341.490177,130.374697 333.639982,130.55295 C318.301536,130.892481 305.060913,138.306366 291.041929,146.15679 C282.013902,151.212153 272.678404,156.439706 262.804227,159.520943 C258.146162,160.973648 253.857304,161.7 249.965496,161.7" id="Fill-8" fill="#FFFFFF"></path>
          <path d="M185.058693,51.5190454 C186.091373,51.5190454 187.130113,51.5335397 188.160369,51.5806461 C207.513422,52.4792921 225.602291,66.5544562 231.170521,85.0479632 C232.894078,90.7744159 233.503747,96.8076644 234.094023,102.642824 C234.587334,107.537063 235.098826,112.599194 236.267257,117.427001 C238.75684,127.713116 246.034082,138.505323 256.682079,139.426918 C264.587172,140.112981 271.180809,135.483263 278.159884,130.582985 C284.082037,126.425539 290.206605,122.126774 297.292341,121.264364 C298.659551,121.09768 300.105545,121.043326 301.503057,120.99018 C305.673775,120.830743 309.611777,120.682177 312.071058,117.883571 C314.674575,114.919488 313.993394,110.31272 312.256504,107.287036 C310.55234,104.316915 307.832464,101.991789 305.202282,99.7427582 L304.067788,98.769225 C293.98825,90.035207 288.571528,81.0632411 287.969131,72.1021459 C287.79823,69.5596058 288.016402,66.9832456 288.227301,64.4914355 C288.507289,61.1710351 288.796972,57.7370961 288.13276,54.473465 C286.949784,48.6467601 282.676041,43.0966547 275.430312,37.9777543 C273.452221,36.5802631 271.357771,35.2540356 269.331197,33.970083 C265.282898,31.4045935 261.093999,28.7521383 257.563251,25.3689293 C255.171846,23.0776236 253.068912,20.4396627 251.036277,17.8886675 C248.014598,14.0972026 244.889892,10.1777049 240.841593,7.48418253 C233.246789,2.43292225 223.172099,2.21067646 215.0755,2.03191354 C204.306296,1.79275774 192.098371,1.52219765 181.176447,5.11315816 C174.361001,7.35373392 173.247113,11.2756474 171.83748,16.2411498 C170.997519,19.1979851 170.046047,22.5497898 167.704336,25.9450774 C164.174801,31.0627698 160.17256,36.8629018 161.934904,42.6219666 C163.431805,47.5149976 168.637627,50.1517506 173.01076,50.9887959 C176.209401,51.6011797 179.557127,51.5673597 182.799403,51.5347475 C183.544823,51.5262925 184.29994,51.5190454 185.058693,51.5190454 M258.205646,140.7 C257.667489,140.7 257.125696,140.677051 256.57663,140.629944 C245.329872,139.656411 237.680525,128.417297 235.089129,117.709639 C233.901305,112.802114 233.386177,107.698916 232.888018,102.76361 C232.303802,96.9852194 231.700193,91.0099481 230.009362,85.3946183 C224.584156,67.3770072 206.959508,53.6629925 188.103402,52.7872958 C186.350755,52.7063693 184.550837,52.7244872 182.811523,52.7426051 C179.51228,52.7776329 176.100315,52.8102451 172.782892,52.1761199 C168.063108,51.2714346 162.429426,48.3798236 160.774957,42.974661 C158.842924,36.6587739 163.202724,30.3392632 166.705594,25.26143 C168.934583,22.0292032 169.816967,18.9201779 170.671473,15.9126125 C172.119892,10.8118301 173.370743,6.4067736 180.79707,3.96569348 C191.916561,0.310716523 204.235997,0.584900188 215.103378,0.824055983 C223.356333,1.00644247 233.627378,1.23351969 241.514289,6.47924505 C245.721369,9.277851 248.905466,13.2734438 251.985325,17.1373801 C253.993718,19.656971 256.069986,22.2623197 258.403213,24.498064 C261.847904,27.7979309 265.983472,30.4177739 269.982076,32.9518591 C272.020771,34.2418509 274.127341,35.5777414 276.130886,36.9933504 C283.637209,42.2946372 288.074581,48.0947692 289.321797,54.2343092 C290.018735,57.6670403 289.721778,61.1879451 289.434519,64.5928955 C289.227256,67.0400149 289.013932,69.5704765 289.178773,72.0224273 C289.75814,80.6501539 295.035474,89.3418968 304.862903,97.8572926 L305.991336,98.8259943 C308.699091,101.141457 311.500175,103.535431 313.307365,106.687939 C315.251518,110.073564 315.977546,115.269767 312.981319,118.680757 C310.180235,121.869501 305.792558,122.034977 301.549116,122.19683 C300.175845,122.248768 298.755304,122.303122 297.439001,122.462559 C290.655069,123.288733 284.657768,127.499325 278.858034,131.571013 C272.458327,136.064243 265.854993,140.7 258.205646,140.7" id="Fill-10" fill="#FFFFFF"></path>
      </g>
  </g>
</svg>
