
<svg width="120px" height="70px" viewBox="0 0 120 70" version="1.1" xmlns="http://www.w3.org/2000/svg" xmlns:xlink="http://www.w3.org/1999/xlink">
  <defs>
      <polygon id="path-sj3sj6oaq5-1" points="0 70 120 70 120 0 0 0"></polygon>
  </defs>
  <g id="Landingspage" stroke="none" stroke-width="1" fill="none" fill-rule="evenodd">
      <g id="Fundermaps" transform="translate(-1040.000000, -2577.000000)">
          <g id="Referenties" transform="translate(108.000000, 2109.000000)">
              <g id="wetland" transform="translate(932.000000, 284.000000)">
                  <g id="Group-23" transform="translate(0.000000, 184.000000)">
                      <path d="M73.3690554,17.9524995 L46.6321991,17.9524995 C43.6600435,17.9524995 41.2273023,20.3792377 41.2273023,23.3449531 L41.2273023,50.0158335 C41.2273023,52.980655 43.6600435,55.4073932 46.6321991,55.4073932 L48.2844918,55.4073932 L48.2844918,53.3971781 C48.2844918,48.0145566 50.5568424,44.0280917 53.2933402,43.6088872 L56.4778567,43.1440976 L56.4778567,41.7783311 C54.3327434,40.554683 52.8838512,38.255762 52.8838512,35.6153993 C52.8838512,31.6950776 56.0701597,28.5166316 60.0010752,28.5166316 C63.9301987,28.5166316 67.1165072,31.6950776 67.1165072,35.6153993 C67.1165072,38.255762 65.667615,40.554683 63.5225017,41.7783311 L63.5225017,43.1530358 L66.7070182,43.6088872 C69.7607132,44.0280917 71.7167626,48.0145566 71.7167626,53.3971781 L71.7167626,55.4073932 L73.3690554,55.4073932 C76.341211,55.4073932 78.7739522,52.980655 78.7739522,50.0158335 L78.7739522,23.3449531 C78.7739522,20.3792377 76.341211,17.9524995 73.3690554,17.9524995" id="Fill-1" fill="#FFFFFF"></path>
                      <path d="M114.593938,17.9524995 L87.8570821,17.9524995 C84.8831343,17.9524995 82.4521852,20.3792377 82.4521852,23.3449531 L82.4521852,50.0158335 C82.4521852,52.980655 84.8831343,55.4073932 87.8570821,55.4073932 L100.35949,55.4073932 L100.35949,49.8290238 C99.4123788,50.476154 98.2699312,50.856924 97.0333998,50.856924 C93.76824,50.856924 91.1222419,48.2165613 91.1222419,44.9585648 C91.1222419,44.2006001 91.269192,43.4783886 91.5317309,42.812488 C89.5299836,41.8668199 88.143814,39.839622 88.143814,37.48439 C88.143814,34.2272872 90.7907081,31.5869246 94.0558679,31.5869246 C94.5701933,31.5869246 95.067494,31.6593245 95.5441858,31.7826725 C95.5414977,31.7209985 95.5352255,31.6611122 95.5352255,31.5994382 C95.5352255,28.3414416 98.1812235,25.7019728 101.446383,25.7019728 C104.591474,25.7019728 107.155037,28.1510566 107.341413,31.2419077 C107.683699,31.1793398 108.035841,31.142693 108.396048,31.142693 C111.663,31.142693 114.308998,33.7821618 114.308998,37.0401583 C114.308998,38.9529464 113.393248,40.6476409 111.977509,41.7255954 C112.446137,42.5702611 112.714948,43.5409564 112.714948,44.5742195 C112.714948,47.8331099 110.068054,50.4725787 106.80379,50.4725787 C105.774243,50.4725787 104.810107,50.2071123 103.966936,49.745898 L103.966936,55.4073932 L114.593938,55.4073932 C117.56699,55.4073932 119.999731,52.980655 119.999731,50.0158335 L119.999731,23.3449531 C119.999731,20.3792377 117.56699,17.9524995 114.593938,17.9524995 M101.957125,48.2103045 L102.157837,48.2103045 C102.121995,48.1638256 102.085258,48.1191343 102.049416,48.0717615 C102.019847,48.1191343 101.98759,48.1638256 101.957125,48.2103045" id="Fill-3" fill="#FFFFFF"></path>
                      <path d="M32.1417531,17.9524995 L5.40579288,17.9524995 C2.4327412,17.9524995 0,20.3792377 0,23.3449531 L0,50.0158335 C0,52.980655 2.4327412,55.4073932 5.40579288,55.4073932 L5.5312381,55.4073932 L5.5312381,40.873779 L18.773773,28.4397625 L32.0154118,40.873779 L32.0154118,55.4073932 L32.1417531,55.4073932 C35.1148048,55.4073932 37.5466499,52.980655 37.5466499,50.0158335 L37.5466499,23.3449531 C37.5466499,20.3792377 35.1148048,17.9524995 32.1417531,17.9524995" id="Fill-5" fill="#FFFFFF"></path>
                      <polygon id="Fill-7" fill="#FFFFFF" points="33.7150153 3.99620762 30.4928653 14.3467152 26.9714388 14.3467152 24.8352859 7.36950776 22.7331825 14.3467152 19.1678502 14.3467152 15.9734773 3.99620762 19.4608544 3.99620762 21.2475527 11.1298346 23.4733093 3.99620762 26.4275442 3.99620762 28.5520486 11.1298346 30.3091777 3.99620762"></polygon>
                      <path d="M42.6686678,7.83072208 C42.649851,7.13711294 42.4769158,6.61511843 42.1489662,6.26473856 C41.8201205,5.91435868 41.3093793,5.73916874 40.6158464,5.73916874 C39.9724917,5.73916874 39.4429336,5.90542042 39.0280684,6.23702994 C38.6132031,6.56863947 38.3811295,7.09957224 38.3318474,7.83072208 L42.6686678,7.83072208 Z M46.0019265,9.78820149 L38.3408078,9.78820149 C38.3900898,10.6042648 38.7019108,11.2281555 39.2753747,11.6598736 C39.8497345,12.0924855 40.6946977,12.3087914 41.8120562,12.3087914 C42.5190296,12.3087914 43.2044981,12.1809743 43.8684617,11.92534 C44.5324253,11.6697057 45.0566072,11.395301 45.4419032,11.102126 L45.8137587,11.102126 L45.8137587,13.7594714 C45.0601913,14.059797 44.3505298,14.2778906 43.683878,14.4128583 C43.0172263,14.5478261 42.2788916,14.6148631 41.470666,14.6148631 C39.3837952,14.6148631 37.7852647,14.1482858 36.6741784,13.2151312 C35.5630922,12.2819766 35.0075491,10.9528571 35.0075491,9.22777246 C35.0075491,7.52056439 35.533523,6.16820532 36.5854708,5.17069527 C37.6365225,4.17318521 39.0791425,3.67443019 40.9115387,3.67443019 C42.6023611,3.67443019 43.8729419,4.10078529 44.7241773,4.95170785 C45.5763088,5.80352423 46.0019265,7.02806614 46.0019265,8.62622741 L46.0019265,9.78820149 Z" id="Fill-9" fill="#FFFFFF"></path>
                      <path d="M55.466589,14.2658239 C55.1090701,14.357888 54.7291503,14.4302879 54.3277256,14.4830237 C53.927197,14.5348656 53.4361685,14.5607866 52.8564324,14.5607866 C51.5607625,14.5607866 50.5966264,14.2997893 49.9640241,13.776901 C49.3314218,13.2540126 49.0151206,12.3592926 49.0151206,11.091847 L49.0151206,6.24820277 L47.6441836,6.24820277 L47.6441836,3.99576071 L49.0151206,3.99576071 L49.0151206,1.0461342 L52.3483793,1.0461342 L52.3483793,3.99576071 L55.466589,3.99576071 L55.466589,6.24820277 L52.3483793,6.24820277 L52.3483793,9.92540382 C52.3483793,10.2891911 52.3510674,10.6056056 52.3573397,10.8773287 C52.3636119,11.1481581 52.412894,11.3912788 52.5060819,11.6066909 C52.5921014,11.822103 52.7444278,11.9928239 52.9639569,12.1197472 C53.18259,12.2457767 53.5015793,12.3083445 53.9209247,12.3083445 C54.0938599,12.3083445 54.3205573,12.2708038 54.601017,12.1948286 C54.8823727,12.1197472 55.0786049,12.0500287 55.1888175,11.9865671 L55.466589,11.9865671 L55.466589,14.2658239 Z" id="Fill-11" fill="#FFFFFF"></path>
                      <mask id="mask-sj3sj6oaq5-2" fill="white">
                          <use xlink:href="#path-sj3sj6oaq5-1"></use>
                      </mask>
                      <g id="Clip-14"></g>
                      <polygon id="Fill-13" fill="#FFFFFF" mask="url(#mask-sj3sj6oaq5-2)" points="57.8947604 14.3468046 61.2280191 14.3468046 61.2280191 0.000893826215 57.8947604 0.000893826215"></polygon>
                      <path d="M71.1260948,11.6312711 L71.1260948,9.49323884 C70.6789722,9.52988572 70.1951121,9.57993999 69.6745145,9.64429547 C69.1539168,9.70775713 68.7596604,9.78283854 68.4899532,9.86775203 C68.1593154,9.97143587 67.9066329,10.1224925 67.7319056,10.3200281 C67.5571784,10.5175637 67.4702628,10.7785609 67.4702628,11.1012322 C67.4702628,11.3148567 67.4881835,11.488259 67.524921,11.6223329 C67.5616586,11.7564068 67.6539504,11.884224 67.8009005,12.0057843 C67.9415784,12.1282385 68.1100334,12.2176211 68.3062655,12.2757198 C68.5024977,12.3338186 68.8080464,12.362421 69.2247037,12.362421 C69.5553415,12.362421 69.8904594,12.295384 70.2300576,12.1613101 C70.5696557,12.0272362 70.8689321,11.8511524 71.1260948,11.6312711 L71.1260948,11.6312711 Z M71.1260948,13.2499904 C70.9477834,13.3849582 70.7264622,13.5476346 70.4621312,13.7380195 C70.1978002,13.9292983 69.9495979,14.0794612 69.7157322,14.1902956 C69.3895746,14.3359893 69.0517686,14.4432484 68.701418,14.512073 C68.3519634,14.5800038 67.9666674,14.6148631 67.549114,14.6148631 C66.5661612,14.6148631 65.7427029,14.3109621 65.0787393,13.7022665 C64.4156717,13.0935708 64.0832419,12.3168359 64.0832419,11.3702739 C64.0832419,10.6140969 64.2525929,9.996463 64.590399,9.51737215 C64.928205,9.0382813 65.407585,8.66019281 66.0285388,8.38400051 C66.6432204,8.10691438 67.404852,7.91027262 68.3143299,7.79407521 C69.2238077,7.67698397 70.167335,7.59117666 71.1449116,7.53575943 L71.1449116,7.47855456 C71.1449116,6.89220456 70.9110459,6.48730128 70.4451065,6.2629509 C69.9791671,6.03949435 69.2919065,5.92687225 68.3842208,5.92687225 C67.837638,5.92687225 67.2552138,6.02161783 66.635156,6.21200281 C66.0150982,6.40238779 65.5706637,6.54897529 65.3009565,6.65087148 L64.9971999,6.65087148 L64.9971999,4.18391113 C65.3475505,4.09363468 65.9183262,3.98548171 66.707735,3.86123986 C67.4980399,3.73699802 68.2892408,3.67443019 69.0831299,3.67443019 C70.9710804,3.67443019 72.3339531,3.96581753 73.17354,4.5476984 C74.0122309,5.12957926 74.4324724,6.04306965 74.4324724,7.28727575 L74.4324724,14.3467152 L71.1260948,14.3467152 L71.1260948,13.2499904 Z" id="Fill-15" fill="#FFFFFF" mask="url(#mask-sj3sj6oaq5-2)"></path>
                      <path d="M88.4069801,14.3467152 L85.0737215,14.3467152 L85.0737215,9.20632063 C85.0737215,8.78890379 85.0513205,8.37148694 85.0083107,7.95675158 C84.9644049,7.54112239 84.8900338,7.23454 84.7834054,7.03789823 C84.6597522,6.81086637 84.4769606,6.6446147 84.2377187,6.54003703 C83.9984767,6.43545936 83.6633588,6.38272362 83.2341569,6.38272362 C82.9295043,6.38272362 82.6194754,6.43188406 82.3049663,6.53020494 C81.9904572,6.62941965 81.6508591,6.78583924 81.2834838,7.00125136 L81.2834838,14.3467152 L77.9502251,14.3467152 L77.9502251,3.99620762 L81.2834838,3.99620762 L81.2834838,5.13136692 C81.8766605,4.67015259 82.4465402,4.31709123 82.994915,4.0703952 C83.5414977,3.82459299 84.149011,3.70124497 84.8174548,3.70124497 C85.9419816,3.70124497 86.8218902,4.02749154 87.4562846,4.67909085 C88.0897829,5.33069016 88.4069801,6.30585456 88.4069801,7.6027964 L88.4069801,14.3467152 Z" id="Fill-16" fill="#FFFFFF" mask="url(#mask-sj3sj6oaq5-2)"></path>
                      <path d="M98.5568424,11.5001468 L98.5568424,6.39282385 C98.3220806,6.29360914 98.0747743,6.22299687 97.8149235,6.17919939 C97.5559687,6.13629573 97.3185189,6.1148439 97.1025739,6.1148439 C96.2253534,6.1148439 95.567662,6.38835472 95.1286037,6.93537636 C94.6904415,7.48239801 94.4709124,8.24036264 94.4709124,9.21016408 C94.4709124,10.2300198 94.6465357,10.9701079 94.9986783,11.4304284 C95.350821,11.8907489 95.9162205,12.1213561 96.6948769,12.1213561 C96.9977375,12.1213561 97.3185189,12.0641512 97.658117,11.9497414 C97.9977151,11.8353317 98.2978876,11.6851689 98.5568424,11.5001468 L98.5568424,11.5001468 Z M101.890101,14.3469833 L98.5568424,14.3469833 L98.5568424,13.2681351 C97.9824825,13.7356062 97.4448601,14.0806231 96.9439753,14.3049735 C96.4430904,14.5293239 95.8660424,14.641946 95.2101431,14.641946 C93.9440425,14.641946 92.9306243,14.1557045 92.1698887,13.1832216 C91.4100491,12.2107387 91.0301293,10.8994956 91.0301293,9.24949243 C91.0301293,8.36996744 91.1582626,7.58965715 91.4154253,6.9094554 C91.6716919,6.22925366 92.0211465,5.64647896 92.466477,5.1602375 C92.8867185,4.69812935 93.3965637,4.34059886 93.9969087,4.08496457 C94.5954616,3.82933027 95.1949105,3.70151312 95.7943594,3.70151312 C96.4180014,3.70151312 96.9296387,3.76765626 97.3283753,3.89904871 C97.7271118,4.03222882 98.1366009,4.19937432 98.5568424,4.40137905 L98.5568424,0.000178765243 L101.890101,0.000178765243 L101.890101,14.3469833 Z" id="Fill-17" fill="#FFFFFF" mask="url(#mask-sj3sj6oaq5-2)"></path>
                      <polygon id="Fill-18" fill="#FFFFFF" mask="url(#mask-sj3sj6oaq5-2)" points="41.4325844 59.327715 38.2104344 69.6782226 34.6890079 69.6782226 32.552855 62.7010151 30.4507516 69.6782226 26.8854192 69.6782226 23.6910463 59.327715 27.1784234 59.327715 28.9651217 66.461342 31.1908783 59.327715 34.1451132 59.327715 36.2696176 66.461342 38.0267467 59.327715"></polygon>
                      <path d="M50.384176,67.0289217 C50.600121,66.7643491 50.7623037,66.446147 50.8707242,66.0734214 C50.9791447,65.7006959 51.033803,65.1849582 51.033803,64.5262083 C51.033803,63.9166188 50.9773527,63.4053502 50.866244,62.9932963 C50.7551354,62.5803486 50.600121,62.2505267 50.4029928,62.0047245 C50.2049685,61.7517717 49.9666226,61.5739003 49.6888511,61.4693226 C49.4101835,61.3647449 49.110011,61.3120092 48.7892296,61.3120092 C48.4675523,61.3120092 48.1808203,61.3549129 47.9308259,61.4407202 C47.6808315,61.5274213 47.4406935,61.6999298 47.212204,61.9582455 C47.0079075,62.1986848 46.8457248,62.5285067 46.7247598,62.9468173 C46.6046908,63.3660218 46.5446563,63.8915916 46.5446563,64.5262083 C46.5446563,65.0920003 46.5966264,65.5836047 46.7023588,65.9992339 C46.8071952,66.4148631 46.9622096,66.7491541 47.1665061,67.001213 C47.3636343,67.2416523 47.5992921,67.4168422 47.8752716,67.5276767 C48.1503551,67.6385111 48.4639681,67.6939284 48.8170068,67.6939284 C49.1198674,67.6939284 49.4083914,67.6429803 49.6843709,67.5419779 C49.9594543,67.4400817 50.192424,67.2693609 50.384176,67.0289217 M54.4745861,64.5074379 C54.4745861,66.209283 53.9763894,67.5509162 52.980892,68.5305497 C51.9853946,69.5101832 50.5884725,70 48.7892296,70 C46.9890907,70 45.5921686,69.5101832 44.5966712,68.5305497 C43.6011738,67.5509162 43.1038731,66.209283 43.1038731,64.5074379 C43.1038731,62.7930792 43.6038619,61.4478708 44.6056316,60.4709187 C45.6074013,59.4939667 47.0016353,59.0059376 48.7892296,59.0059376 C50.601017,59.0059376 52.0015233,59.497542 52.9907484,60.479857 C53.9790775,61.4630658 54.4745861,62.8055928 54.4745861,64.5074379" id="Fill-19" fill="#FFFFFF" mask="url(#mask-sj3sj6oaq5-2)"></path>
                      <path d="M67.7782308,69.6782226 L64.4449721,69.6782226 L64.4449721,64.537828 C64.4449721,64.1204112 64.4225712,63.7029943 64.3795614,63.2873651 C64.3356556,62.8726298 64.2612845,62.5669412 64.1555521,62.3694056 C64.0310029,62.1414799 63.8482113,61.9761221 63.6089693,61.8706506 C63.3697274,61.7660729 63.0355055,61.714231 62.6054076,61.714231 C62.3007549,61.714231 61.990726,61.7633914 61.6762169,61.8617123 C61.3626039,61.960927 61.0221097,62.1173466 60.6547344,62.3327587 L60.6547344,69.6782226 L57.3214758,69.6782226 L57.3214758,59.327715 L60.6547344,59.327715 L60.6547344,60.4628743 C61.2479111,60.00166 61.8186869,59.6485986 62.3661656,59.4019026 C62.9127484,59.1561004 63.5211577,59.0327523 64.1887055,59.0327523 C65.3141283,59.0327523 66.1931408,59.3589989 66.8275352,60.0105982 C67.4610336,60.6621975 67.7782308,61.6373619 67.7782308,62.9343038 L67.7782308,69.6782226 Z" id="Fill-20" fill="#FFFFFF" mask="url(#mask-sj3sj6oaq5-2)"></path>
                      <path d="M78.1844493,63.1620507 C78.1656325,62.4684416 77.9926973,61.946447 77.6647477,61.5960672 C77.335902,61.2456873 76.8251607,61.0704974 76.1316279,61.0704974 C75.4882731,61.0704974 74.9587151,61.236749 74.5438498,61.5683586 C74.1289846,61.8999681 73.8969109,62.4317947 73.8476289,63.1620507 L78.1844493,63.1620507 Z M81.5177079,65.1195301 L73.8565892,65.1195301 C73.9058713,65.9355934 74.2176923,66.5594841 74.7920521,66.9912022 C75.365516,67.4238141 76.2104792,67.64012 77.3278376,67.64012 C78.034811,67.64012 78.7202796,67.5123029 79.3842432,67.2566686 C80.0482068,67.0010343 80.5723886,66.7266296 80.9576846,66.4334546 L81.3295401,66.4334546 L81.3295401,69.0916938 C80.5759728,69.3920194 79.8663112,69.6092192 79.1996595,69.7441869 C78.5330078,69.8782609 77.7955691,69.9461917 76.9864474,69.9461917 C74.8995766,69.9461917 73.3019422,69.4796144 72.1899599,68.5464598 C71.0788737,67.6133052 70.5233306,66.2841857 70.5233306,64.5591011 C70.5233306,62.851893 71.0493045,61.4995339 72.1012522,60.5020239 C73.1523039,59.5045138 74.5949239,59.0057588 76.4273202,59.0057588 C78.1181425,59.0057588 79.3887234,59.4321139 80.2408548,60.2830365 C81.0920902,61.1348528 81.5177079,62.3593948 81.5177079,63.957556 L81.5177079,65.1195301 Z" id="Fill-21" fill="#FFFFFF" mask="url(#mask-sj3sj6oaq5-2)"></path>
                      <path d="M94.772877,69.6782226 L91.4396183,69.6782226 L91.4396183,64.537828 C91.4396183,64.1204112 91.4172174,63.7029943 91.3742076,63.2873651 C91.3303017,62.8726298 91.2568267,62.5669412 91.1501982,62.3694056 C91.0256491,62.1414799 90.8428575,61.9761221 90.6036155,61.8706506 C90.3643736,61.7660729 90.0301517,61.714231 89.6000538,61.714231 C89.2954011,61.714231 88.9853722,61.7633914 88.6717591,61.8617123 C88.3572501,61.960927 88.0167559,62.1173466 87.6493806,62.3327587 L87.6493806,69.6782226 L84.316122,69.6782226 L84.316122,59.327715 L87.6493806,59.327715 L87.6493806,60.4628743 C88.2434533,60.00166 88.813333,59.6485986 89.3608118,59.4019026 C89.9082906,59.1561004 90.5149078,59.0327523 91.1833516,59.0327523 C92.3087744,59.0327523 93.188683,59.3589989 93.8221814,60.0105982 C94.4556798,60.6621975 94.772877,61.6373619 94.772877,62.9343038 L94.772877,69.6782226 Z" id="Fill-22" fill="#FFFFFF" mask="url(#mask-sj3sj6oaq5-2)"></path>
                  </g>
              </g>
          </g>
      </g>
  </g>
</svg>
