
<svg width="161px" height="44px" viewBox="0 0 161 44" version="1.1" xmlns="http://www.w3.org/2000/svg" xmlns:xlink="http://www.w3.org/1999/xlink">
  <defs>
      <polygon id="path-hrf1im9szv-1" points="0 0 151.468691 0 151.468691 44 0 44"></polygon>
  </defs>
  <g id="Landingspage" stroke="none" stroke-width="1" fill="none" fill-rule="evenodd">
      <g id="Fundermaps" transform="translate(-744.000000, -2441.000000)">
          <g id="Referenties" transform="translate(108.000000, 2109.000000)">
              <g id="woonstad" transform="translate(606.000000, 284.000000)">
                  <g id="Group-6" transform="translate(30.000000, 48.000000)">
                      <path d="M153.652628,18.0715901 C153.652628,20.1044979 155.296718,21.7519741 157.325624,21.7519741 C159.357289,21.7519741 161,20.1044979 161,18.0715901 C161,16.0414652 159.357289,14.3925975 157.325624,14.3925975 C155.296718,14.3925975 153.652628,16.0414652 153.652628,18.0715901" id="Fill-1" fill="#FFFFFF"></path>
                      <g id="Group-5">
                          <mask id="mask-hrf1im9szv-2" fill="white">
                              <use xlink:href="#path-hrf1im9szv-1"></use>
                          </mask>
                          <g id="Clip-4"></g>
                          <path d="M130.840327,43.7175357 L130.840327,29.9421853 L132.972678,29.9421853 L132.972678,32.3187811 C133.731277,30.8201899 135.442951,29.659721 137.351861,29.659721 C139.540763,29.659721 141.084166,30.6212126 141.729665,32.5734164 C142.711705,30.5655547 144.845436,29.659721 146.44401,29.659721 C149.728052,29.659721 151.468691,31.5827043 151.468691,35.3730128 L151.468691,43.7175357 L149.307375,43.7175357 L149.307375,35.6568685 C149.307375,33.3081017 148.493606,31.7524611 145.995747,31.7524611 C143.693745,31.7524611 142.234478,33.6197864 142.234478,35.6846975 L142.234478,43.7175357 L140.073161,43.7175357 L140.073161,35.6568685 C140.073161,33.3081017 139.259392,31.7524611 136.790498,31.7524611 C134.404361,31.7524611 132.972678,33.7895433 132.972678,35.7974049 L132.972678,43.7175357 L130.840327,43.7175357 Z M122.077823,41.9072599 C124.687403,41.9072599 126.736998,39.7296414 126.736998,36.843775 C126.736998,33.9593001 124.687403,31.7524611 122.077823,31.7524611 C119.355144,31.7524611 117.334513,33.9022507 117.334513,36.843775 C117.334513,39.7574703 119.355144,41.9072599 122.077823,41.9072599 L122.077823,41.9072599 Z M121.600596,44 C117.811741,44 115.145612,40.8330608 115.145612,36.843775 C115.145612,32.8002226 117.811741,29.659721 121.600596,29.659721 C123.789498,29.659721 125.725993,30.5655547 126.736998,32.3466101 L126.736998,29.9421853 L128.86935,29.9421853 L128.86935,43.7175357 L126.736998,43.7175357 L126.736998,41.3131109 C125.725993,43.1233868 123.789498,44 121.600596,44 L121.600596,44 Z M106.944471,41.9072599 C109.55405,41.9072599 111.603646,39.7296414 111.603646,36.843775 C111.603646,33.9593001 109.55405,31.7524611 106.944471,31.7524611 C104.221792,31.7524611 102.201161,33.9022507 102.201161,36.843775 C102.201161,39.7574703 104.221792,41.9072599 106.944471,41.9072599 L106.944471,41.9072599 Z M106.467244,44 C102.678388,44 100.012259,40.8330608 100.012259,36.843775 C100.012259,32.8002226 102.678388,29.659721 106.467244,29.659721 C108.656145,29.659721 110.592641,30.5655547 111.603646,32.3466101 L111.603646,25.1055067 L113.735997,25.1055067 L113.735997,43.7175357 L111.687781,43.7175357 L111.687781,41.3131109 C110.676776,43.1233868 108.68511,44 106.467244,44 L106.467244,44 Z M92.5973028,43.7175357 L92.5973028,29.9421853 L94.7296545,29.9421853 L94.7296545,32.8558806 C95.5158385,31.0456048 97.2840628,29.659721 100.006742,29.659721 L100.006742,32.0070964 C96.8068354,32.0070964 94.7296545,33.8173722 94.7296545,37.1832887 L94.7296545,43.7175357 L92.5973028,43.7175357 Z M79.9893942,35.9671618 L89.0829224,35.9671618 C88.8581014,33.4222006 86.9216061,31.5827043 84.5354687,31.5827043 C82.2058813,31.5827043 80.2983507,33.3929801 79.9893942,35.9671618 L79.9893942,35.9671618 Z M84.9285607,44 C81.05557,44 77.772907,41.2004035 77.772907,36.843775 C77.772907,32.8558806 80.7466135,29.659721 84.6485688,29.659721 C88.2967384,29.659721 91.1876887,32.8280516 91.1876887,36.7588966 C91.1876887,37.1554597 91.1311386,37.5798518 91.1311386,37.6076808 L79.9893942,37.6076808 C80.3259361,40.3516193 82.4307024,42.0770167 84.9575253,42.0770167 C86.5009287,42.0770167 88.044332,41.5399172 89.1670579,40.6062546 L90.0925482,42.1897241 C88.6332803,43.3501931 86.8098852,44 84.9285607,44 L84.9285607,44 Z M74.454383,44 C72.0406602,44 70.6089778,42.8130935 70.6089778,39.5877135 L70.6089778,31.7246321 L68.5607616,31.7246321 L68.5607616,29.9421853 L70.6089778,29.9421853 L70.6089778,26.9728319 L72.7427087,26.5776603 L72.7427087,29.9421853 L77.4005041,29.9421853 L77.4005041,31.7246321 L72.7427087,31.7246321 L72.7427087,39.6447629 C72.7427087,41.5399172 73.5564781,42.0770167 74.6502394,42.0770167 C75.9136508,42.0770167 76.8956912,41.3131109 76.8956912,41.3131109 L77.5977397,42.9814589 C77.0639622,43.3501931 75.9412362,44 74.454383,44 L74.454383,44 Z M65.8325652,44 C63.4188424,44 61.9871599,42.8130935 61.9871599,39.5877135 L61.9871599,31.7246321 L59.9389437,31.7246321 L59.9389437,29.9421853 L61.9871599,29.9421853 L61.9871599,26.9728319 L64.1195116,26.5776603 L64.1195116,29.9421853 L68.5621408,29.9421853 L68.5621408,31.7246321 L64.1195116,31.7246321 L64.1195116,39.6447629 C64.1195116,41.5399172 64.9346603,42.0770167 66.0284215,42.0770167 C67.291833,42.0770167 68.2738734,41.3131109 68.2738734,41.3131109 L68.9759219,42.9814589 C68.4421443,43.3501931 67.3194184,44 65.8325652,44 L65.8325652,44 Z M52.6632936,41.9072599 C55.4976938,41.9072599 57.6590101,39.7296414 57.6590101,36.843775 C57.6590101,33.9314711 55.4976938,31.7524611 52.6632936,31.7524611 C49.8288934,31.7524611 47.667577,33.9314711 47.667577,36.843775 C47.667577,39.7296414 49.8288934,41.9072599 52.6632936,41.9072599 L52.6632936,41.9072599 Z M52.6632936,44 C48.6496174,44 45.4786753,40.8330608 45.4786753,36.843775 C45.4786753,32.8280516 48.6496174,29.659721 52.6632936,29.659721 C56.6769698,29.659721 59.8479119,32.8280516 59.8479119,36.843775 C59.8479119,40.8330608 56.6769698,44 52.6632936,44 L52.6632936,44 Z M38.0637189,43.7175357 L38.0637189,29.9421853 L40.1960705,29.9421853 L40.1960705,32.8558806 C40.9822545,31.0456048 42.7504789,29.659721 45.4717789,29.659721 L45.4717789,32.0070964 C42.2732514,32.0070964 40.1960705,33.8173722 40.1960705,37.1832887 L40.1960705,43.7175357 L38.0637189,43.7175357 Z M139.842823,13.443768 C139.842823,14.4678749 140.099367,15.3083104 140.613835,15.9636832 C141.128303,16.6190559 141.788973,16.9488294 142.595846,16.9488294 C143.40134,16.9488294 144.060631,16.6190559 144.576478,15.9636832 C145.090946,15.3083104 145.34887,14.4678749 145.34887,13.443768 C145.34887,12.4224441 145.090946,11.5764428 144.576478,10.9099384 C144.060631,10.2420426 143.40134,9.90809476 142.595846,9.90809476 C141.788973,9.90809476 141.128303,10.2420426 140.613835,10.9099384 C140.099367,11.5764428 139.842823,12.4224441 139.842823,13.443768 L139.842823,13.443768 Z M151.427313,-0.000417434863 L151.427313,21.9510905 L145.65093,21.9510905 L145.65093,20.0503705 C145.270251,20.850454 144.633028,21.4237312 143.737882,21.7688107 C142.841357,22.1138901 141.957244,22.2864299 141.084166,22.2864299 C138.755958,22.2864299 136.932563,21.4515602 135.612602,19.7832122 C134.289881,18.1162556 133.63059,16.0040352 133.63059,13.443768 C133.63059,10.8862838 134.313329,8.76849758 135.678807,7.08901798 C137.044284,5.40953839 138.913195,4.57049431 141.28554,4.57049431 C143.053764,4.57049431 144.398553,5.16046892 145.314388,6.33902668 L145.314388,-0.000417434863 L151.427313,-0.000417434863 Z M120.166155,13.443768 C120.166155,14.4678749 120.422699,15.3083104 120.937167,15.9636832 C121.453014,16.6190559 122.113684,16.9488294 122.919178,16.9488294 C123.724672,16.9488294 124.385342,16.6190559 124.89981,15.9636832 C125.414278,15.3083104 125.672201,14.4678749 125.672201,13.443768 C125.672201,12.4224441 125.414278,11.5764428 124.89981,10.9099384 C124.385342,10.2420426 123.724672,9.90809476 122.919178,9.90809476 C122.113684,9.90809476 121.453014,10.2420426 120.937167,10.9099384 C120.422699,11.5764428 120.166155,12.4224441 120.166155,13.443768 L120.166155,13.443768 Z M125.975641,6.80516228 L125.975641,4.9044422 L131.750645,4.9044422 L131.750645,21.9510905 L125.975641,21.9510905 L125.975641,20.0503705 C125.593583,20.850454 124.95636,21.4237312 124.061214,21.7688107 C123.166068,22.1138901 122.281955,22.2864299 121.407498,22.2864299 C119.080669,22.2864299 117.255895,21.4515602 115.935933,19.7832122 C114.613213,18.1162556 113.953922,16.0040352 113.953922,13.443768 C113.953922,10.8640206 114.613213,8.74066859 115.935933,7.07232059 C117.255895,5.40397259 119.080669,4.57049431 121.407498,4.57049431 C122.281955,4.57049431 123.166068,4.74303406 124.061214,5.08811354 C124.95636,5.43180158 125.593583,6.00507879 125.975641,6.80516228 L125.975641,6.80516228 Z M84.9768351,20.2507392 L86.9229853,15.9803806 C87.6622741,16.4701708 88.40708,16.8305562 89.157403,17.0643198 C89.907726,17.2980833 90.8966627,17.414965 92.1283509,17.414965 C92.2180035,17.414965 92.3752403,17.3982676 92.5986821,17.3648729 C92.8207446,17.3314781 93.0800474,17.2535569 93.3696941,17.1311093 C93.6620994,17.0086618 93.8069227,16.8486451 93.8069227,16.6468849 C93.8069227,16.5369604 93.7738203,16.4465162 93.706236,16.381118 C93.6386518,16.3143285 93.5283102,16.2475389 93.3696941,16.1807493 C93.2138366,16.1139597 93.0800474,16.0638675 92.9683265,16.0304727 C92.8552263,15.997078 92.6607492,15.9525516 92.3793781,15.8968936 L91.7931883,15.7786204 C89.7325587,15.291613 88.1381223,14.6111942 87.0085001,13.7443211 C85.8774985,12.8774481 85.3119978,11.7100219 85.3119978,10.2420426 C85.3119978,8.46237868 86.0002536,7.07232059 87.3781445,6.07186837 C88.7546561,5.07141615 90.4152974,4.57049431 92.3642061,4.57049431 C94.9820609,4.57049431 97.2992348,5.10341949 99.3129693,6.17205274 L97.499229,10.2420426 C95.7765205,9.57414687 94.1324305,9.24019898 92.5642003,9.24019898 C91.8483591,9.24019898 91.4897489,9.41830452 91.4897489,9.7745156 C91.4897489,10.0416739 91.7821541,10.2754374 92.3642061,10.4744147 C92.9462582,10.6747835 93.6510652,10.8862838 94.4786273,11.1089157 C95.3075687,11.3315476 96.1406479,11.6154033 96.9806234,11.9604828 C97.8178404,12.3041709 98.5309231,12.8607507 99.1115958,13.6274394 C99.6936478,14.3955195 99.9860531,15.3236164 99.9860531,16.4131214 C99.9860531,17.4817546 99.7157161,18.4209831 99.1778008,19.2335896 C98.6412647,20.0448047 97.9474918,20.6626083 97.0978614,21.0842175 C96.2468517,21.5072181 95.4013591,21.813337 94.5627628,22.0025742 C93.7227873,22.1918113 92.9021215,22.2864299 92.0938692,22.2864299 C88.9160307,22.2864299 86.543686,21.6074025 84.9768351,20.2507392 L84.9768351,20.2507392 Z M66.1456595,21.9510905 L66.1456595,4.9044422 L71.9206637,4.9044422 L71.9206637,6.77176749 C73.1951093,5.30378822 74.919197,4.57049431 77.0915476,4.57049431 C78.1439307,4.57049431 79.0556283,4.74303406 79.8280196,5.08811354 C80.6004109,5.43180158 81.1921178,5.84923644 81.6072781,6.33902668 C82.0210591,6.82742547 82.3451876,7.45079487 82.5824221,8.20774342 C82.8155188,8.96190907 82.9617214,9.65206804 83.0182715,10.2754374 C83.0748216,10.8974154 83.1010277,11.6209691 83.1010277,12.4433158 L83.1010277,21.9510905 L76.9908608,21.9510905 L76.9908608,13.2100045 C76.9908608,11.2313633 76.353638,10.2420426 75.0778131,10.2420426 C74.2033558,10.2420426 73.5151,10.5801649 73.0130457,11.2591923 C72.5096121,11.9382196 72.2572056,12.8217901 72.2572056,13.9112951 L72.2572056,21.9510905 L66.1456595,21.9510905 Z M51.7253899,13.443768 C51.7253899,14.4678749 52.0108988,15.3083104 52.5819167,15.9636832 C53.1529345,16.6190559 53.8963611,16.9488294 54.8149551,16.9488294 C55.7321697,16.9488294 56.4755963,16.6190559 57.0466142,15.9636832 C57.617632,15.3083104 57.903141,14.4678749 57.903141,13.443768 C57.903141,12.4224441 57.6134942,11.5764428 57.0314422,10.9099384 C56.4493902,10.2420426 55.7087221,9.90809476 54.8149551,9.90809476 C53.9184294,9.90809476 53.1805199,10.2420426 52.5984679,10.9099384 C52.0164159,11.5764428 51.7253899,12.4224441 51.7253899,13.443768 L51.7253899,13.443768 Z M45.5462595,13.443768 C45.5462595,10.9530734 46.4372681,8.85059311 48.2165266,7.13911017 C49.9957851,5.42623578 52.1943417,4.57049431 54.8149551,4.57049431 C57.4328098,4.57049431 59.6327458,5.42623578 61.4120043,7.13911017 C63.1926421,8.85059311 64.0822713,10.9530734 64.0822713,13.443768 C64.0822713,15.913591 63.1926421,18.0049396 61.4120043,19.717814 C59.6327458,21.429297 57.4328098,22.2864299 54.8149551,22.2864299 C52.1943417,22.2864299 49.9957851,21.429297 48.2165266,19.717814 C46.4372681,18.0049396 45.5462595,15.913591 45.5462595,13.443768 L45.5462595,13.443768 Z M31.5535637,13.443768 C31.5535637,14.4678749 31.8390726,15.3083104 32.4100904,15.9636832 C32.979729,16.6190559 33.7245349,16.9488294 34.6431288,16.9488294 C35.5589642,16.9488294 36.3037701,16.6190559 36.8734087,15.9636832 C37.4458058,15.3083104 37.7313147,14.4678749 37.7313147,13.443768 C37.7313147,12.4224441 37.441668,11.5764428 36.8582367,10.9099384 C36.2761847,10.2420426 35.5368959,9.90809476 34.6431288,9.90809476 C33.745224,9.90809476 33.0073144,10.2420426 32.4266417,10.9099384 C31.8445897,11.5764428 31.5535637,12.4224441 31.5535637,13.443768 L31.5535637,13.443768 Z M25.3744333,13.443768 C25.3744333,10.9530734 26.2640626,8.85059311 28.0447003,7.13911017 C29.8239589,5.42623578 32.0225155,4.57049431 34.6431288,4.57049431 C37.2596043,4.57049431 39.4609195,5.42623578 41.2401781,7.13911017 C43.0194366,8.85059311 43.9090658,10.9530734 43.9090658,13.443768 C43.9090658,15.913591 43.0194366,18.0049396 41.2401781,19.717814 C39.4609195,21.429297 37.2596043,22.2864299 34.6431288,22.2864299 C32.0225155,22.2864299 29.8239589,21.429297 28.0447003,19.717814 C26.2640626,18.0049396 25.3744333,15.913591 25.3744333,13.443768 L25.3744333,13.443768 Z M9.43420796,4.9044422 L15.4781698,4.9044422 L16.9208864,14.8463492 L18.9691026,4.9044422 L24.9123778,4.9044422 L19.7414939,21.9510905 L14.1692424,21.9510905 L12.4561889,12.010575 L10.7431353,21.9510905 L5.16950459,21.9510905 L0,4.9044422 L5.94327516,4.9044422 L7.99011209,14.8463492 L9.43420796,4.9044422 Z M114.52494,4.85156712 C113.233943,6.25414826 112.250523,7.88771002 111.667092,9.67154834 L109.456122,9.67154834 L109.456122,15.9622917 C109.456122,16.6747139 109.767837,17.0323164 110.392647,17.0323164 C110.675397,17.0323164 111.10435,16.9585696 111.516752,16.8319477 C111.948463,18.352802 112.664304,19.7720806 113.614622,21.042474 C112.330521,21.7785508 110.486437,22.2864299 108.787176,22.2864299 C107.114121,22.2864299 105.792781,21.772985 104.821774,20.7460952 C103.850768,19.7205969 103.365265,18.2832296 103.365265,16.4298188 L103.365265,9.67154834 L100.856373,9.67154834 L100.856373,4.85156712 L103.365265,4.85156712 L103.365265,1.77507218 L109.456122,0.268132327 L109.456122,4.85156712 L114.52494,4.85156712 Z" id="Fill-3" fill="#FFFFFF" mask="url(#mask-hrf1im9szv-2)"></path>
                      </g>
                  </g>
              </g>
          </g>
      </g>
  </g>
</svg>
