<svg height="41" viewBox="0 0 222 41" width="222" xmlns="http://www.w3.org/2000/svg"><g fill="#fff"><path d="m47.378 0v23.632h4.927v-9.536h8.155v-4.177h-8.155v-5.429h10.585v-4.49z"/><path d="m77.9504785 23.6324278h-4.2336886l-.2082142-1.7750424c-.8675592 1.1833616-2.3597609 2.0882852-4.7195218 2.0882852-3.8519626 0-5.8646999-2.7843803-5.8646999-7.1697793v-9.466893h4.7195218v9.188455c0 1.7750425.9022615 2.9932088 2.4985704 2.9932088 1.5269041 0 2.463868-.9397283 3.1232129-1.9142614v-10.2674024h4.7195218v16.3234295zm17.5940996-9.3624787v9.3972835h-4.7195218v-9.1188455c0-1.8098472-1.0063686-3.0628183-2.6720822-3.0628183-1.4922017 0-2.4638679.9397283-3.0885105 1.9142614v10.2674024h-4.7195218v-16.28862479h4.2336886l.2082142 1.8098472c.7981545-1.18336163 2.3597609-2.12308998 4.6154147-2.12308998 3.9907721-.03480476 6.1423188 2.7843803 6.1423188 7.20458407m47.9933719-2.5407471h-.381726c-1.90863 0-3.157915.9745331-4.060176 2.1578948v9.7801358h-4.719522v-16.28862479h4.198986l.277619 2.15789474c.798154-1.32258065 2.394463-2.47113752 4.684819-2.47113752z"/><path d="m169.669 0-11.73 16.219-11.764-16.219h-.138v23.632h4.893v-9.954l6.871 10.268h.277l6.837-10.268v9.954h4.893v-23.632z"/><path d="m221.757083 8.77079796-1.76982 3.34125634c-.936964-.7308998-2.255654-1.3921901-3.886665-1.3921901-1.388095 0-2.116845.417657-2.116845 1.2877759 0 .8353141.624643 1.1485568 2.914999 1.7054329 3.435534.8353141 5.101248 2.3667233 5.101248 4.8378608 0 3.2368421-2.706785 5.3947368-7.079283 5.3947368-2.463868 0-4.858331-.7657046-6.211723-1.9490662l1.804523-3.3760611c1.075773.9397283 2.63738 1.6358234 4.441903 1.6358234 1.457499 0 2.325058-.4524618 2.325058-1.3921901 0-.8701189-.58994-1.3225807-2.741487-1.844652-3.574343-.8701188-5.240057-2.1578947-5.240057-4.6986417 0-3.23684215 2.533273-5.32512738 6.836366-5.32512738 2.220952.03480475 4.372498.69609507 5.621783 1.77504244m-119.202627 6.75212224c0 2.679966 1.492202 4.3505942 3.643748 4.3505942 1.631012 0 2.63738-.8701188 3.331428-2.0186757v-4.6290322c-.694048-1.1485569-1.700416-2.0534805-3.331428-2.0534805-2.151546-.0348048-3.643748 1.6358234-3.643748 4.3505942m11.7294 8.1095076h-4.233689l-.242916-1.8098472c-.832857 1.1485569-2.394464 2.12309-4.754225 2.12309-4.337795 0-7.2527941-3.5848896-7.2527941-8.4575552 0-4.8726655 2.9149991-8.49235988 7.2527941-8.49235988 2.325059 0 3.713154.9049236 4.476606 1.8098472v-8.80560272h4.754224zm6.905771-9.8149405h6.350533c-.069405-1.844652-1.145178-3.2020374-3.088511-3.2020374-1.90863-.0348047-3.157915 1.3225807-3.262022 3.2020374m11.00065 1.4617996v1.4966044h-11.00065c.104107 2.0882853 1.388094 3.2716469 3.713153 3.2716469 1.596309 0 2.845594-.6960951 3.574343-1.6706282l3.227321 2.6451613c-1.700416 1.9490662-3.851963 2.9235993-6.905771 2.9235993-5.101248 0-8.363271-3.5500849-8.363271-8.4227504s3.331428-8.52716468 8.189759-8.52716468c5.101248.03480475 7.565116 3.82852288 7.565116 8.28353138m44.557838.2436333c0 2.679966 1.492201 4.3505942 3.643748 4.3505942 1.631011 0 2.63738-.8701188 3.331427-2.0186757v-4.6290322c-.694047-1.1485569-1.700416-2.0534805-3.331427-2.0534805-2.151547-.0348048-3.643748 1.6358234-3.643748 4.3505942m7.218092-6.33446519.242916-1.84465195h4.233689v16.28862474h-4.233689l-.242916-1.8098472c-.832857 1.1485569-2.394463 2.12309-4.754224 2.12309-4.337796 0-7.252795-3.5848896-7.252795-8.4575552 0-4.8726655 2.914999-8.49235988 7.252795-8.49235988 2.359761.03480475 3.921367.9745331 4.754224 2.19269949m11.7294 4.00254669v4.5942275c.694047 1.1833616 1.735118 2.0534805 3.366129 2.0534805 2.151547 0 3.643748-1.6706282 3.643748-4.3505943 0-2.7147707-1.492201-4.3853989-3.643748-4.3853989-1.631011.0348047-2.672082.9397283-3.366129 2.0882852m11.764102 2.3319185c0 4.8726655-2.914999 8.4575552-7.252795 8.4575552-2.325058 0-3.713153-.9049236-4.511307-1.8098472v8.8752122h-4.719522v-23.70203734h4.233688l.208215 1.84465195c.867559-1.18336163 2.429165-2.15789474 4.788926-2.15789474 4.337796 0 7.252795 3.58488963 7.252795 8.49235993m-196.0683686-9.39728353 2.5679751 4.90747033h12.4581494c4.1989863 0 6.2464259-4.14176574 6.2464259-4.14176574l3.6090461-6.85653651h-23.31999c-1.2145828-.03480475-3.43553423 2.50594228-1.5616065 6.09083192z"/><path d="m18.9564562 25.7903226-10.37600741-19.66468593c-1.97803486-3.72410866.48583312-5.46434635 1.94333251-6.12563667h-1.45749939c-2.32505852 0-4.68481941 1.14855688-5.6217833 2.95840407-.06940473.13921902-2.63737981 4.94227505-2.63737981 4.94227505-1.63101121 3.09762308-.55523786 5.98641768 1.14517807 9.18845498l12.66636363 23.9108659s3.9213673-7.4482173 4.4766052-8.4923599c1.1104757-2.12309 1.1798804-4.2113752-.1388095-6.7173175zm10.2024957-12.2860781h-13.8809465l5.3788668 10.1281833c2.0821419-.2436332 3.9907721-1.6010186 4.9624383-3.4456706 0 .0348048 3.5396414-6.6825127 3.5396414-6.6825127z"/></g></svg>