<svg height="39" viewBox="0 0 210 39" width="210" xmlns="http://www.w3.org/2000/svg"><g fill="none"><g fill="#191e3c"><path d="m44.817 0v22.48h4.661v-9.072h7.714v-3.973h-7.714v-5.164h10.012v-4.271z"/><path d="m73.7369391 22.4796265h-4.0048406l-.1969594-1.688455c-.820664 1.1256366-2.2322062 1.9864176-4.4644124 1.9864176-3.6437485 0-5.5476891-2.6485568-5.5476891-6.8200339v-9.0050934h4.4644125v8.7402377c0 1.688455.8534906 2.8471986 2.3635125 2.8471986 1.4443687 0 2.3306859-.8938879 2.9543906-1.8208828v-9.7665535h4.4644125v15.5271647zm16.6430672-8.9057725v8.9388794h-4.4644125v-8.6740237c0-1.721562-.9519703-2.9134126-2.5276453-2.9134126-1.4115422 0-2.3306859.893888-2.921564 1.8208829v9.7665534h-4.4644125v-15.49405768h4.0048406l.1969594 1.72156197c.7550109-1.12563667 2.2322062-2.01952462 4.3659328-2.01952462 3.7750546-.03310696 5.8103015 2.64855688 5.8103015 6.85314093m45.3991357-2.4168082h-.361092c-1.805461 0-2.987217.9269949-3.840708 2.0526316v9.303056h-4.464412v-15.49405768h3.972014l.262612 2.05263158c.755011-1.25806452 2.265033-2.35059423 4.431586-2.35059423z"/><path d="m160.498 0-11.096 15.428-11.128-15.428h-.131v22.48h4.628v-9.469l6.5 9.767h.262l6.467-9.767v9.469h4.629v-22.48z"/><path d="m209.770214 8.34295416-1.674155 3.17826824c-.886317-.6952462-2.133726-1.3242784-3.676575-1.3242784-1.313062 0-2.00242.3972835-2.00242 1.2249575 0 .7945671.590878 1.0925297 2.757431 1.6222411 3.24983.7945671 4.825505 2.2512734 4.825505 4.6018676 0 3.0789474-2.560472 5.1315789-6.696619 5.1315789-2.330686 0-4.595718-.7283531-5.875954-1.8539898l1.706981-3.2113752c1.017623.893888 2.494819 1.5560272 4.2018 1.5560272 1.378715 0 2.19938-.4303905 2.19938-1.3242785 0-.827674-.558052-1.2580645-2.593299-1.7546689-3.381136-.827674-4.956811-2.0526316-4.956811-4.4694397 0-3.07894739 2.396339-5.06536505 6.466833-5.06536505 2.1009.03310696 4.136147.66213922 5.317903 1.68845501m-112.7592421 6.42275044c0 2.549236 1.4115422 4.1383701 3.4467891 4.1383701 1.542848 0 2.494819-.827674 3.15135-1.9202037v-4.4032258c-.656531-1.0925298-1.608502-1.9533107-3.15135-1.9533107-2.0352469-.033107-3.4467891 1.5560271-3.4467891 4.1383701m11.0953781 7.7139219h-4.004841l-.229785-1.721562c-.787838 1.0925297-2.265033 2.0195246-4.4972396 2.0195246-4.1033203 0-6.8607515-3.4100169-6.8607515-8.0449915 0-4.6349745 2.7574312-8.07809845 6.8607515-8.07809845 2.1993796 0 3.5124426.86078099 4.2346266 1.72156197v-8.37606112h4.497239zm6.532486-9.336163h6.007261c-.065653-1.7546689-1.083277-3.0458404-2.921564-3.0458404-1.805461-.033107-2.987217 1.2580645-3.085697 3.0458404m10.40602 1.3904924v1.4235993h-10.40602c.09848 1.9864176 1.313062 3.1120543 3.512442 3.1120543 1.510022 0 2.691778-.6621392 3.381136-1.5891341l3.05287 2.516129c-1.608501 1.8539898-3.643748 2.7809847-6.532486 2.7809847-4.825504 0-7.911201-3.37691-7.911201-8.0118845s3.15135-8.11120545 7.747069-8.11120545c4.825504.03310696 7.15619 3.64176575 7.15619 7.87945675m42.149307.2317487c0 2.549236 1.411542 4.1383701 3.446789 4.1383701 1.542848 0 2.494818-.827674 3.15135-1.9202037v-4.4032258c-.656532-1.0925298-1.608502-1.9533107-3.15135-1.9533107-2.035247-.033107-3.446789 1.5560271-3.446789 4.1383701m6.827925-6.02546691.229785-1.75466893h4.004841v15.49405774h-4.004841l-.229785-1.721562c-.787838 1.0925297-2.265033 2.0195246-4.49724 2.0195246-4.10332 0-6.860751-3.4100169-6.860751-8.0449915 0-4.6349745 2.757431-8.07809845 6.860751-8.07809845 2.232207.03310696 3.709402.92699491 4.49724 2.08573854m11.095378 3.80730051v4.3701188c.656531 1.1256367 1.641328 1.9533107 3.184176 1.9533107 2.035247 0 3.446789-1.5891341 3.446789-4.1383701 0-2.5823429-1.411542-4.1714771-3.446789-4.1714771-1.542848.033107-2.527645.893888-3.184176 1.9864177m11.128204 2.2181664c0 4.6349745-2.757431 8.0449915-6.860751 8.0449915-2.19938 0-3.512442-.860781-4.267453-1.721562v8.4422751h-4.464413v-22.54584044h4.004841l.196959 1.75466893c.820664-1.12563667 2.29786-2.05263158 4.530066-2.05263158 4.10332 0 6.860751 3.41001699 6.860751 8.07809849"/></g><path d="m10.7755923 5.82682513 2.4291656 4.66808147h11.784736c3.972014 0 5.9087812-3.93972833 5.9087812-3.93972833l3.4139625-6.52207131h-22.05945c-1.1489297-.03310696-3.24982967 2.38370119-1.4771953 5.79371817z" fill="#28cc8b"/><path d="m17.9317829 24.5322581-9.81514215-18.70543297c-1.87111406-3.54244482.45957187-5.19779287 1.8382875-5.82682513h-1.37871563c-2.19937968 0-4.43158593 1.09252971-5.31790312 2.81409168-.06565312.13242784-2.49481875 4.70118846-2.49481875 4.70118846-1.54284844 2.94651956-.525225 5.69439726 1.08327656 8.74023766l11.98169529 22.7444822s3.7094016-7.0848896 4.2346266-8.0780985c1.05045-2.0195246 1.1161031-4.0059422-.1313063-6.3896434z" fill="#17a4ea"/><path d="m27.5827923 12.8455008h-13.130625l5.0881172 9.6341257c1.9695937-.2317487 3.7750547-1.5229202 4.6941984-3.2775891 0 .0331069 3.3483094-6.3565366 3.3483094-6.3565366z" fill="#ffcc69"/></g></svg>