<?xml version="1.0" encoding="UTF-8"?>
<svg id="Layer_2" data-name="Layer 2" xmlns="http://www.w3.org/2000/svg" viewBox="0 0 155.35 154.24">
  <defs>
    <style>
      .cls-1 {
        fill: #1b384d;
      }

      .cls-1, .cls-2 {
        stroke-width: 0px;
      }

      .cls-2 {
        fill: #bde2f1;
      }
    </style>
  </defs>
  <g id="Layer_1-2" data-name="Layer 1">
    <path class="cls-1" d="m85.36,56.25c-4.53-1.64-9.2-1.03-13.82-1.12-14.24-.29-24.31-9.32-25.66-23.22-.24-2.43-.11-4.9-.1-7.36.04-.55.07-1.11.07-1.68C45.85,10.29,35.65.08,23.06.08S.27,10.29.27,22.87c0,7.48,3.6,14.11,9.16,18.27,2.6,2.05,5.68,3.44,9.28,4.1.44.09.89.16,1.34.22.07,0,.13.02.2.02.38.05.75.08,1.13.11.16.01.32.04.48.05,2.82.19,5.65.13,8.47.18,12.86.23,22.27,8.44,24.43,21.02.65,3.8.36,7.57.48,11.36.35,11.29,8.74,20.3,20.12,21.52,11.06,1.19,21.7-6.37,24.1-17.12,2.55-11.39-3.44-22.5-14.1-26.35Z"/>
    <path class="cls-1" d="m136.37,45.26c10.77-1.81,18.98-11.18,18.98-22.47,0-12.59-10.2-22.79-22.79-22.79-8.66,0-16.2,4.83-20.05,11.95-.94,1.52-1.72,3.13-2.25,4.82-1.59,5.04-.61,10.18-.94,14.52,0,4.37.09,8.01-.04,11.64-.07,2.06.49,2.95,2.75,2.9,7.31-.16,14.65.2,21.93-.27.25-.02.49-.06.74-.08.24-.02.47-.05.7-.08.32-.04.64-.08.96-.14Z"/>
    <path class="cls-2" d="m45.51,78.78c.04-.54.06-1.08.06-1.63,0-1.33-.12-2.63-.34-3.9-.03-.18-.06-.36-.1-.54-.02-.11-.05-.22-.07-.33-.77-3.91-2.57-7.43-5.17-10.27-4.18-4.75-10.29-7.75-17.11-7.75-12.59,0-22.79,10.2-22.79,22.79s10.2,22.79,22.79,22.79c.56,0,1.12-.03,1.67-.07.06,0,.13,0,.19,0,5.64.02,11.28-.13,16.92.05,3.03.1,4.09-.95,4.01-3.97-.16-5.72-.07-11.45-.06-17.18Z"/>
    <path class="cls-2" d="m131.87,54.46c-7.48,0-14.11,3.6-18.27,9.16-2.05,2.6-3.44,5.68-4.1,9.28-.09.44-.16.89-.22,1.34,0,.07-.02.13-.02.2-.05.38-.08.75-.11,1.13-.01.16-.04.32-.05.48-.19,2.82-.13,5.65-.18,8.47-.11,6.31-2.15,11.78-5.68,15.97-2.72,3.09-6.17,5.56-10,6.97-5.21,1.92-10.5,1.21-15.77,1.34-7.48.18-13.79,3.78-17.78,9.1-2.52,3.23-4.2,7.21-4.68,11.65-1.19,11.06,6.37,21.7,17.12,24.1,11.39,2.55,22.5-3.44,26.35-14.1.25-.68.43-1.37.58-2.05,1.26-4.46,1.34-9.11,1.32-13.77-.02-3.99.83-7.64,2.39-10.84,3.81-7.2,10.85-11.92,20.04-12.82,2.43-.24,4.9-.11,7.36-.1.55.04,1.11.07,1.68.07,12.59,0,22.79-10.2,22.79-22.79s-10.2-22.79-22.79-22.79Z"/>
  </g>
</svg>